<svg version="1" xmlns="http://www.w3.org/2000/svg" width="933.333" height="933.333" viewBox="0 0 700.000000 700.000000"><path d="M322.5 2.1c-27 3.9-45.8 10.5-63 22-19.3 12.8-28.2 29.4-25.1 46.2 4.5 23.6 33.1 44.2 73.1 52.7 15.2 3.2 25.3 4.2 43 4.3 16.5 0 19.8-.3 33.3-2.4 40.1-6.2 70.3-23.6 80.9-46.5 3.8-8.1 3.9-20.2.3-28.4-7-16.1-23.6-29.5-47.6-38.5-10.4-3.9-26.6-8-35.9-9-3.3-.4-6.4-1-6.9-1.3-.5-.3-9.7-.6-20.5-.7-14.2-.1-22.9.3-31.6 1.6zm44.7 15.4c11.9 2 13.7 2.5 21.8 5.8 8.6 3.5 14.5 7.2 19.5 12.4 4.7 4.8 6.5 8.8 7 14.9 1 12.9-10.7 24.5-31.4 31.4-11.3 3.7-14 4.1-31.1 4.5-15.3.4-24.2-.7-35.5-4.4-31-10.2-41-32.1-22.2-48.6 9-8 26.2-14.7 40.7-16.1 3-.3 5.6-.7 5.8-.8.5-.5 21.2.2 25.4.9zM513.7 59.1c-17.7 4.1-20.3 24.7-6.5 52.4 15.7 31.7 48.9 64.6 80.3 79.5 32.1 15.3 53.6 7.8 51.1-17.8-.7-7.4-2.6-14.4-5.6-20.9-1.1-2.4-2-4.6-2-5.1 0-1.7-12.2-20.7-18.3-28.5-29.6-37.8-75-65.1-99-59.6zm43.8 25.5c3.7 1.2 14 6.7 19.6 10.5 6.5 4.4 19.4 17 23.5 23.2 1.6 2.3 3.5 4.8 4.1 5.5.7.7 2.8 4.6 4.7 8.5 12.8 26.7-2.6 37.6-29.9 21.2-27.6-16.7-48.6-48.8-42-64.3 1.9-4.3 6.4-6.3 13-5.7 2.8.2 6 .7 7 1.1zM169.1 61.1c-11.6 2.2-27.1 9.3-40.3 18.5-33 23.2-60.6 58.3-67.7 86.3-2.8 11.1-2.7 17.3.3 23.7 4 8.6 11.2 12.1 23 11.1 40.5-3.4 100.7-58.9 113.1-104.3 7.1-25.6-4.3-39.7-28.4-35.3zM156.8 87c4.2 2.6 5.5 6.1 4.9 13-1.7 19.3-28.1 50-51.7 60-3 1.2-8.4 2.5-12.1 2.8-6.2.4-6.8.3-9.9-2.5-15.5-13.8 18.4-61.8 51.8-73.3 7.4-2.5 12.8-2.5 17 0zM336.7 163.6c-.1.1-2.9.5-6.2.8-49.1 5.3-95 30.5-125.7 69.1-19.8 24.9-33.8 56.7-38.3 87-2.1 13.7-2.7 43.6-1.1 51.2.2 1.1.8 4.3 1.1 7 3.2 22.6 14.9 52.6 28.6 73 10.6 15.8 27.8 34.4 41.4 44.6 27.1 20.5 55.9 32.4 89.7 37.2 9 1.2 41.5 1.4 46.7.1 1.2-.3 4.2-.7 6.5-1 12.8-1.5 37.3-9.2 51.6-16.2 29.2-14.2 55.5-37.3 73.9-64.6 7.9-11.9 16.7-30 21.1-43.3 4-12.5 4.5-14.5 6.1-23.4.5-3 1.2-5.7 1.4-6.1 1.6-2.7 2.5-36.8 1.3-49-2.6-23.9-10.9-51.1-21-68.3-1.5-2.6-2.8-5-2.8-5.3 0-1-10.4-16-15.8-22.9-5.8-7.4-18.3-20.2-26.7-27.3-7.1-6.1-25.6-18.2-35-22.9-17-8.5-29.3-12.6-54.6-17.8-6.1-1.3-41.1-2.8-42.2-1.9zm36.3 84.9c25.1 6.4 44.9 19.4 59.5 39 14.1 18.8 20.6 38.5 20.6 62 0 8-.3 11.2-1.6 19-2.1 13-9.8 30.4-18.5 42.1-22.7 30.4-59.3 45.8-96.5 40.8-13.3-1.8-14.6-2.2-26.5-7.2-33.2-13.9-57-44.7-62.5-80.6-.8-5.4-.7-20.9.1-27.6 5.4-44.7 42-82.1 86.9-89 8.2-1.3 31.3-.4 38.5 1.5zM55 233.3c-22.2 6.4-39.8 30.5-49 67.1C1.5 318.3.2 331 .5 353c.3 13.8 1.2 24.7 2.9 33 .1.8.6 3.3 1.1 5.5 5.9 30.6 20.4 56.5 38 68 23.2 15.1 49.2 4.3 66.4-27.7 14.1-26 20.7-62.7 18-98.8-.9-10.8-1.4-14.4-3.3-24.5-6-30.8-20.3-57.2-37.1-68.7-9.8-6.7-22.1-9.2-31.5-6.5zm6.9 53.6c10.4 5.4 19.5 21.8 23.6 42.3 2.1 11.2 1.4 35.9-1.5 46.8-7.8 29.5-24.8 44.2-41.5 35.9-12-6-21.1-22.8-25.1-46.4-1.4-7.7-.9-27.8.9-37.5 4-21.9 15.8-40 28-43.1 4.5-1.1 11-.3 15.6 2zM630.8 234.1c-14.2 2.3-28.5 14.1-38.6 31.9-6.8 12-13.5 30.6-15.6 43.5-.3 1.6-1 5.3-1.5 8.1-3.4 18-3.2 49.6.5 69.9 4.8 26.6 15.9 51.5 28.9 65 4.4 4.6 11.5 9.6 17.1 12.2 7.6 3.4 19.2 3.8 26.9.9 13.5-5.2 24.6-16.4 33.8-34.4 8.1-15.7 12.6-30.8 15.8-52.7 1.4-9.9 1.8-41.5.6-51-5.9-46.3-23.6-79.9-47.5-90.5-3.8-1.7-6.1-2.3-13.7-3.4-1.1-.2-4.1 0-6.7.5zm28.9 55.1c9 5.5 17.6 20.5 21.4 37.3 3.3 15.1 3 37-.7 51.6-8.9 34.9-32.7 48.2-50.4 28.2-5.3-6-11.2-18.2-14.2-29.3-2-7.3-2.3-10.9-2.3-26.5.1-19.6 1.5-27.6 7.5-41 9.4-20.9 24.6-28.9 38.7-20.3zM607.2 499.1c-36.3 9.2-80.5 48.5-99 87.9-5.1 10.9-7.4 18.8-7.8 26.6-.4 8.6 1.2 13.9 5.5 18.4 19.8 20.9 82.2-13.9 116.5-65 15.9-23.6 22-46.6 15.9-59-4.7-9.3-16.3-12.7-31.1-8.9zm4.2 38.3c2.5 1.6 4.6 6.9 4.6 11.6 0 6.9-6.5 20.7-14.5 31-4.5 5.8-18.6 18.8-25.1 23.1-33.8 22.6-50.7 5.3-27.9-28.5 17.9-26.7 50-45.7 62.9-37.2zM77 499.7c-.8.3-3.4 1.4-5.8 2.5-11.7 5.5-13.3 24.3-3.7 45.2 1.4 3 2.5 5.7 2.5 6 0 .2 2.3 4.1 5 8.6 17 27.8 43.4 53.1 70 67.3 27.1 14.5 46.9 14.3 54.6-.3 2.7-5.2 2.4-17.4-.6-27-4.1-13.2-16.3-34.3-26.4-46-29.5-33.8-62.9-55.3-87.9-56.4-3.4-.2-6.9-.1-7.7.1zm32 39.6c20.4 7.4 44 30.8 52.3 51.7 2 4.9 2.5 7.9 2.3 12.4-.3 5.3-.7 6.3-3.6 8.9-3 2.7-3.7 2.9-9.9 2.5-24.5-1.4-61.9-38.4-63.9-63.3-.4-5-.1-7 1.2-9.1 3.7-5.5 11.7-6.7 21.6-3.1zM339.7 572.6c-.1.1-4.2.4-9.2.8-4.9.3-10 .8-11.1 1-1.2.2-3.7.7-5.6 1-37.8 6-68.9 24.4-78.9 46.8-1.9 4.3-2.3 6.9-2.3 14.3 0 7.7.4 9.8 2.7 14.5 6.2 12.7 16.5 22.4 32.7 30.9 14.7 7.6 33.5 13.5 50 15.6 3 .4 6.4.9 7.5 1.2 3.8.9 38 1.1 44 .3 3.3-.5 8.3-1.1 11-1.5 21.1-2.7 45.2-11.4 60.3-21.8 26.4-18.2 32.7-41.9 16.8-63.5-2.4-3.3-6.2-7.4-8.5-9.3-2.3-1.9-5.4-4.4-6.9-5.7-8.3-7-35.7-17.9-52.1-20.7-1.9-.3-3.7-.8-4-1-.4-.2-3.3-.6-6.6-.9-3.3-.4-7.9-.9-10.1-1.2-4-.6-29.2-1.3-29.7-.8zm26.8 41.5c2.8.5 5.9 1.1 7 1.3 16.2 3 33.3 13.4 38.4 23.3 7.6 15-3.4 30.7-27.5 39.2-18 6.3-39.4 7.3-61.9 2.7-14.3-2.9-31.4-13.7-36.1-22.9-2.4-4.4-2.4-14.2 0-18.7 6.4-12.4 25.5-22.4 48.1-25.3 6.2-.7 27.2-.5 32 .4z"/></svg>