<svg xmlns="http://www.w3.org/2000/svg" xmlns:xlink="http://www.w3.org/1999/xlink" width="450" height="270" viewBox="19.5 -31.5 450 270"><g transform="translate(-1490)"><defs><path id="a" d="M1519.25-15.788h505.25v309.733h-505.25z"/></defs><clipPath id="b"><use xlink:href="#a" overflow="visible"/></clipPath><g clip-path="url(#b)"><path fill="#FFF" d="M1734.83 17.562a39.363 39.363 0 0 1 6.088.49 38.658 38.658 0 0 1 20.238 9.855 38.025 38.025 0 0 1 7.858 10.316 37.05 37.05 0 0 1 3.492 10.046c.778 4.046.874 8.218.292 12.296a36.904 36.904 0 0 1-3.422 11.077 37.584 37.584 0 0 1-3.508 5.76 38.257 38.257 0 0 1-4.545 5.117 38.596 38.596 0 0 1-11.868 7.624 38.696 38.696 0 0 1-7.473 2.202c-2.398.452-4.838.676-7.28.676-2.44 0-4.88-.224-7.277-.676a38.692 38.692 0 0 1-13.74-5.457 38.518 38.518 0 0 1-5.6-4.37 38.19 38.19 0 0 1-4.545-5.116 37.623 37.623 0 0 1-3.51-5.76 37.03 37.03 0 0 1-3.42-11.078 37.332 37.332 0 0 1 .293-12.297c.67-3.49 1.85-6.88 3.49-10.047a37.986 37.986 0 0 1 7.86-10.315 38.683 38.683 0 0 1 24.225-10.283c.7-.04 1.398-.058 2.098-.063h.254zm-.194 16.748a22.372 22.372 0 0 0-3.532.294c-1.765.292-3.49.806-5.124 1.526-1.944.856-3.755 2-5.357 3.378a21.304 21.304 0 0 0-4.61 5.58 20.53 20.53 0 0 0-2.15 5.457 20.606 20.606 0 0 0-.546 4.607 20.51 20.51 0 0 0 2.017 9.044 21.178 21.178 0 0 0 4.53 6.192 21.533 21.533 0 0 0 6.592 4.267c1.33.546 2.713.96 4.126 1.23a22.064 22.064 0 0 0 8.057.036c1.438-.26 2.848-.67 4.2-1.216a21.56 21.56 0 0 0 6.618-4.228 21.188 21.188 0 0 0 4.568-6.164 20.466 20.466 0 0 0 2.074-9.022c0-1.573-.175-3.146-.53-4.68a20.594 20.594 0 0 0-2.23-5.633 21.297 21.297 0 0 0-4.258-5.216 21.553 21.553 0 0 0-5.47-3.553 21.415 21.415 0 0 0-5.235-1.594 22.214 22.214 0 0 0-3.458-.304h-.284zM1675.532 31.49a7.683 7.683 0 0 1 2.09.31c1.126.33 2.227.925 3.266 1.766 1.357 1.097 2.607 2.61 3.686 4.452 1.096 1.872 2.015 4.08 2.7 6.508a38 38 0 0 1 1.198 6.337c.267 2.552.3 5.184.102 7.756a40.384 40.384 0 0 1-.432 3.537 36.727 36.727 0 0 1-.745 3.45 31.667 31.667 0 0 1-1.204 3.634 25.474 25.474 0 0 1-1.56 3.228 18.958 18.958 0 0 1-1.924 2.756 13.35 13.35 0 0 1-2.154 2.053 9.44 9.44 0 0 1-2.567 1.39 7.644 7.644 0 0 1-2.5.426c-.84 0-1.676-.142-2.5-.426a9.413 9.413 0 0 1-2.566-1.39 13.298 13.298 0 0 1-2.153-2.053 18.857 18.857 0 0 1-1.922-2.756 25.358 25.358 0 0 1-1.56-3.227 31.584 31.584 0 0 1-1.206-3.633 36.592 36.592 0 0 1-.745-3.45 40.293 40.293 0 0 1-.43-3.538 42.93 42.93 0 0 1 .1-7.757c.23-2.202.636-4.34 1.2-6.337.685-2.427 1.602-4.635 2.698-6.508 1.08-1.843 2.33-3.355 3.687-4.452 1.04-.84 2.14-1.436 3.264-1.765a7.78 7.78 0 0 1 1.37-.27c.24-.024.48-.036.722-.04h.084zm-2.566 10.566a4.3 4.3 0 0 0-1.213.186c-.607.184-1.2.51-1.76.963-.668.54-1.29 1.26-1.84 2.13-.633 1.002-1.172 2.197-1.583 3.522a20.346 20.346 0 0 0-.738 3.442 23.848 23.848 0 0 0-.117 4.855c.1 1.298.31 2.57.622 3.757.38 1.458.91 2.786 1.555 3.906.655 1.137 1.426 2.057 2.265 2.69.455.345.93.606 1.417.777.458.16.926.242 1.393.245.46.002.92-.07 1.374-.222a5.2 5.2 0 0 0 1.444-.767c.84-.625 1.615-1.536 2.273-2.667.647-1.113 1.183-2.435 1.57-3.89.313-1.18.527-2.45.634-3.746a24.292 24.292 0 0 0-.105-4.896 20.374 20.374 0 0 0-.766-3.552c-.387-1.227-.882-2.342-1.463-3.29-.557-.914-1.193-1.674-1.878-2.242-.573-.473-1.18-.81-1.8-1.005a4.28 4.28 0 0 0-1.187-.19c-.032-.004-.064-.004-.097-.004zM1793.883 79.408a7.59 7.59 0 0 1-2.09-.31c-1.125-.33-2.226-.923-3.265-1.765-1.357-1.097-2.608-2.61-3.687-4.452-1.096-1.87-2.013-4.08-2.698-6.506a37.957 37.957 0 0 1-1.2-6.337 43.06 43.06 0 0 1-.1-7.758 40.55 40.55 0 0 1 .43-3.538 36.81 36.81 0 0 1 .746-3.45c.34-1.273.744-2.49 1.204-3.635.466-1.156.99-2.238 1.562-3.226a18.74 18.74 0 0 1 1.923-2.755c.68-.802 1.4-1.49 2.152-2.053a9.416 9.416 0 0 1 2.566-1.39 7.605 7.605 0 0 1 2.5-.427c.84 0 1.677.142 2.5.427.88.304 1.74.77 2.566 1.39a13.35 13.35 0 0 1 2.153 2.053c.687.81 1.33 1.733 1.923 2.756.572.99 1.096 2.07 1.56 3.227.46 1.144.865 2.362 1.205 3.634.298 1.114.548 2.27.746 3.452a40.79 40.79 0 0 1 .43 3.537 43.02 43.02 0 0 1-.102 7.757c-.23 2.2-.636 4.34-1.2 6.337-.684 2.426-1.602 4.635-2.698 6.507-1.08 1.843-2.33 3.356-3.687 4.453-1.04.84-2.14 1.435-3.264 1.765a7.696 7.696 0 0 1-2.092.31h-.085zm2.566-10.565a4.248 4.248 0 0 0 1.212-.186 5.235 5.235 0 0 0 1.76-.962c.668-.54 1.29-1.262 1.84-2.132.633-1 1.17-2.195 1.583-3.52a20.43 20.43 0 0 0 .74-3.443 23.86 23.86 0 0 0 .116-4.855c-.102-1.3-.312-2.57-.622-3.757-.382-1.46-.914-2.787-1.557-3.906-.654-1.14-1.425-2.057-2.264-2.692a5.23 5.23 0 0 0-1.42-.775 4.27 4.27 0 0 0-1.392-.245c-.46-.003-.92.07-1.374.22-.494.166-.98.424-1.443.77-.84.624-1.613 1.534-2.272 2.666-.647 1.112-1.182 2.435-1.57 3.888a21.403 21.403 0 0 0-.632 3.748 23.897 23.897 0 0 0-.078 1.944c0 .992.06 1.984.183 2.954.157 1.242.417 2.443.766 3.55.386 1.23.883 2.343 1.462 3.292.56.914 1.193 1.674 1.88 2.242.57.474 1.176.812 1.797 1.005a4.283 4.283 0 0 0 1.284.193zM1759.134-2.59a7.28 7.28 0 0 1-.315 2.05c-.336 1.103-.943 2.182-1.8 3.202-1.12 1.33-2.66 2.557-4.54 3.615-1.91 1.076-4.16 1.976-6.634 2.648-2.036.553-4.216.95-6.46 1.176a45.543 45.543 0 0 1-7.91.1 42.867 42.867 0 0 1-3.606-.423 38.93 38.93 0 0 1-3.518-.73 33.22 33.22 0 0 1-3.705-1.182 26.44 26.44 0 0 1-3.29-1.53 19.32 19.32 0 0 1-2.81-1.888 13.246 13.246 0 0 1-2.092-2.112c-.633-.81-1.108-1.654-1.417-2.517a7.24 7.24 0 0 1-.435-2.452c0-.82.145-1.644.435-2.45a9.133 9.133 0 0 1 1.417-2.52 13.388 13.388 0 0 1 2.093-2.11 19.285 19.285 0 0 1 2.81-1.887 26.44 26.44 0 0 1 3.29-1.532 33.31 33.31 0 0 1 3.704-1.18 38.783 38.783 0 0 1 3.518-.732 42.69 42.69 0 0 1 3.607-.422 45.585 45.585 0 0 1 7.908.098c2.245.226 4.426.624 6.46 1.177 2.475.67 4.727 1.57 6.636 2.646 1.88 1.058 3.42 2.285 4.54 3.615.856 1.022 1.463 2.1 1.8 3.204a7.288 7.288 0 0 1 .314 2.05v.085zm-10.772-2.518a4.015 4.015 0 0 0-.19-1.19c-.188-.595-.518-1.175-.98-1.727-.55-.655-1.287-1.264-2.173-1.804-1.02-.62-2.24-1.148-3.59-1.552a21.55 21.55 0 0 0-3.51-.724c-.97-.12-1.967-.18-2.964-.185a25.83 25.83 0 0 0-1.986.07c-1.325.098-2.62.305-3.83.61-1.488.373-2.842.894-3.982 1.525-1.16.642-2.098 1.398-2.745 2.22a5.068 5.068 0 0 0-.79 1.39c-.165.45-.247.91-.25 1.368-.004.45.072.903.226 1.348.166.485.43.96.78 1.415.64.826 1.567 1.584 2.72 2.23 1.134.635 2.483 1.16 3.964 1.54 1.208.307 2.5.517 3.822.62a25.245 25.245 0 0 0 4.992-.102c1.267-.154 2.49-.41 3.622-.75 1.25-.38 2.387-.867 3.355-1.435.93-.547 1.706-1.17 2.285-1.842.483-.562.828-1.156 1.025-1.764.124-.385.188-.775.196-1.165.002-.032.002-.064.002-.095zM1710.28 113.49a7.293 7.293 0 0 1 .315-2.05c.34-1.102.944-2.182 1.8-3.202 1.12-1.33 2.66-2.557 4.54-3.615 1.91-1.076 4.16-1.976 6.635-2.647a40.04 40.04 0 0 1 6.46-1.176 45.546 45.546 0 0 1 7.908-.1c1.22.092 2.427.233 3.607.424 1.206.193 2.383.437 3.518.73 1.297.334 2.538.73 3.704 1.182 1.18.457 2.282.97 3.29 1.53a19.326 19.326 0 0 1 2.81 1.887 13.38 13.38 0 0 1 2.095 2.11c.63.812 1.106 1.656 1.415 2.52.29.807.435 1.628.435 2.45 0 .822-.145 1.645-.435 2.452-.31.862-.785 1.706-1.415 2.518a13.382 13.382 0 0 1-2.095 2.11 19.294 19.294 0 0 1-2.81 1.887 26.15 26.15 0 0 1-3.29 1.53 32.99 32.99 0 0 1-3.704 1.183 38.93 38.93 0 0 1-3.518.73c-1.18.19-2.387.332-3.607.423a45.545 45.545 0 0 1-7.908-.098 40.088 40.088 0 0 1-6.46-1.176c-2.474-.672-4.726-1.573-6.635-2.647-1.88-1.06-3.422-2.286-4.54-3.616-.856-1.02-1.46-2.1-1.798-3.204a7.21 7.21 0 0 1-.316-2.05v-.085zm10.773 2.518c.003.4.064.797.19 1.19.188.594.518 1.175.98 1.726.55.655 1.287 1.266 2.173 1.806 1.02.62 2.24 1.15 3.59 1.552 1.097.328 2.283.574 3.508.725a25.65 25.65 0 0 0 4.95.115 22.72 22.72 0 0 0 3.83-.61c1.487-.372 2.842-.893 3.982-1.525 1.16-.642 2.097-1.398 2.744-2.22.352-.448.617-.915.79-1.39.165-.45.248-.91.25-1.367a4.034 4.034 0 0 0-.225-1.348 4.995 4.995 0 0 0-.783-1.414c-.638-.826-1.566-1.585-2.72-2.23-1.132-.636-2.48-1.16-3.964-1.54a22.67 22.67 0 0 0-3.82-.62 25.67 25.67 0 0 0-1.982-.078c-1.013 0-2.024.06-3.01.18a21.6 21.6 0 0 0-3.624.75c-1.25.38-2.387.866-3.354 1.434-.932.547-1.707 1.17-2.285 1.843-.484.56-.83 1.156-1.025 1.764a4.047 4.047 0 0 0-.196 1.164v.094zM1702.47-2.186a3.716 3.716 0 0 1 .746 1.073c.31.668.46 1.47.445 2.384-.018 1.19-.317 2.565-.877 4.047-.57 1.506-1.407 3.12-2.47 4.753a37.07 37.07 0 0 1-3.033 4.012 43.256 43.256 0 0 1-4.315 4.32c-.714.62-1.443 1.21-2.178 1.764a36.536 36.536 0 0 1-2.268 1.58 30.327 30.327 0 0 1-2.574 1.483c-.855.436-1.693.806-2.5 1.104-.837.31-1.64.54-2.397.688-.75.15-1.456.217-2.103.202-.712-.015-1.353-.13-1.91-.342a3.848 3.848 0 0 1-1.342-.845 3.762 3.762 0 0 1-.86-1.315c-.217-.546-.335-1.175-.35-1.874a9.314 9.314 0 0 1 .205-2.062c.153-.742.388-1.53.702-2.35.304-.79.68-1.615 1.127-2.453.438-.83.945-1.675 1.51-2.524a36.05 36.05 0 0 1 1.61-2.225 39.874 39.874 0 0 1 1.8-2.136 43.124 43.124 0 0 1 4.404-4.234 37.544 37.544 0 0 1 4.09-2.975c1.665-1.04 3.31-1.862 4.845-2.42 1.51-.55 2.91-.844 4.125-.863.93-.014 1.75.133 2.43.438a3.794 3.794 0 0 1 1.134.77zm-7.306 4.484a2.137 2.137 0 0 0-.64-.422c-.37-.16-.812-.237-1.315-.23-.597.01-1.277.14-2.008.38-.84.278-1.75.704-2.676 1.257-.754.45-1.516.983-2.26 1.58a23.9 23.9 0 0 0-2.78 2.625 21.15 21.15 0 0 0-1.84 2.34c-.65.968-1.163 1.93-1.51 2.825-.35.91-.527 1.75-.514 2.46.006.39.07.738.187 1.04.112.29.272.535.476.738.2.202.445.36.73.473.31.122.668.19 1.066.2.722.02 1.575-.15 2.5-.488.91-.333 1.89-.83 2.877-1.467a21.296 21.296 0 0 0 2.384-1.792 23.568 23.568 0 0 0 2.706-2.745 19.75 19.75 0 0 0 1.662-2.29c.52-.843.928-1.67 1.206-2.445.268-.745.415-1.438.432-2.048.015-.508-.06-.957-.226-1.33a2.107 2.107 0 0 0-.416-.62c-.014-.014-.027-.03-.042-.042zM1793.307 23.67a3.837 3.837 0 0 1-1.095.733c-.68.305-1.5.453-2.43.438-1.214-.017-2.615-.31-4.126-.86-1.535-.56-3.18-1.38-4.846-2.422a37.752 37.752 0 0 1-4.09-2.976 43.29 43.29 0 0 1-4.404-4.233 40.5 40.5 0 0 1-1.798-2.137 35.91 35.91 0 0 1-1.613-2.224 29.845 29.845 0 0 1-1.51-2.524c-.446-.84-.823-1.66-1.127-2.454-.315-.82-.55-1.608-.702-2.35A9.255 9.255 0 0 1 1765.36.6c.016-.698.132-1.328.35-1.875.202-.512.49-.952.86-1.315.37-.362.818-.645 1.34-.844.558-.213 1.2-.328 1.912-.343a9.8 9.8 0 0 1 2.102.202c.756.15 1.56.38 2.396.69a23.24 23.24 0 0 1 2.5 1.103c.847.432 1.71.93 2.574 1.483a36.758 36.758 0 0 1 2.267 1.58 40.62 40.62 0 0 1 2.18 1.766 43.216 43.216 0 0 1 4.315 4.32 37.056 37.056 0 0 1 3.034 4.01c1.06 1.634 1.898 3.248 2.468 4.754.56 1.482.86 2.856.878 4.047.015.912-.136 1.715-.445 2.383a3.776 3.776 0 0 1-.783 1.11zm-4.572-7.163c.177-.178.32-.387.43-.627.163-.363.242-.798.234-1.29-.01-.586-.143-1.253-.39-1.97-.282-.826-.717-1.716-1.28-2.625a19.856 19.856 0 0 0-1.61-2.216 23.55 23.55 0 0 0-1.55-1.685c-.366-.36-.742-.71-1.127-1.043a21.56 21.56 0 0 0-2.385-1.804c-.988-.64-1.967-1.142-2.88-1.48-.928-.345-1.785-.52-2.51-.506-.395.006-.75.068-1.06.184-.293.11-.545.267-.75.467a2.09 2.09 0 0 0-.482.716 2.946 2.946 0 0 0-.204 1.045c-.02.71.152 1.544.498 2.453.34.893.847 1.853 1.494 2.82.527.79 1.145 1.58 1.828 2.34a23.986 23.986 0 0 0 2.798 2.655 20.034 20.034 0 0 0 2.334 1.627c.86.51 1.705.91 2.493 1.183.76.263 1.466.408 2.087.424.518.015.975-.06 1.357-.222a2.14 2.14 0 0 0 .675-.448zM1766.944 112.77a3.717 3.717 0 0 1-.748-1.072c-.31-.668-.46-1.47-.446-2.384.02-1.19.32-2.565.88-4.046.568-1.506 1.406-3.12 2.468-4.753a36.983 36.983 0 0 1 3.034-4.012 43.176 43.176 0 0 1 4.315-4.32c.714-.62 1.443-1.21 2.178-1.764a36.18 36.18 0 0 1 2.268-1.58 30.38 30.38 0 0 1 2.573-1.484 22.937 22.937 0 0 1 2.5-1.104 15.86 15.86 0 0 1 2.396-.69 9.812 9.812 0 0 1 2.103-.2c.712.014 1.353.13 1.91.342.523.198.972.482 1.34.844.37.362.66.802.863 1.314.216.548.333 1.177.35 1.875a9.213 9.213 0 0 1-.207 2.062c-.15.742-.387 1.53-.7 2.35a22.18 22.18 0 0 1-1.128 2.453 29.39 29.39 0 0 1-1.51 2.523 35.576 35.576 0 0 1-1.613 2.224 39.888 39.888 0 0 1-1.8 2.137 43.223 43.223 0 0 1-4.403 4.233 37.698 37.698 0 0 1-4.09 2.975c-1.666 1.04-3.31 1.863-4.846 2.422-1.51.55-2.91.843-4.124.862-.93.013-1.75-.135-2.43-.44a3.888 3.888 0 0 1-.755-.44 3.508 3.508 0 0 1-.376-.33zm7.303-4.483c.182.174.395.316.64.422.37.16.813.237 1.315.23.598-.01 1.277-.14 2.008-.38.842-.28 1.75-.706 2.676-1.258.753-.45 1.516-.983 2.26-1.58a23.74 23.74 0 0 0 2.78-2.624 21.075 21.075 0 0 0 1.838-2.34c.652-.97 1.165-1.93 1.51-2.826.352-.91.528-1.75.516-2.46a3.033 3.033 0 0 0-.188-1.04 2.097 2.097 0 0 0-.477-.738c-.202-.2-.445-.36-.73-.47a3.104 3.104 0 0 0-1.066-.2c-.723-.02-1.576.148-2.502.487-.91.334-1.89.833-2.876 1.467a21.35 21.35 0 0 0-2.385 1.793 24.186 24.186 0 0 0-2.707 2.744 19.78 19.78 0 0 0-1.66 2.29c-.52.842-.927 1.672-1.205 2.445-.268.744-.415 1.437-.432 2.046-.015.508.062.956.227 1.33.104.237.244.443.415.62l.042.04zM1676.105 86.914a3.75 3.75 0 0 1 1.095-.732c.68-.305 1.5-.452 2.43-.438 1.213.02 2.615.312 4.125.862 1.535.558 3.18 1.38 4.846 2.422a37.78 37.78 0 0 1 4.09 2.975 43.285 43.285 0 0 1 4.405 4.232c.63.7 1.234 1.415 1.8 2.137a35.573 35.573 0 0 1 1.61 2.224c.565.848 1.07 1.694 1.51 2.523.447.838.825 1.66 1.128 2.453.313.82.55 1.607.702 2.35.15.735.22 1.427.206 2.06-.015.7-.132 1.328-.348 1.876a3.747 3.747 0 0 1-.86 1.313 3.85 3.85 0 0 1-1.342.845c-.557.213-1.2.327-1.91.343a9.8 9.8 0 0 1-2.103-.2 15.86 15.86 0 0 1-2.396-.69 23.013 23.013 0 0 1-2.5-1.105c-.846-.43-1.708-.928-2.574-1.482a36.675 36.675 0 0 1-2.267-1.58 40.73 40.73 0 0 1-2.178-1.765 43.176 43.176 0 0 1-4.316-4.32 37.045 37.045 0 0 1-3.033-4.01c-1.062-1.634-1.9-3.248-2.47-4.754-.56-1.482-.86-2.856-.878-4.046-.015-.913.136-1.717.446-2.384a3.76 3.76 0 0 1 .748-1.074c.013-.01.025-.024.037-.036zm4.572 7.165c-.177.176-.32.385-.43.625-.163.364-.242.798-.234 1.29.01.587.14 1.254.387 1.97.284.826.718 1.717 1.282 2.625.458.74 1 1.487 1.608 2.217a23.535 23.535 0 0 0 1.552 1.683c.365.36.74.71 1.126 1.043a21.44 21.44 0 0 0 2.386 1.803c.987.64 1.968 1.142 2.88 1.482.928.344 1.784.517 2.51.505a3.18 3.18 0 0 0 1.06-.185 2.08 2.08 0 0 0 1.23-1.183 2.96 2.96 0 0 0 .205-1.045c.02-.71-.152-1.546-.498-2.454-.34-.89-.847-1.852-1.494-2.82a21.118 21.118 0 0 0-1.828-2.34 23.838 23.838 0 0 0-2.798-2.654 20.2 20.2 0 0 0-2.334-1.627 13.82 13.82 0 0 0-2.493-1.184c-.76-.262-1.467-.407-2.087-.423-.52-.015-.976.06-1.357.223a2.12 2.12 0 0 0-.63.406l-.043.043z"/><g><path fill="#FFF" d="M1618.455 220.314c.59.197 1.183.377 1.78.548.592.168 1.188.324 1.785.47 1.042.25 2.09.47 3.15.645.752.125 1.51.23 2.268.308.616.063 1.234.11 1.852.134.433.016.866.022 1.298.017.274-.003.548-.012.822-.027.6-.03 1.2-.087 1.794-.19 1.04-.18 2.065-.5 2.977-1.03a6.72 6.72 0 0 0 1.4-1.083c.352-.358.66-.756.925-1.18.438-.702.754-1.47.98-2.26.378-1.323.51-2.705.513-4.076v-3.88a17.796 17.796 0 0 1-3.795 2.343c-.998.453-2.04.81-3.11 1.068-1.59.382-3.23.536-4.864.488a17.52 17.52 0 0 1-2.578-.255 14.357 14.357 0 0 1-2.966-.844 12.463 12.463 0 0 1-2.093-1.094c-.693-.45-1.338-.97-1.92-1.552a12.296 12.296 0 0 1-2.022-2.665 13.892 13.892 0 0 1-1.34-3.34 14.454 14.454 0 0 1-.296-1.437c-.064-.422-.11-.847-.125-1.273v-17.34c.016-.456.066-.91.138-1.36.085-.534.2-1.063.346-1.584a13.683 13.683 0 0 1 1.58-3.613 12.146 12.146 0 0 1 2.458-2.833c.712-.6 1.498-1.114 2.332-1.537 1.305-.66 2.722-1.088 4.168-1.32a17.45 17.45 0 0 1 1.753-.186c.284-.017.568-.026.853-.03a19.525 19.525 0 0 1 1.31.025c.56.03 1.122.083 1.68.164 1.42.206 2.813.583 4.137 1.13a17.55 17.55 0 0 1 2.532 1.294c.634.392 1.243.825 1.823 1.29v-3.538h6.316v41.883c0 .53-.016 1.058-.05 1.586-.1 1.522-.348 3.038-.8 4.5a14.784 14.784 0 0 1-1.756 3.768c-.56.846-1.215 1.63-1.958 2.326-.54.504-1.12.96-1.74 1.366-.477.314-.976.596-1.49.847-1.358.66-2.82 1.096-4.313 1.347-.783.132-1.573.21-2.364.255-1 .055-2 .054-3 .008a34.71 34.71 0 0 1-2.062-.154 42.857 42.857 0 0 1-2.67-.36 49.762 49.762 0 0 1-3.463-.707 53.463 53.463 0 0 1-2.19-.574v-6.49zm225.508-18.802l11.488-30.798h6.727l-21.357 57.252h-6.485l-.21-.076 6.497-17.42-15.07-39.756h6.737l11.673 30.798zm-172.183 10.716a11.137 11.137 0 0 1-2.24-1.228 12.684 12.684 0 0 1-1.695-1.424 13.46 13.46 0 0 1-1.22-1.407c-.325-.43-.623-.88-.896-1.344-.23-.39-.44-.787-.635-1.195-1.013-2.13-1.533-4.458-1.725-6.795-.06-.74-.087-1.48-.088-2.224v-25.896h6.315v25.89c0 .68.03 1.357.095 2.035.054.546.132 1.093.24 1.632.09.44.2.877.33 1.305.407 1.31 1.045 2.578 2.012 3.58.124.13.254.253.39.37.283.252.588.48.916.673a4.29 4.29 0 0 0 .708.34l.006.002.104.028c.044.016.085.032.13.046a8.23 8.23 0 0 0 1.307.264 9.946 9.946 0 0 0 5.793-1.056c.14-.075.278-.156.413-.24a8.106 8.106 0 0 0 1.413-1.16c.522-.53.985-1.114 1.404-1.725.652-.952 1.2-1.97 1.678-3.015a30.687 30.687 0 0 0 1.43-3.81c.19-.624.364-1.254.52-1.89.086-.356.17-.716.24-1.078v-22.192h6.316v41.88h-6.314v-4.657c-.972 1.118-2.085 2.117-3.352 2.907-.24.147-.482.288-.73.42a16.33 16.33 0 0 1-9.126 1.81 15.04 15.04 0 0 1-2.262-.375 10.66 10.66 0 0 1-.55-.152m246.914-7.998a24.48 24.48 0 0 0 1.344.546 27.96 27.96 0 0 0 5.42 1.38c1 .156 2.008.263 3.016.324.92.055 1.842.07 2.76.044.59-.018 1.183-.052 1.77-.108.55-.053 1.098-.124 1.645-.22.42-.072.838-.16 1.253-.27a9.22 9.22 0 0 0 1.004-.318 4.95 4.95 0 0 0 .42-.186c.087-.045.176-.09.253-.148.025-.02.045-.038.07-.06l.09-.086a7.765 7.765 0 0 0 1.242-1.576c.356-.585.633-1.214.826-1.87.14-.49.228-1 .24-1.508.013-.4-.022-.8-.11-1.19a4.322 4.322 0 0 0-.807-1.695 4.552 4.552 0 0 0-.495-.538 8.11 8.11 0 0 0-.695-.574c-.312-.23-.638-.444-.97-.643-.38-.226-.767-.437-1.164-.636a35.975 35.975 0 0 0-3.09-1.358c-1.238-.487-2.495-.936-3.743-1.397l-.527-.197a49.893 49.893 0 0 1-2.157-.86 19.364 19.364 0 0 1-1.456-.687 13.515 13.515 0 0 1-1.576-.987c-1.592-1.163-2.928-2.69-3.764-4.465a10.82 10.82 0 0 1-.378-.926 9.65 9.65 0 0 1-.55-2.887 9.693 9.693 0 0 1 .207-2.336c.25-1.17.712-2.29 1.323-3.32a13.883 13.883 0 0 1 1.758-2.35c.3-.31.627-.6.975-.862 1.126-.852 2.443-1.43 3.797-1.835.24-.07.474-.137.715-.197a24.3 24.3 0 0 1 3.323-.585 40.67 40.67 0 0 1 4.29-.222h.25a67.33 67.33 0 0 1 6.838.395c.76.08 1.523.172 2.28.274v6.258a73.173 73.173 0 0 0-3.88-.466 64.65 64.65 0 0 0-3.292-.224 47.514 47.514 0 0 0-3.268-.027c-.973.028-1.94.09-2.902.213-.607.078-1.213.18-1.807.32-.47.108-.934.24-1.383.416a5.12 5.12 0 0 0-.88.43c-.19.117-.37.25-.513.417-.053.06-.105.123-.158.185-.425.522-.805 1.09-1.057 1.713a4.11 4.11 0 0 0-.302 1.267 3.3 3.3 0 0 0 .08.96c.178.807.642 1.534 1.212 2.132.102.105.207.207.312.305a6.626 6.626 0 0 0 1.046.774 9.2 9.2 0 0 0 1.024.52c.365.165.734.318 1.106.465.428.17.862.334 1.294.496.706.263 1.415.52 2.12.78l.56.208c.724.27 1.446.547 2.16.84.54.218 1.077.446 1.606.686.438.198.877.405 1.306.622a24.23 24.23 0 0 1 1.694.938c1.383.843 2.68 1.853 3.688 3.116a10.49 10.49 0 0 1 2.263 5.905 11.76 11.76 0 0 1-.28 3.303 13.762 13.762 0 0 1-1.583 3.943 14.265 14.265 0 0 1-2.4 3.026c-.143.137-.292.27-.446.396-.304.248-.633.47-.974.666-.43.248-.877.458-1.336.642-.56.22-1.126.404-1.706.558-.677.183-1.365.325-2.056.44a28.89 28.89 0 0 1-2.46.297 35.65 35.65 0 0 1-3.655.096 38.885 38.885 0 0 1-4.033-.312 36.952 36.952 0 0 1-4.16-.78c-.863-.216-1.72-.462-2.562-.746v-6.652zm-206.312 0c.383.17.77.33 1.16.477a27.9 27.9 0 0 0 5.31 1.402c1.002.164 2.012.28 3.025.35.985.068 1.973.09 2.96.065a24.207 24.207 0 0 0 3.43-.317c.426-.072.85-.16 1.268-.266.346-.09.69-.192 1.02-.32.148-.056.293-.117.434-.188.096-.047.192-.1.28-.16.027-.02.046-.04.07-.06l.09-.087a7.88 7.88 0 0 0 1.243-1.576 7.826 7.826 0 0 0 .825-1.87c.144-.49.23-1 .244-1.51.01-.398-.023-.8-.113-1.19a4.35 4.35 0 0 0-1.36-2.286 7.873 7.873 0 0 0-.674-.547c-.332-.243-.68-.466-1.033-.675a18.625 18.625 0 0 0-1.172-.633c-.97-.482-1.97-.903-2.98-1.3-1.24-.486-2.495-.935-3.744-1.396-.175-.065-.35-.13-.526-.197a51.52 51.52 0 0 1-2.158-.86c-.492-.212-.98-.436-1.454-.688a13.153 13.153 0 0 1-1.632-1.03c-1.59-1.174-2.917-2.71-3.74-4.492a10.09 10.09 0 0 1-.374-.93 9.62 9.62 0 0 1-.528-2.897c-.02-.785.06-1.57.23-2.338.26-1.17.73-2.288 1.352-3.317a13.847 13.847 0 0 1 1.308-1.817c.13-.153.263-.304.402-.45.3-.31.628-.6.975-.862 1.127-.85 2.444-1.43 3.798-1.834.237-.07.476-.137.715-.197a24.053 24.053 0 0 1 3.2-.57 39.363 39.363 0 0 1 4.162-.236h.5c2.286.008 4.57.155 6.84.395.762.08 1.522.172 2.28.274v6.257a73.122 73.122 0 0 0-3.882-.466 64.572 64.572 0 0 0-3.29-.222 47.567 47.567 0 0 0-3.27-.027c-.97.03-1.94.092-2.903.215-.607.078-1.212.18-1.808.32-.468.108-.93.242-1.38.416-.297.117-.59.25-.862.42a2.347 2.347 0 0 0-.688.614c-.427.522-.804 1.09-1.057 1.713a4.02 4.02 0 0 0-.302 1.266 3.325 3.325 0 0 0 .076.96c.182.82.654 1.557 1.24 2.16a6.398 6.398 0 0 0 .743.657c.19.143.386.275.59.4a9.43 9.43 0 0 0 1.02.52c.402.18.81.346 1.22.508.475.188.955.368 1.435.546.715.265 1.432.525 2.146.79l.564.21a79.86 79.86 0 0 1 2.022.79c.59.243 1.175.496 1.753.763a30.606 30.606 0 0 1 2.15 1.1c.234.132.466.27.695.41 1.354.842 2.622 1.85 3.604 3.1.35.448.664.925.937 1.424a10.43 10.43 0 0 1 1.274 4.488 11.754 11.754 0 0 1-.313 3.363 13.765 13.765 0 0 1-1.618 3.922 14.258 14.258 0 0 1-1.73 2.305c-.194.21-.395.414-.603.612a7.302 7.302 0 0 1-1.423 1.063c-.43.247-.878.457-1.338.64-.556.222-1.126.405-1.704.56-.677.182-1.365.324-2.058.44-.814.135-1.635.23-2.458.296-1.18.093-2.363.123-3.545.097-1.346-.03-2.69-.13-4.026-.297a37.14 37.14 0 0 1-4.162-.768c-.904-.222-1.8-.48-2.68-.775v-6.657zm188.43 6.44c-.303.102-.605.198-.91.29-1.09.332-2.2.605-3.316.832a43.462 43.462 0 0 1-3.635.575c-1.484.174-2.98.276-4.47.32-.382.01-.762.018-1.14.022a34.01 34.01 0 0 1-.96-.003c-.466-.01-.936-.04-1.406-.085-.957-.096-1.908-.27-2.827-.542a12.937 12.937 0 0 1-3.03-1.318 11.9 11.9 0 0 1-1.818-1.338 12.327 12.327 0 0 1-1.927-2.187 13.805 13.805 0 0 1-1.652-3.287 15.338 15.338 0 0 1-.618-2.348 12.52 12.52 0 0 1-.2-1.77v-16.925l.007-.158c.024-.442.074-.883.144-1.32.072-.474.17-.945.293-1.41.474-1.84 1.287-3.605 2.467-5.116.238-.305.49-.6.758-.88a11.796 11.796 0 0 1 1.715-1.5c.608-.438 1.26-.82 1.937-1.138a14.24 14.24 0 0 1 4.074-1.188c.55-.078 1.1-.126 1.655-.15.287-.014.575-.02.858-.02h.856c.955 0 1.913-.004 2.87 0 .29.003.576.01.864.026.597.03 1.19.09 1.78.183 1.427.226 2.83.65 4.118 1.3a12.17 12.17 0 0 1 2.137 1.374 12.15 12.15 0 0 1 1.663 1.624c.435.517.828 1.068 1.176 1.646a14.38 14.38 0 0 1 1.56 3.717c.142.536.257 1.08.342 1.626.07.46.12.92.132 1.385v10.933h-25.093v5.873c.02.314.067.628.126.938.09.467.216.926.378 1.373.232.642.537 1.26.937 1.82.268.376.58.726.926 1.033.272.237.566.448.878.632.315.188.652.344.997.473.638.24 1.31.383 1.985.462.327.037.656.06.986.07.246.007.49.006.737.005.263-.002.526-.007.792-.012a45.37 45.37 0 0 0 4.78-.354 35.524 35.524 0 0 0 3.402-.604c1.042-.24 2.073-.53 3.08-.896a17.203 17.203 0 0 0 1.425-.59c.053-.025.11-.052.162-.08v6.69zm-92.28 0c-.3.102-.603.198-.907.29-1.09.332-2.2.605-3.316.832a43.396 43.396 0 0 1-3.635.575 51.392 51.392 0 0 1-4.472.32c-.38.01-.76.018-1.138.022-.32.002-.638.003-.957-.003-.47-.01-.94-.04-1.41-.085a15.53 15.53 0 0 1-2.828-.542 13.01 13.01 0 0 1-3.03-1.318 12.057 12.057 0 0 1-3.742-3.525 13.778 13.778 0 0 1-1.655-3.287 15.22 15.22 0 0 1-.617-2.348 12.55 12.55 0 0 1-.2-1.77v-16.925l.007-.158c.023-.442.074-.882.144-1.32.077-.473.174-.945.295-1.41.474-1.84 1.288-3.605 2.467-5.116.238-.305.49-.6.758-.88a11.964 11.964 0 0 1 1.716-1.5c.61-.438 1.26-.82 1.938-1.138a14.23 14.23 0 0 1 4.074-1.188c.548-.078 1.1-.126 1.654-.15.288-.014.575-.02.862-.02h.852c.958 0 1.915-.004 2.873 0 .287.003.575.01.862.026.595.03 1.19.09 1.776.183 1.43.226 2.833.65 4.123 1.3a12.155 12.155 0 0 1 3.738 2.923c.46.538.874 1.115 1.238 1.72a14.314 14.314 0 0 1 1.526 3.593c.15.545.27 1.1.36 1.658.077.49.132.983.15 1.48v10.932h-25.096v5.872c.02.314.066.628.127.938.09.465.215.925.376 1.372.23.642.538 1.26.936 1.82.268.376.58.726.928 1.033.27.237.564.448.875.632.298.174.614.325.94.45a8.37 8.37 0 0 0 2.04.482c.328.037.657.06.986.07.247.007.492.006.738.005.264-.002.527-.007.79-.012a46.842 46.842 0 0 0 1.72-.07 43.054 43.054 0 0 0 3.062-.284 35.635 35.635 0 0 0 3.403-.603c1.04-.24 2.074-.53 3.078-.896a17.13 17.13 0 0 0 1.426-.59c.054-.025.108-.052.162-.08v6.69zm-287.05-38.487c.965-.34 1.95-.626 2.943-.873 1.332-.33 2.68-.587 4.038-.782a49.902 49.902 0 0 1 5.08-.458 56.33 56.33 0 0 1 2.013-.044h.407c.29.003.576.01.864.026.596.03 1.19.09 1.778.184 1.43.226 2.832.65 4.122 1.3a12.11 12.11 0 0 1 3.672 2.85c.45.515.854 1.065 1.212 1.644a14.318 14.318 0 0 1 1.65 3.867c.143.536.257 1.078.34 1.626.07.46.12.922.136 1.386v29.366h-6.316v-1.455c-.26.155-.526.3-.798.43-1.3.644-2.712 1.056-4.15 1.27a17.537 17.537 0 0 1-2.65.19H1533.165a17.778 17.778 0 0 1-2.648-.19c-1.44-.214-2.85-.626-4.15-1.27a12.1 12.1 0 0 1-3.712-2.825 12.69 12.69 0 0 1-1.276-1.717 14.348 14.348 0 0 1-1.65-3.867 15.595 15.595 0 0 1-.34-1.625c-.07-.46-.12-.923-.137-1.387v-1.666c.007-.377.045-.752.1-1.124.074-.494.182-.984.32-1.465.288-1 .708-1.96 1.25-2.853.42-.688.913-1.333 1.47-1.92a12.073 12.073 0 0 1 2.713-2.135c1.27-.736 2.66-1.254 4.092-1.59a19.504 19.504 0 0 1 2.49-.414c.344-.033.687-.065 1.03-.1a2187.888 2187.888 0 0 0 11.63-1.152v-2.383a7.39 7.39 0 0 0-.127-.938 9.167 9.167 0 0 0-.376-1.37 7.49 7.49 0 0 0-.937-1.82 5.996 5.996 0 0 0-.928-1.035 5.786 5.786 0 0 0-.875-.63 6.29 6.29 0 0 0-.94-.452 8.404 8.404 0 0 0-2.042-.483c-.328-.037-.657-.06-.986-.07a20.175 20.175 0 0 0-.738-.004 49.46 49.46 0 0 0-2.716.092c-.955.06-1.907.15-2.855.273-1.143.15-2.28.347-3.402.605-1.043.24-2.076.53-3.08.895a16.354 16.354 0 0 0-1.427.59 4.533 4.533 0 0 0-.26.134l.002-.002-.25-.417v-6.21zm76.212 40.115h-30.96v-6.194h10.166v-29.54h-10.167v-6.195h16.48v5.7c.314-.396.64-.783.982-1.157 1.173-1.286 2.532-2.433 4.102-3.227.792-.4 1.626-.716 2.48-.963 1.098-.32 2.228-.527 3.367-.654.465-.053.93-.092 1.397-.12a28.64 28.64 0 0 1 1.917-.047 36.632 36.632 0 0 1 4.556.32v6.268c-.055-.01-.11-.018-.166-.027a28.44 28.44 0 0 0-2.016-.248 29.335 29.335 0 0 0-2.296-.115c-.658-.006-1.317.01-1.974.06-.596.045-1.19.115-1.778.223-.46.083-.916.19-1.362.326a7.922 7.922 0 0 0-1.154.448c-.49.24-.937.552-1.352.902-.435.368-.834.776-1.208 1.203a19.32 19.32 0 0 0-1.717 2.32c-.6.937-1.136 1.91-1.63 2.902a42.305 42.305 0 0 0-1.897 4.43c-.086.235-.17.47-.25.708v16.483h14.48v6.192zm-62.725-5.783h.946c.223-.002.444-.01.667-.022 1.005-.06 2.013-.25 2.937-.652a5.733 5.733 0 0 0 1.714-1.134c.838-.802 1.41-1.84 1.766-2.928a9.335 9.335 0 0 0 .328-1.313c.04-.24.074-.483.09-.726l.002-.03v-8.074a2643.91 2643.91 0 0 1-6.88.687l-3.254.318c-.622.062-1.245.12-1.866.182l-.276.03c-.26.033-.518.07-.775.116a13.318 13.318 0 0 0-.988.22c-1.053.287-2.076.744-2.9 1.458a5.22 5.22 0 0 0-1.007 1.164 5.45 5.45 0 0 0-.547 1.13c-.088.252-.16.512-.21.775-.035.17-.06.342-.07.515v1.48c.003.062.008.125.014.188a8.842 8.842 0 0 0 .393 1.844c.075.23.16.46.254.687.344.815.82 1.582 1.457 2.21.164.163.338.314.52.457.484.375 1.03.668 1.605.883.83.31 1.712.46 2.595.515.257.015.514.022.77.022H1535.895zM1640 184.162a15.118 15.118 0 0 0-1.218-2.088c-1.124-1.624-2.56-3.066-4.293-4.062a10.78 10.78 0 0 0-2.494-1.05c-.58-.16-1.172-.275-1.77-.344a12.724 12.724 0 0 0-2.098-.062c-.18.01-.362.02-.542.04-1.162.11-2.326.4-3.328 1.003a5.57 5.57 0 0 0-1.215.976c-.592.63-1.03 1.387-1.337 2.187a8.186 8.186 0 0 0-.5 2.118l-.002.04v17.105c.017.27.058.535.11.8.08.415.193.826.337 1.225a6.84 6.84 0 0 0 1.152 2.062 5.597 5.597 0 0 0 1.74 1.412c1.014.537 2.166.783 3.31.866a13.22 13.22 0 0 0 1.917-.002 11.023 11.023 0 0 0 3.642-.89c.323-.144.64-.3.948-.472 1.79-.997 3.27-2.47 4.42-4.135.35-.502.668-1.025.955-1.564.09-.172.18-.346.263-.522v-14.642zm250.123-7.622H1887.65c-.1 0-.1 0-.197.003-.246.006-.49.018-.737.04-.938.077-1.87.272-2.723.655-.305.136-.6.297-.877.48-.29.196-.565.418-.817.663-.822.8-1.384 1.824-1.734 2.897a8.722 8.722 0 0 0-.325 1.313c-.043.24-.074.482-.09.725l-.004.03v4.62h18.778v-4.62a7.74 7.74 0 0 0-.08-.697 10.21 10.21 0 0 0-.232-1.02c-.336-1.186-.916-2.332-1.803-3.213a6.106 6.106 0 0 0-.523-.456 6.12 6.12 0 0 0-1.207-.722c-.966-.433-2.028-.626-3.084-.68a13.98 13.98 0 0 0-.678-.02h-1.195zm-92.278 0H1795.37c-.097 0-.097 0-.195.003-.246.006-.492.018-.738.04-.934.077-1.867.272-2.722.655a5.87 5.87 0 0 0-1.66 1.11c-.84.803-1.41 1.84-1.768 2.93a9.976 9.976 0 0 0-.15.502c-.07.268-.13.538-.177.81a7.72 7.72 0 0 0-.09.725l-.003.03v4.62h18.78v-4.62a6.797 6.797 0 0 0-.085-.697 9.193 9.193 0 0 0-.23-1.02c-.336-1.186-.914-2.332-1.804-3.213a5.944 5.944 0 0 0-.52-.456 6.048 6.048 0 0 0-1.21-.722c-.966-.433-2.028-.626-3.083-.68a13.988 13.988 0 0 0-.68-.02h-1.19z"/></g></g></g></svg>