<svg xmlns="http://www.w3.org/2000/svg" width="205.348" height="205.348" viewBox="0 0 205.348 205.348"><path d="M102.85 47.918a54.563 54.563 0 0 1 8.63.71 54.242 54.242 0 0 1 13.475 4.042 54.74 54.74 0 0 1 15.214 10.2 54.868 54.868 0 0 1 11.138 14.91c2.328 4.574 4 9.475 4.948 14.518a54.974 54.974 0 0 1 .416 17.773 54.287 54.287 0 0 1-1.777 8.104 53.8 53.8 0 0 1-3.075 7.907 54.707 54.707 0 0 1-11.415 15.72 54.896 54.896 0 0 1-7.938 6.313 54.156 54.156 0 0 1-19.478 7.89 54.81 54.81 0 0 1-10.317.975c-3.46 0-6.92-.324-10.318-.976a54.148 54.148 0 0 1-19.478-7.89 54.94 54.94 0 0 1-14.38-13.707 54.602 54.602 0 0 1-4.974-8.324 54.142 54.142 0 0 1-4.85-16.01 54.974 54.974 0 0 1 .415-17.772 54.234 54.234 0 0 1 4.95-14.518 54.864 54.864 0 0 1 11.138-14.91 54.747 54.747 0 0 1 15.214-10.2 54.247 54.247 0 0 1 19.128-4.662c.99-.057 1.983-.085 2.976-.09h.355zm-.276 24.204c-1.678.01-3.354.147-5.008.426a29.97 29.97 0 0 0-7.264 2.204 30.41 30.41 0 0 0-7.594 4.883 30.656 30.656 0 0 0-6.534 8.066 30.053 30.053 0 0 0-3.823 14.546 30.85 30.85 0 0 0 .296 4.464 30.03 30.03 0 0 0 2.564 8.61 30.61 30.61 0 0 0 6.422 8.948 30.513 30.513 0 0 0 9.344 6.165 30.068 30.068 0 0 0 11.6 2.34 30.8 30.8 0 0 0 5.67-.51 29.984 29.984 0 0 0 5.954-1.757 30.427 30.427 0 0 0 9.384-6.113 30.558 30.558 0 0 0 6.475-8.908 30.003 30.003 0 0 0 2.616-8.586 30.7 30.7 0 0 0 .322-4.452c0-2.276-.25-4.55-.754-6.768a30.11 30.11 0 0 0-3.16-8.14 30.656 30.656 0 0 0-6.033-7.537 30.494 30.494 0 0 0-7.753-5.136 29.98 29.98 0 0 0-7.422-2.303c-1.62-.28-3.26-.423-4.902-.44-.135-.002-.268-.002-.4-.002zM18.79 68.048a10.523 10.523 0 0 1 2.965.447c1.592.476 3.152 1.336 4.626 2.55 1.924 1.585 3.697 3.77 5.227 6.434 1.554 2.705 2.854 5.897 3.825 9.404.8 2.885 1.374 5.977 1.7 9.16a63.46 63.46 0 0 1 .143 11.21c-.13 1.73-.336 3.44-.61 5.113-.28 1.71-.634 3.38-1.056 4.987a46.427 46.427 0 0 1-1.71 5.25 36.902 36.902 0 0 1-2.212 4.666 27.285 27.285 0 0 1-2.727 3.984c-.963 1.158-1.986 2.154-3.05 2.966-1.17.896-2.392 1.57-3.638 2.01a10.66 10.66 0 0 1-3.544.615c-1.188 0-2.376-.205-3.543-.616-1.246-.44-2.467-1.114-3.638-2.01-1.064-.812-2.087-1.808-3.052-2.966a27.307 27.307 0 0 1-2.726-3.984 36.9 36.9 0 0 1-2.214-4.665 46.204 46.204 0 0 1-1.708-5.25 54.126 54.126 0 0 1-1.056-4.988 59.866 59.866 0 0 1-.61-5.113 63.3 63.3 0 0 1 .143-11.21c.326-3.182.9-6.275 1.7-9.16.97-3.507 2.27-6.7 3.826-9.405 1.53-2.665 3.303-4.85 5.226-6.436 1.474-1.215 3.033-2.073 4.628-2.55a10.478 10.478 0 0 1 2.965-.446h.12zm-3.638 15.27a5.906 5.906 0 0 0-1.72.268c-.86.265-1.7.734-2.495 1.39-.947.78-1.828 1.824-2.608 3.08-.9 1.447-1.663 3.173-2.246 5.09a30.027 30.027 0 0 0-1.047 4.973 34.68 34.68 0 0 0-.266 4.2c-.002.942.03 1.883.102 2.816.143 1.878.44 3.715.88 5.43.54 2.108 1.294 4.028 2.206 5.645.928 1.646 2.02 2.974 3.21 3.892a7.427 7.427 0 0 0 2.008 1.12c.65.233 1.313.35 1.975.355a5.92 5.92 0 0 0 1.95-.32c.7-.24 1.385-.612 2.043-1.11 1.193-.905 2.29-2.22 3.224-3.856.917-1.606 1.677-3.516 2.224-5.618.446-1.71.75-3.54.9-5.417a35.313 35.313 0 0 0-.15-7.077 29.965 29.965 0 0 0-1.084-5.133c-.548-1.775-1.252-3.385-2.074-4.757-.79-1.32-1.69-2.418-2.662-3.24-.81-.684-1.67-1.174-2.55-1.452a5.974 5.974 0 0 0-1.683-.278h-.135zM186.56 137.3c-.342-.003-.683-.022-1.023-.057-.65-.068-1.3-.2-1.942-.39-1.596-.477-3.154-1.337-4.63-2.55-1.92-1.586-3.694-3.772-5.223-6.436-1.555-2.705-2.856-5.898-3.827-9.404-.798-2.885-1.373-5.978-1.7-9.16a63.417 63.417 0 0 1-.143-11.21c.132-1.73.336-3.44.61-5.113.282-1.71.635-3.38 1.057-4.987.482-1.84 1.054-3.6 1.707-5.252a37.084 37.084 0 0 1 2.212-4.664 27.484 27.484 0 0 1 2.726-3.983c.965-1.158 1.987-2.154 3.052-2.966 1.17-.896 2.39-1.57 3.637-2.01 1.168-.41 2.355-.615 3.544-.615s2.375.205 3.543.616c1.246.438 2.467 1.112 3.637 2.01 1.065.81 2.087 1.807 3.052 2.965a27.33 27.33 0 0 1 2.727 3.983 37.007 37.007 0 0 1 2.212 4.665 46.626 46.626 0 0 1 1.708 5.253 54.425 54.425 0 0 1 1.056 4.987 59.78 59.78 0 0 1 .61 5.113 63.417 63.417 0 0 1-.143 11.21c-.327 3.18-.9 6.274-1.7 9.16-.97 3.506-2.272 6.7-3.826 9.404-1.53 2.664-3.302 4.85-5.225 6.435-1.474 1.215-3.034 2.074-4.63 2.55-.64.192-1.29.323-1.94.39-.34.036-.68.055-1.023.058h-.12zm3.637-15.27a5.986 5.986 0 0 0 1.718-.268c.86-.266 1.7-.735 2.496-1.39.948-.782 1.83-1.826 2.61-3.08.898-1.448 1.66-3.175 2.245-5.09a30.135 30.135 0 0 0 1.046-4.974 35.315 35.315 0 0 0 .165-7.018 31.67 31.67 0 0 0-.88-5.43c-.54-2.106-1.293-4.028-2.205-5.644-.927-1.644-2.02-2.974-3.21-3.89a7.434 7.434 0 0 0-2.01-1.12 5.947 5.947 0 0 0-1.973-.355 5.895 5.895 0 0 0-1.947.32c-.702.24-1.387.612-2.046 1.11-1.192.905-2.29 2.22-3.223 3.855-.916 1.608-1.676 3.52-2.223 5.62a31.52 31.52 0 0 0-.9 5.416c-.074.93-.11 1.87-.11 2.81 0 1.435.086 2.87.26 4.27.223 1.795.59 3.53 1.084 5.134.55 1.774 1.253 3.385 2.073 4.756.792 1.32 1.693 2.418 2.665 3.238.81.686 1.67 1.174 2.55 1.453a5.984 5.984 0 0 0 1.82.28zM137.296 18.79a10.518 10.518 0 0 1-.446 2.964c-.477 1.595-1.336 3.154-2.55 4.628-1.586 1.923-3.77 3.696-6.435 5.226-2.706 1.554-5.9 2.855-9.406 3.826a55.87 55.87 0 0 1-9.16 1.7c-3.688.38-7.493.427-11.21.142a59.25 59.25 0 0 1-5.113-.61 54.65 54.65 0 0 1-4.988-1.055 46.7 46.7 0 0 1-5.252-1.708 36.898 36.898 0 0 1-4.664-2.212 27.24 27.24 0 0 1-3.983-2.727c-1.158-.965-2.154-1.987-2.967-3.052-.895-1.17-1.57-2.39-2.008-3.637-.41-1.167-.616-2.355-.616-3.544s.204-2.377.615-3.545c.438-1.246 1.113-2.467 2.008-3.638.813-1.064 1.81-2.086 2.968-3.052a27.334 27.334 0 0 1 3.984-2.726 36.98 36.98 0 0 1 4.664-2.214 46.506 46.506 0 0 1 5.25-1.707A54.685 54.685 0 0 1 92.98.79a60.003 60.003 0 0 1 5.112-.61 63.294 63.294 0 0 1 11.21.142c3.18.328 6.274.902 9.16 1.7 3.506.97 6.698 2.272 9.405 3.827 2.663 1.53 4.85 3.303 6.435 5.227 1.214 1.473 2.073 3.033 2.55 4.628a10.636 10.636 0 0 1 .446 3.085zm-15.268-3.638a5.962 5.962 0 0 0-.27-1.72c-.266-.86-.733-1.7-1.39-2.495-.78-.946-1.824-1.828-3.08-2.608-1.446-.9-3.173-1.662-5.088-2.246a30.16 30.16 0 0 0-4.975-1.047 34.963 34.963 0 0 0-4.2-.266c-.942-.003-1.884.03-2.816.103-1.88.142-3.716.44-5.432.88-2.107.54-4.028 1.293-5.645 2.206-1.645.926-2.973 2.02-3.89 3.208a7.4 7.4 0 0 0-1.12 2.01 5.924 5.924 0 0 0-.355 1.974 5.922 5.922 0 0 0 .32 1.947c.24.7.61 1.386 1.11 2.044.904 1.193 2.22 2.29 3.855 3.224 1.608.917 3.518 1.677 5.62 2.224 1.71.445 3.542.75 5.416.9a35.326 35.326 0 0 0 7.076-.15c1.798-.223 3.532-.59 5.134-1.084 1.775-.55 3.385-1.252 4.757-2.073 1.32-.79 2.42-1.692 3.238-2.664.686-.81 1.174-1.67 1.453-2.547a5.97 5.97 0 0 0 .278-1.684c.002-.046.002-.092.002-.138zM68.046 186.558a10.477 10.477 0 0 1 .447-2.964c.476-1.595 1.335-3.154 2.55-4.628 1.585-1.924 3.77-3.695 6.435-5.227 2.706-1.555 5.898-2.855 9.405-3.827a55.846 55.846 0 0 1 9.16-1.7c3.688-.378 7.492-.426 11.21-.142 1.73.133 3.44.337 5.113.613 1.71.28 3.378.632 4.987 1.055a46.398 46.398 0 0 1 5.252 1.708 36.91 36.91 0 0 1 4.664 2.213 27.26 27.26 0 0 1 3.982 2.725c1.16.965 2.154 1.987 2.967 3.052.895 1.17 1.57 2.392 2.008 3.638.41 1.167.615 2.355.615 3.543s-.205 2.377-.615 3.544c-.44 1.247-1.113 2.467-2.01 3.638-.812 1.065-1.807 2.087-2.966 3.052a27.203 27.203 0 0 1-3.983 2.727 36.87 36.87 0 0 1-4.665 2.212 47 47 0 0 1-5.252 1.71 54.43 54.43 0 0 1-4.987 1.054c-1.673.275-3.384.48-5.112.61-3.72.284-7.523.237-11.212-.142a55.954 55.954 0 0 1-9.16-1.7c-3.506-.97-6.697-2.27-9.404-3.826-2.663-1.53-4.85-3.302-6.434-5.226-1.215-1.474-2.075-3.033-2.55-4.628a10.68 10.68 0 0 1-.448-2.964v-.122zm15.268 3.637a5.98 5.98 0 0 0 .27 1.72c.267.86.734 1.7 1.39 2.496.78.947 1.824 1.83 3.08 2.61 1.447.897 3.174 1.66 5.09 2.243 1.556.474 3.234.828 4.973 1.047 1.377.173 2.788.262 4.2.267a35.66 35.66 0 0 0 2.817-.102 31.8 31.8 0 0 0 5.43-.88c2.107-.54 4.028-1.294 5.646-2.206 1.643-.928 2.973-2.02 3.89-3.21a7.383 7.383 0 0 0 1.12-2.01 5.95 5.95 0 0 0 .354-1.974 5.904 5.904 0 0 0-.32-1.95 7.28 7.28 0 0 0-1.11-2.044c-.905-1.192-2.22-2.29-3.854-3.222-1.607-.918-3.52-1.677-5.62-2.224a31.64 31.64 0 0 0-5.417-.9 35.332 35.332 0 0 0-7.077.15 29.87 29.87 0 0 0-5.133 1.085c-1.774.55-3.386 1.252-4.757 2.073-1.32.79-2.418 1.692-3.238 2.664-.686.81-1.175 1.67-1.454 2.548a5.952 5.952 0 0 0-.277 1.684c-.003.044-.003.09-.003.135zM56.974 19.375a5.33 5.33 0 0 1 1.058 1.553c.44.964.653 2.125.633 3.443-.027 1.722-.452 3.708-1.246 5.85-.81 2.176-1.996 4.51-3.5 6.87a53.407 53.407 0 0 1-4.3 5.797 61.84 61.84 0 0 1-6.12 6.244 57.907 57.907 0 0 1-3.086 2.55 51.51 51.51 0 0 1-3.214 2.285 42.78 42.78 0 0 1-3.648 2.142 32.158 32.158 0 0 1-3.546 1.596c-1.184.445-2.323.78-3.396.996-1.064.212-2.063.312-2.98.29-1.01-.02-1.918-.187-2.71-.494a5.473 5.473 0 0 1-1.9-1.22 5.44 5.44 0 0 1-1.22-1.9c-.307-.792-.473-1.702-.495-2.71-.02-.917.078-1.917.292-2.98.216-1.075.55-2.213.995-3.397.43-1.146.966-2.335 1.597-3.548a43.2 43.2 0 0 1 2.14-3.646 52.296 52.296 0 0 1 2.285-3.215 58.102 58.102 0 0 1 2.55-3.086 61.614 61.614 0 0 1 6.243-6.117 53.498 53.498 0 0 1 5.797-4.3c2.362-1.505 4.694-2.693 6.87-3.5 2.142-.795 4.128-1.22 5.85-1.246 1.318-.02 2.478.193 3.444.633.387.176.744.39 1.07.64.168.13.328.27.48.42l.054.052zm-10.355 6.48a3.06 3.06 0 0 0-.907-.61c-.525-.23-1.153-.342-1.865-.33-.846.013-1.81.2-2.846.55-1.193.4-2.48 1.017-3.794 1.815a28.48 28.48 0 0 0-3.203 2.28 34.164 34.164 0 0 0-3.94 3.796 30.568 30.568 0 0 0-2.607 3.382c-.924 1.4-1.65 2.79-2.14 4.084-.498 1.315-.75 2.528-.73 3.557.01.56.098 1.063.265 1.503.158.414.386.77.676 1.064.284.29.63.518 1.033.68.44.177.947.275 1.512.29 1.024.027 2.233-.215 3.545-.707 1.29-.48 2.678-1.2 4.077-2.118a30.427 30.427 0 0 0 3.382-2.59 34.59 34.59 0 0 0 3.835-3.967 28.413 28.413 0 0 0 2.352-3.31c.737-1.217 1.315-2.415 1.71-3.532.38-1.078.588-2.08.612-2.96.02-.733-.09-1.382-.323-1.923a3.055 3.055 0 0 0-.59-.894l-.058-.06zM185.743 56.745a5.33 5.33 0 0 1-1.55 1.06c-.966.44-2.126.652-3.446.632-1.72-.026-3.707-.452-5.847-1.246-2.177-.806-4.51-1.994-6.87-3.498a53.803 53.803 0 0 1-5.798-4.3 61.932 61.932 0 0 1-6.244-6.118 57.738 57.738 0 0 1-2.55-3.088 51.437 51.437 0 0 1-2.283-3.215 42.672 42.672 0 0 1-2.143-3.645 32.544 32.544 0 0 1-1.597-3.545 22.153 22.153 0 0 1-.995-3.397c-.214-1.064-.312-2.062-.292-2.98.023-1.01.188-1.918.495-2.71.288-.74.698-1.376 1.222-1.9s1.16-.934 1.9-1.22c.79-.307 1.7-.473 2.71-.495.916-.02 1.915.077 2.978.29a22.07 22.07 0 0 1 3.396.997c1.145.43 2.333.965 3.546 1.596 1.2.625 2.42 1.343 3.648 2.144 1.073.7 2.148 1.465 3.213 2.284a57.1 57.1 0 0 1 3.087 2.55 61.71 61.71 0 0 1 6.118 6.243 53.557 53.557 0 0 1 4.3 5.8c1.506 2.36 2.692 4.692 3.5 6.868.794 2.142 1.22 4.128 1.246 5.848.02 1.32-.192 2.48-.632 3.445a5.4 5.4 0 0 1-1.058 1.552c-.02.017-.037.036-.055.053zm-6.48-10.354c.25-.255.457-.557.61-.904.23-.526.343-1.154.33-1.866-.012-.847-.2-1.81-.547-2.846-.403-1.194-1.018-2.48-1.817-3.793a28.702 28.702 0 0 0-2.282-3.204 33.973 33.973 0 0 0-2.2-2.432 34.266 34.266 0 0 0-1.596-1.508 30.363 30.363 0 0 0-3.382-2.606c-1.4-.923-2.79-1.65-4.083-2.14-1.315-.498-2.528-.75-3.558-.732-.56.01-1.064.1-1.503.267-.415.158-.77.384-1.064.675-.29.285-.52.63-.682 1.034-.176.44-.272.948-.288 1.513-.027 1.024.215 2.232.705 3.544.483 1.29 1.2 2.68 2.12 4.078a30.49 30.49 0 0 0 2.59 3.383 34.035 34.035 0 0 0 3.967 3.836 28.52 28.52 0 0 0 3.308 2.353c1.22.736 2.418 1.314 3.535 1.707 1.076.38 2.078.59 2.958.614.735.02 1.382-.088 1.924-.322a3.01 3.01 0 0 0 .892-.588c.022-.018.04-.04.06-.06zM148.368 185.518c-.148-.152-.29-.312-.42-.482a5.448 5.448 0 0 1-.638-1.07c-.44-.965-.654-2.125-.633-3.444.027-1.72.45-3.707 1.246-5.848.807-2.177 1.994-4.51 3.5-6.87a53.522 53.522 0 0 1 4.3-5.8 61.67 61.67 0 0 1 6.118-6.24 56.627 56.627 0 0 1 3.087-2.55 50.913 50.913 0 0 1 3.214-2.284 42.862 42.862 0 0 1 3.65-2.144 32.48 32.48 0 0 1 3.545-1.597 22.15 22.15 0 0 1 3.396-.996c1.065-.214 2.064-.312 2.98-.292 1.01.023 1.92.19 2.71.496a5.45 5.45 0 0 1 1.9 1.22c.524.524.935 1.16 1.222 1.9.307.79.472 1.7.495 2.71.02.916-.08 1.916-.292 2.98a22.223 22.223 0 0 1-.995 3.396 32.635 32.635 0 0 1-1.597 3.546 43.4 43.4 0 0 1-2.142 3.647 51.575 51.575 0 0 1-2.285 3.215 58.04 58.04 0 0 1-2.548 3.087 61.845 61.845 0 0 1-6.245 6.117 53.39 53.39 0 0 1-5.796 4.3c-2.362 1.504-4.694 2.69-6.87 3.498-2.14.794-4.128 1.22-5.85 1.246-1.317.023-2.478-.19-3.443-.63a5.342 5.342 0 0 1-1.552-1.058l-.053-.054zm10.354-6.48c.257.25.558.456.906.61.525.23 1.154.342 1.865.33.848-.012 1.81-.2 2.847-.548 1.192-.402 2.48-1.018 3.793-1.816a28.878 28.878 0 0 0 3.204-2.282 33.54 33.54 0 0 0 2.433-2.2c.52-.517 1.024-1.05 1.507-1.596.972-1.1 1.853-2.24 2.606-3.382.924-1.4 1.65-2.79 2.14-4.083.498-1.313.75-2.527.73-3.556-.01-.56-.098-1.064-.266-1.503a3.04 3.04 0 0 0-.673-1.063 3.016 3.016 0 0 0-1.035-.68 4.325 4.325 0 0 0-1.513-.29c-1.023-.027-2.233.215-3.545.705-1.29.482-2.678 1.2-4.076 2.12a30.282 30.282 0 0 0-3.383 2.59 34.63 34.63 0 0 0-3.836 3.966 28.558 28.558 0 0 0-2.352 3.308c-.738 1.22-1.316 2.418-1.71 3.534-.38 1.077-.588 2.08-.612 2.96-.02.733.088 1.382.32 1.922.15.343.348.64.59.894.02.02.04.042.06.06zM19.598 148.147a5.322 5.322 0 0 1 1.552-1.06c.965-.438 2.125-.65 3.444-.63 1.72.026 3.707.45 5.848 1.245 2.177.807 4.51 1.995 6.87 3.5a53.56 53.56 0 0 1 5.798 4.3 61.776 61.776 0 0 1 6.243 6.118 57.968 57.968 0 0 1 2.55 3.087 51.428 51.428 0 0 1 2.284 3.215c.8 1.226 1.52 2.448 2.143 3.646.63 1.213 1.166 2.4 1.597 3.547.445 1.185.78 2.323.995 3.396.214 1.065.312 2.064.292 2.98-.022 1.01-.188 1.92-.495 2.71a5.45 5.45 0 0 1-1.222 1.9 5.43 5.43 0 0 1-1.9 1.22c-.79.308-1.7.474-2.71.496-.916.02-1.915-.078-2.98-.292a22.105 22.105 0 0 1-3.395-.995 32.488 32.488 0 0 1-3.547-1.597 43.022 43.022 0 0 1-3.647-2.143 51.964 51.964 0 0 1-3.215-2.284 57.917 57.917 0 0 1-3.087-2.55 61.828 61.828 0 0 1-6.118-6.243 53.474 53.474 0 0 1-4.3-5.798c-1.506-2.36-2.692-4.693-3.5-6.87-.794-2.14-1.22-4.127-1.246-5.848-.02-1.32.193-2.48.632-3.444a5.322 5.322 0 0 1 1.06-1.552l.052-.054zm6.48 10.354a3.04 3.04 0 0 0-.61.906c-.23.526-.342 1.155-.33 1.866.012.848.2 1.81.548 2.847.402 1.192 1.018 2.48 1.817 3.793a28.653 28.653 0 0 0 2.28 3.203 34.96 34.96 0 0 0 3.795 3.94c1.1.973 2.243 1.855 3.383 2.606 1.4.924 2.79 1.652 4.084 2.14 1.315.5 2.53.75 3.558.73.56-.01 1.064-.1 1.503-.266.414-.157.77-.383 1.064-.675.288-.284.518-.63.68-1.033a4.33 4.33 0 0 0 .29-1.51c.026-1.025-.216-2.234-.707-3.547-.48-1.29-1.2-2.677-2.118-4.077a30.262 30.262 0 0 0-2.59-3.382c-.48-.543-.982-1.078-1.5-1.596a33.8 33.8 0 0 0-2.467-2.238 28.583 28.583 0 0 0-3.308-2.353c-1.22-.736-2.417-1.315-3.535-1.71-1.076-.38-2.078-.587-2.958-.61-.734-.02-1.383.087-1.924.32a3.05 3.05 0 0 0-.895.588c-.02.02-.04.042-.06.06z"/></svg>