<?xml version="1.0" encoding="utf-8"?>
<svg version="1.1" xmlns="http://www.w3.org/2000/svg" x="0px" y="0px"
	 width="205.348px" height="205.348px" viewBox="0 0 205.348 205.348" enable-background="new 0 0 205.348 205.348"
	 xml:space="preserve">
<g transform="matrix(0.587317,0,0,0.587317,1970.34,196.07)">
	<g transform="matrix(1.3832,0,0,1.3832,3755.56,-6.85642)">
		<path d="M-5013.923-177.412c1.223,0.006,2.443,0.041,3.664,0.111c2.331,0.133,4.654,0.387,6.959,0.762
			c5.716,0.93,11.305,2.607,16.588,4.977c6.892,3.093,13.246,7.359,18.728,12.556c5.57,5.281,10.232,11.51,13.712,18.353
			c2.865,5.631,4.922,11.664,6.091,17.871c1.358,7.201,1.528,14.622,0.512,21.878c-0.474,3.373-1.205,6.713-2.188,9.975
			c-1.003,3.337-2.27,6.595-3.785,9.732c-1.731,3.587-3.782,7.02-6.121,10.247c-2.366,3.263-5.025,6.312-7.931,9.102
			c-3.008,2.884-6.282,5.49-9.771,7.772c-3.457,2.261-7.121,4.205-10.937,5.792c-4.198,1.747-8.574,3.062-13.04,3.919
			c-4.182,0.802-8.44,1.201-12.699,1.201c-4.259,0-8.518-0.399-12.701-1.201c-4.465-0.857-8.842-2.172-13.039-3.919
			c-3.815-1.587-7.479-3.529-10.937-5.792c-3.488-2.282-6.763-4.888-9.771-7.772c-2.909-2.79-5.566-5.84-7.932-9.102
			c-2.339-3.226-4.391-6.66-6.121-10.247c-1.513-3.139-2.78-6.395-3.784-9.732c-0.983-3.264-1.715-6.602-2.187-9.975
			c-1.017-7.256-0.846-14.678,0.511-21.878c1.17-6.206,3.228-12.24,6.092-17.871c3.48-6.842,8.141-13.072,13.712-18.353
			c5.481-5.197,11.836-9.462,18.728-12.556c5.283-2.371,10.872-4.046,16.587-4.977c2.304-0.373,4.627-0.629,6.959-0.762
			c1.219-0.07,2.441-0.105,3.664-0.111C-5014.212-177.412-5014.068-177.412-5013.923-177.412z M-5014.262-147.617
			c-2.065,0.011-4.128,0.18-6.164,0.524c-3.08,0.521-6.092,1.434-8.942,2.713c-3.392,1.522-6.553,3.558-9.348,6.011
			c-3.219,2.823-5.954,6.193-8.043,9.929c-1.699,3.039-2.968,6.315-3.752,9.707c-0.621,2.687-0.938,5.441-0.954,8.197
			c-0.011,1.837,0.108,3.675,0.363,5.495c0.513,3.665,1.581,7.247,3.157,10.597c1.937,4.112,4.635,7.859,7.905,11.016
			c3.325,3.207,7.24,5.8,11.502,7.589c2.317,0.971,4.734,1.707,7.201,2.189c2.33,0.453,4.703,0.683,7.077,0.69
			c2.34,0.006,4.681-0.2,6.981-0.625c2.509-0.465,4.969-1.193,7.328-2.165c4.276-1.763,8.208-4.332,11.552-7.524
			c3.289-3.135,6.008-6.864,7.97-10.966c1.597-3.336,2.685-6.91,3.222-10.569c0.266-1.815,0.396-3.647,0.396-5.479
			c0-2.801-0.308-5.599-0.928-8.331c-0.801-3.507-2.116-6.89-3.89-10.018c-1.964-3.461-4.482-6.604-7.426-9.28
			c-2.837-2.577-6.063-4.721-9.545-6.321c-2.907-1.337-5.984-2.291-9.136-2.835c-1.994-0.344-4.012-0.521-6.035-0.542
			C-5013.937-147.617-5014.1-147.617-5014.262-147.617z"/>
	</g>
	<g transform="matrix(0.47507,0,0,0.872567,4220.76,155.101)">
		<path d="M-15878.891-427.565c1.224,0.006,2.445,0.04,3.665,0.112c2.331,0.13,4.655,0.385,6.96,0.76
			c5.714,0.93,11.303,2.607,16.586,4.975c6.892,3.095,13.246,7.359,18.729,12.556c5.57,5.28,10.232,11.51,13.712,18.353
			c2.864,5.629,4.923,11.662,6.094,17.871c1.356,7.199,1.525,14.623,0.511,21.876c-0.471,3.377-1.204,6.715-2.188,9.978
			c-1.005,3.335-2.271,6.593-3.785,9.732c-1.73,3.588-3.782,7.022-6.12,10.246c-2.366,3.264-5.024,6.313-7.933,9.103
			c-3.008,2.885-6.282,5.49-9.771,7.773c-3.456,2.26-7.122,4.204-10.936,5.789c-4.198,1.747-8.575,3.062-13.039,3.92
			c-4.185,0.8-8.442,1.201-12.702,1.201c-4.258,0-8.516-0.4-12.697-1.201c-4.467-0.858-8.844-2.172-13.04-3.92
			c-3.814-1.585-7.481-3.529-10.938-5.789c-3.487-2.283-6.764-4.888-9.771-7.773c-2.908-2.79-5.566-5.839-7.931-9.103
			c-2.34-3.224-4.393-6.658-6.121-10.246c-1.515-3.138-2.781-6.397-3.786-9.732c-0.981-3.262-1.713-6.601-2.186-9.978
			c-1.017-7.253-0.847-14.677,0.512-21.876c1.169-6.206,3.227-12.242,6.092-17.871c3.48-6.843,8.141-13.072,13.713-18.353
			c5.48-5.197,11.835-9.461,18.727-12.556c5.283-2.371,10.873-4.046,16.587-4.975c2.305-0.375,4.628-0.631,6.959-0.76
			c1.222-0.072,2.441-0.107,3.667-0.112C-15879.179-427.565-15879.033-427.565-15878.891-427.565z M-15891.926-397.769
			c-2.065,0.01-4.129,0.177-6.164,0.524c-3.08,0.518-6.092,1.433-8.94,2.714c-3.394,1.523-6.554,3.558-9.349,6.01
			c-3.22,2.822-5.955,6.191-8.045,9.928c-1.699,3.037-2.968,6.315-3.752,9.707c-0.621,2.687-0.938,5.44-0.955,8.198
			c-0.011,1.837,0.108,3.674,0.362,5.494c0.513,3.664,1.58,7.249,3.157,10.597c1.937,4.112,4.634,7.859,7.904,11.014
			c3.325,3.209,7.241,5.802,11.501,7.592c2.32,0.972,4.737,1.706,7.201,2.188c2.331,0.453,4.704,0.682,7.079,0.69
			c2.34,0.008,4.682-0.2,6.98-0.625c2.512-0.465,4.969-1.193,7.327-2.165c4.275-1.765,8.21-4.333,11.556-7.523
			c3.286-3.137,6.008-6.864,7.968-10.965c1.596-3.339,2.687-6.91,3.222-10.57c0.266-1.814,0.397-3.645,0.397-5.479
			c0-2.801-0.307-5.601-0.93-8.331c-0.798-3.504-2.114-6.889-3.889-10.016c-1.965-3.464-4.485-6.605-7.431-9.282
			c-2.834-2.578-6.062-4.72-9.544-6.321c-2.905-1.336-5.983-2.292-9.137-2.836c-1.991-0.343-4.011-0.518-6.034-0.541
			C-15891.599-397.769-15891.764-397.769-15891.926-397.769z"/>
	</g>
	<g transform="matrix(-0.47507,2.69153e-16,-4.94356e-16,-0.872567,5274.86,709.613)">
		<path d="M17496.43,927.927c1.223,0.006,2.443,0.042,3.664,0.111c2.332,0.133,4.656,0.389,6.959,0.762
			c5.719,0.93,11.305,2.607,16.59,4.977c6.889,3.093,13.244,7.359,18.725,12.556c5.572,5.278,10.234,11.51,13.713,18.351
			c2.863,5.629,4.922,11.664,6.094,17.871c1.355,7.199,1.529,14.623,0.512,21.878c-0.473,3.375-1.205,6.713-2.188,9.976
			c-1.008,3.337-2.275,6.593-3.787,9.732c-1.729,3.588-3.781,7.022-6.119,10.248c-2.365,3.262-5.025,6.313-7.93,9.103
			c-3.01,2.883-6.287,5.488-9.771,7.771c-3.459,2.26-7.123,4.204-10.939,5.789c-4.195,1.747-8.57,3.064-13.037,3.92
			c-4.186,0.802-8.441,1.202-12.701,1.202s-8.516-0.4-12.701-1.202c-4.467-0.856-8.842-2.17-13.037-3.92
			c-3.816-1.585-7.48-3.529-10.938-5.789c-3.49-2.283-6.764-4.888-9.773-7.771c-2.908-2.79-5.564-5.841-7.93-9.103
			c-2.338-3.226-4.391-6.66-6.123-10.248c-1.512-3.138-2.777-6.395-3.783-9.732c-0.982-3.262-1.715-6.601-2.188-9.976
			c-1.014-7.255-0.846-14.679,0.512-21.878c1.172-6.205,3.23-12.24,6.094-17.871c3.479-6.841,8.141-13.072,13.713-18.351
			c5.48-5.197,11.834-9.463,18.725-12.556c5.285-2.371,10.875-4.047,16.59-4.977c2.303-0.373,4.627-0.629,6.959-0.762
			c1.221-0.069,2.441-0.105,3.664-0.111C17496.143,927.927,17496.287,927.927,17496.43,927.927z M17483.393,957.721
			c-2.064,0.011-4.127,0.183-6.16,0.526c-3.084,0.518-6.094,1.433-8.945,2.714c-3.393,1.523-6.553,3.56-9.35,6.01
			c-3.217,2.824-5.953,6.193-8.047,9.928c-1.693,3.039-2.967,6.315-3.748,9.707c-0.619,2.687-0.938,5.44-0.955,8.198
			c-0.012,1.837,0.107,3.674,0.363,5.496c0.512,3.664,1.582,7.247,3.158,10.595c1.936,4.112,4.633,7.861,7.902,11.016
			c3.324,3.207,7.242,5.802,11.502,7.59c2.316,0.972,4.734,1.703,7.203,2.188c2.33,0.454,4.703,0.682,7.076,0.69
			c2.338,0.008,4.68-0.198,6.979-0.625c2.514-0.465,4.971-1.191,7.33-2.165c4.275-1.765,8.207-4.332,11.553-7.521
			c3.287-3.138,6.01-6.866,7.969-10.967c1.598-3.337,2.689-6.91,3.225-10.568c0.266-1.814,0.395-3.647,0.395-5.48
			c0-2.801-0.307-5.602-0.928-8.331c-0.801-3.504-2.117-6.891-3.887-10.02c-1.969-3.461-4.488-6.605-7.428-9.28
			c-2.836-2.574-6.066-4.718-9.549-6.319c-2.904-1.338-5.984-2.291-9.135-2.836c-1.994-0.343-4.014-0.518-6.033-0.541
			C17483.721,957.721,17483.557,957.721,17483.393,957.721z"/>
	</g>
	<g transform="matrix(1.34576e-16,0.47507,-0.872567,2.47178e-16,5025.06,-94.691)">
		<path d="M-436.054,9335.796c1.222,0.005,2.443,0.04,3.665,0.11c2.331,0.133,4.655,0.385,6.958,0.76
			c5.716,0.931,11.305,2.607,16.587,4.976c6.891,3.095,13.248,7.359,18.729,12.556c5.572,5.281,10.234,11.512,13.713,18.354
			c2.863,5.631,4.921,11.666,6.09,17.872c1.362,7.197,1.533,14.622,0.511,21.875c-0.469,3.376-1.201,6.715-2.184,9.978
			c-1.008,3.337-2.272,6.593-3.784,9.732c-1.733,3.587-3.784,7.02-6.122,10.246c-2.366,3.264-5.023,6.313-7.931,9.102
			c-3.01,2.886-6.283,5.491-9.772,7.772c-3.458,2.262-7.122,4.205-10.938,5.791c-4.197,1.746-8.572,3.062-13.038,3.918
			c-4.182,0.802-8.442,1.202-12.702,1.202s-8.516-0.4-12.702-1.202c-4.466-0.855-8.841-2.171-13.038-3.918
			c-3.815-1.587-7.479-3.529-10.938-5.791c-3.486-2.281-6.762-4.887-9.772-7.772c-2.905-2.788-5.565-5.838-7.931-9.102
			c-2.338-3.227-4.389-6.659-6.118-10.246c-1.512-3.139-2.779-6.396-3.787-9.732c-0.98-3.262-1.715-6.602-2.188-9.978
			c-1.018-7.253-0.847-14.678,0.511-21.875c1.173-6.206,3.231-12.241,6.094-17.872c3.479-6.842,8.141-13.072,13.713-18.354
			c5.481-5.196,11.834-9.461,18.729-12.556c5.281-2.37,10.871-4.045,16.587-4.976c2.303-0.375,4.627-0.627,6.958-0.76
			c1.221-0.07,2.443-0.105,3.665-0.11C-436.344,9335.796-436.197,9335.796-436.054,9335.796z M-449.091,9365.589
			c-2.065,0.01-4.127,0.18-6.164,0.524c-3.08,0.521-6.09,1.433-8.943,2.714c-3.391,1.524-6.552,3.56-9.349,6.01
			c-3.217,2.822-5.954,6.193-8.047,9.929c-1.694,3.037-2.968,6.314-3.752,9.707c-0.616,2.687-0.935,5.44-0.952,8.197
			c-0.014,1.837,0.105,3.675,0.364,5.495c0.511,3.664,1.582,7.248,3.157,10.597c1.935,4.112,4.634,7.859,7.903,11.015
			c3.325,3.209,7.242,5.802,11.501,7.59c2.317,0.972,4.735,1.706,7.203,2.188c2.331,0.455,4.704,0.684,7.077,0.691
			c2.338,0.007,4.68-0.199,6.979-0.625c2.513-0.466,4.97-1.191,7.329-2.166c4.277-1.763,8.208-4.331,11.554-7.521
			c3.286-3.138,6.01-6.866,7.97-10.967c1.596-3.337,2.685-6.911,3.224-10.569c0.266-1.814,0.396-3.646,0.396-5.48
			c0-2.801-0.308-5.6-0.931-8.33c-0.798-3.507-2.114-6.891-3.885-10.018c-1.967-3.463-4.487-6.605-7.431-9.282
			c-2.835-2.576-6.062-4.719-9.545-6.319c-2.905-1.338-5.985-2.29-9.135-2.835c-1.995-0.344-4.015-0.519-6.034-0.542
			C-448.762,9365.589-448.927,9365.589-449.091,9365.589z"/>
	</g>
	<g transform="matrix(-4.03729e-16,-0.47507,0.872567,-7.41534e-16,4470.55,959.405)">
		<path d="M2053.595-8835.432c1.222,0.006,2.443,0.04,3.661,0.111c2.334,0.132,4.655,0.388,6.961,0.761
			c5.716,0.93,11.305,2.606,16.587,4.978c6.895,3.092,13.244,7.357,18.732,12.555c5.572,5.28,10.23,11.51,13.713,18.352
			c2.863,5.631,4.921,11.664,6.09,17.873c1.358,7.198,1.529,14.62,0.511,21.877c-0.472,3.373-1.204,6.711-2.191,9.976
			c-1.001,3.337-2.268,6.592-3.784,9.731c-1.729,3.587-3.78,7.021-6.121,10.249c-2.363,3.26-5.023,6.312-7.931,9.101
			c-3.007,2.885-6.283,5.49-9.769,7.771c-3.458,2.262-7.123,4.203-10.938,5.791c-4.197,1.747-8.575,3.062-13.041,3.92
			c-4.182,0.8-8.438,1.2-12.698,1.2s-8.519-0.4-12.702-1.2c-4.466-0.857-8.841-2.173-13.038-3.92
			c-3.815-1.588-7.479-3.529-10.938-5.791c-3.493-2.281-6.762-4.887-9.772-7.771c-2.912-2.789-5.565-5.841-7.931-9.101
			c-2.338-3.229-4.389-6.662-6.125-10.249c-1.512-3.14-2.779-6.395-3.784-9.731c-0.984-3.265-1.715-6.603-2.188-9.976
			c-1.015-7.257-0.847-14.679,0.511-21.877c1.172-6.208,3.231-12.241,6.094-17.873c3.479-6.842,8.141-13.07,13.713-18.352
			c5.481-5.197,11.833-9.463,18.729-12.555c5.285-2.371,10.871-4.048,16.587-4.978c2.303-0.373,4.627-0.629,6.958-0.761
			c1.221-0.07,2.443-0.105,3.664-0.111C2053.304-8835.432,2053.451-8835.432,2053.595-8835.432z M2040.557-8805.638
			c-2.065,0.011-4.127,0.181-6.164,0.525c-3.08,0.521-6.09,1.434-8.943,2.714c-3.391,1.522-6.552,3.559-9.349,6.009
			c-3.217,2.823-5.954,6.193-8.043,9.93c-1.698,3.039-2.968,6.314-3.752,9.706c-0.62,2.688-0.938,5.441-0.956,8.197
			c-0.01,1.839,0.109,3.678,0.364,5.496c0.515,3.664,1.582,7.248,3.157,10.597c1.936,4.11,4.634,7.858,7.903,11.015
			c3.325,3.207,7.241,5.802,11.505,7.59c2.317,0.972,4.732,1.707,7.2,2.188c2.331,0.453,4.704,0.682,7.077,0.689
			c2.341,0.008,4.679-0.198,6.983-0.625c2.509-0.465,4.97-1.191,7.329-2.165c4.274-1.765,8.204-4.331,11.55-7.521
			c3.29-3.135,6.01-6.866,7.969-10.967c1.596-3.335,2.685-6.91,3.224-10.568c0.266-1.814,0.399-3.647,0.399-5.479
			c0-2.8-0.308-5.601-0.931-8.331c-0.798-3.506-2.114-6.89-3.892-10.017c-1.963-3.462-4.483-6.606-7.427-9.281
			c-2.835-2.577-6.062-4.72-9.545-6.32c-2.905-1.337-5.985-2.292-9.135-2.836c-1.995-0.344-4.015-0.52-6.034-0.542
			C2040.883-8805.638,2040.722-8805.638,2040.557-8805.638z"/>
	</g>
	<g transform="matrix(0.20922,0.20922,-0.481024,0.481024,4606.76,-13.0992)">
		<path d="M-19482.652,7875.715c1.225,0.007,2.447,0.042,3.668,0.113c2.332,0.134,4.652,0.386,6.959,0.762
			c5.713,0.93,11.303,2.605,16.584,4.975c6.893,3.093,13.246,7.36,18.73,12.556c5.57,5.282,10.23,11.51,13.713,18.354
			c2.863,5.63,4.924,11.665,6.09,17.87c1.361,7.2,1.525,14.622,0.514,21.878c-0.475,3.373-1.205,6.712-2.189,9.974
			c-1.002,3.336-2.268,6.594-3.781,9.733c-1.732,3.588-3.783,7.021-6.127,10.246c-2.361,3.264-5.02,6.313-7.932,9.102
			c-3.008,2.884-6.281,5.491-9.766,7.773c-3.463,2.26-7.121,4.204-10.941,5.789c-4.193,1.749-8.57,3.064-13.035,3.921
			c-4.182,0.799-8.443,1.198-12.699,1.2c-4.26,0-8.518-0.398-12.701-1.2c-4.467-0.857-8.846-2.174-13.041-3.92
			c-3.814-1.586-7.479-3.529-10.939-5.792c-3.488-2.283-6.764-4.888-9.768-7.771c-2.908-2.79-5.566-5.84-7.936-9.103
			c-2.336-3.225-4.387-6.658-6.119-10.246c-1.51-3.139-2.779-6.396-3.787-9.732c-0.98-3.262-1.713-6.601-2.186-9.976
			c-1.018-7.255-0.85-14.678,0.512-21.875c1.17-6.208,3.232-12.242,6.094-17.87c3.482-6.844,8.139-13.073,13.713-18.353
			c5.479-5.197,11.836-9.463,18.727-12.557c5.283-2.37,10.871-4.047,16.588-4.979c2.299-0.374,4.627-0.626,6.957-0.761
			c1.221-0.068,2.445-0.103,3.668-0.109C-19482.939,7875.716-19482.795,7875.716-19482.652,7875.715z M-19498.414,7905.51
			c-2.062,0.012-4.127,0.181-6.166,0.525c-3.076,0.522-6.088,1.435-8.941,2.713c-3.389,1.523-6.547,3.56-9.346,6.011
			c-3.221,2.821-5.951,6.193-8.045,9.929c-1.701,3.038-2.971,6.314-3.752,9.706c-0.621,2.687-0.938,5.441-0.955,8.197
			c-0.012,1.837,0.107,3.676,0.365,5.496c0.512,3.663,1.582,7.249,3.154,10.596c1.939,4.113,4.635,7.86,7.908,11.017
			c3.322,3.207,7.238,5.8,11.498,7.587c2.322,0.975,4.738,1.708,7.205,2.19c2.328,0.453,4.703,0.682,7.078,0.688
			c2.338,0.007,4.68-0.2,6.982-0.624c2.506-0.467,4.967-1.192,7.33-2.165c4.271-1.765,8.205-4.333,11.545-7.524
			c3.291-3.135,6.01-6.866,7.971-10.965c1.596-3.338,2.688-6.91,3.227-10.569c0.262-1.815,0.396-3.647,0.393-5.48
			c0-2.8-0.309-5.601-0.93-8.331c-0.795-3.505-2.115-6.889-3.893-10.018c-1.961-3.461-4.479-6.604-7.422-9.279
			c-2.84-2.581-6.064-4.721-9.547-6.32c-2.906-1.336-5.984-2.293-9.139-2.835c-1.992-0.343-4.008-0.518-6.033-0.542
			C-19498.09,7905.511-19498.25,7905.511-19498.414,7905.51z"/>
	</g>
	<g transform="matrix(-0.20922,0.20922,-0.481024,-0.481024,5192.76,290.8)">
		<path d="M18409.557,9104.889c1.225,0.007,2.447,0.041,3.668,0.112c2.324,0.13,4.648,0.384,6.953,0.757
			c5.719,0.932,11.307,2.608,16.592,4.979c6.895,3.092,13.244,7.361,18.723,12.555c5.576,5.28,10.236,11.511,13.719,18.352
			c2.859,5.631,4.914,11.665,6.09,17.873c1.355,7.198,1.527,14.622,0.514,21.876c-0.473,3.375-1.205,6.714-2.189,9.978
			c-1.01,3.335-2.27,6.593-3.791,9.73c-1.725,3.588-3.775,7.021-6.115,10.247c-2.365,3.262-5.023,6.312-7.928,9.1
			c-3.012,2.887-6.287,5.493-9.771,7.772c-3.461,2.263-7.121,4.203-10.939,5.792c-4.197,1.745-8.572,3.061-13.037,3.918
			c-4.186,0.801-8.445,1.201-12.705,1.201s-8.52-0.4-12.695-1.201c-4.463-0.855-8.842-2.173-13.041-3.92
			c-3.816-1.587-7.484-3.527-10.934-5.788c-3.492-2.283-6.766-4.89-9.77-7.772c-2.914-2.791-5.568-5.84-7.936-9.104
			c-2.342-3.227-4.387-6.657-6.125-10.247c-1.514-3.141-2.777-6.396-3.781-9.73c-0.986-3.263-1.717-6.603-2.186-9.976
			c-1.021-7.254-0.848-14.68,0.508-21.878c1.172-6.206,3.227-12.24,6.092-17.873c3.48-6.841,8.146-13.069,13.709-18.352
			c5.488-5.193,11.838-9.463,18.729-12.553c5.285-2.371,10.875-4.05,16.59-4.979c2.305-0.373,4.629-0.627,6.961-0.761
			c1.221-0.07,2.438-0.105,3.66-0.112C18409.268,9104.891,18409.414,9104.889,18409.557,9104.889z M18393.793,9134.684
			c-2.062,0.009-4.129,0.178-6.162,0.523c-3.08,0.521-6.092,1.433-8.941,2.714c-3.395,1.524-6.553,3.559-9.35,6.009
			c-3.219,2.824-5.953,6.191-8.043,9.928c-1.701,3.042-2.969,6.317-3.756,9.709c-0.615,2.688-0.934,5.438-0.949,8.197
			c-0.012,1.837,0.104,3.674,0.361,5.494c0.512,3.666,1.578,7.247,3.158,10.597c1.936,4.111,4.631,7.858,7.904,11.015
			c3.326,3.209,7.236,5.802,11.5,7.591c2.316,0.97,4.732,1.706,7.197,2.187c2.332,0.454,4.703,0.685,7.08,0.688
			c2.34,0.009,4.682-0.197,6.982-0.624c2.508-0.465,4.967-1.192,7.33-2.165c4.277-1.764,8.207-4.33,11.553-7.521
			c3.287-3.137,6.008-6.864,7.967-10.966c1.594-3.338,2.684-6.912,3.223-10.572c0.266-1.813,0.395-3.646,0.398-5.479
			c0-2.8-0.311-5.6-0.93-8.33c-0.799-3.507-2.115-6.89-3.891-10.017c-1.963-3.463-4.486-6.607-7.432-9.28
			c-2.828-2.579-6.061-4.721-9.541-6.321c-2.908-1.338-5.984-2.291-9.139-2.834c-1.992-0.344-4.01-0.521-6.029-0.541
			C18394.119,9134.68,18393.957,9134.682,18393.793,9134.684z"/>
	</g>
	<g transform="matrix(-0.20922,-0.20922,0.481024,-0.481024,4888.85,876.805)">
		<path d="M21235.582-7376.215c1.221,0.005,2.443,0.04,3.668,0.109c2.324,0.133,4.648,0.387,6.953,0.764
			c5.715,0.93,11.307,2.605,16.59,4.976c6.887,3.092,13.246,7.357,18.725,12.555c5.576,5.28,10.236,11.511,13.713,18.354
			c2.865,5.629,4.924,11.661,6.098,17.871c1.357,7.2,1.525,14.622,0.504,21.875c-0.465,3.375-1.197,6.715-2.182,9.974
			c-1.002,3.339-2.27,6.597-3.787,9.732c-1.729,3.59-3.779,7.022-6.119,10.249c-2.365,3.262-5.023,6.312-7.932,9.102
			c-3.012,2.886-6.283,5.491-9.771,7.772c-3.457,2.261-7.121,4.203-10.936,5.79c-4.195,1.746-8.574,3.062-13.043,3.92
			c-4.184,0.8-8.439,1.199-12.699,1.199c-4.256,0.002-8.52-0.397-12.699-1.199c-4.467-0.857-8.842-2.173-13.039-3.918
			c-3.814-1.586-7.477-3.533-10.938-5.792c-3.49-2.281-6.76-4.89-9.773-7.772c-2.904-2.788-5.562-5.838-7.93-9.102
			c-2.332-3.227-4.391-6.659-6.121-10.246c-1.514-3.14-2.777-6.396-3.781-9.734c-0.986-3.263-1.713-6.601-2.191-9.974
			c-1.012-7.257-0.846-14.679,0.514-21.879c1.168-6.205,3.227-12.24,6.092-17.869c3.484-6.843,8.146-13.07,13.713-18.35
			c5.484-5.195,11.838-9.466,18.732-12.558c5.277-2.371,10.867-4.046,16.582-4.976c2.301-0.375,4.625-0.629,6.957-0.763
			c1.225-0.069,2.445-0.105,3.664-0.11C21235.293-7376.217,21235.439-7376.215,21235.582-7376.215z M21219.822-7346.422
			c-2.066,0.011-4.133,0.18-6.166,0.525c-3.08,0.521-6.096,1.435-8.941,2.714c-3.398,1.522-6.549,3.561-9.35,6.009
			c-3.215,2.822-5.957,6.193-8.047,9.929c-1.693,3.039-2.965,6.315-3.752,9.707c-0.619,2.686-0.938,5.441-0.949,8.198
			c-0.012,1.837,0.107,3.672,0.365,5.493c0.514,3.666,1.578,7.247,3.154,10.598c1.936,4.112,4.631,7.859,7.904,11.015
			c3.326,3.206,7.24,5.8,11.504,7.589c2.316,0.973,4.732,1.706,7.201,2.188c2.332,0.455,4.699,0.683,7.072,0.691
			c2.342,0.009,4.686-0.202,6.982-0.627c2.512-0.463,4.971-1.191,7.328-2.164c4.273-1.763,8.209-4.331,11.555-7.521
			c3.285-3.137,6.008-6.865,7.963-10.965c1.602-3.341,2.689-6.912,3.227-10.57c0.264-1.815,0.396-3.65,0.395-5.484
			c0.002-2.798-0.307-5.598-0.932-8.327c-0.797-3.507-2.113-6.893-3.885-10.018c-1.959-3.462-4.486-6.607-7.424-9.281
			c-2.84-2.577-6.066-4.72-9.553-6.319c-2.9-1.337-5.984-2.292-9.127-2.836c-2-0.344-4.018-0.517-6.035-0.541
			C21220.145-7346.42,21219.98-7346.422,21219.822-7346.422z"/>
	</g>
	<g transform="matrix(0.20922,-0.20922,0.481024,0.481024,4302.85,572.906)">
		<path d="M-16656.615-8605.391c1.223,0.006,2.443,0.04,3.664,0.11c2.326,0.134,4.65,0.388,6.957,0.763
			c5.715,0.93,11.305,2.607,16.588,4.978c6.891,3.091,13.246,7.358,18.729,12.554c5.57,5.281,10.229,11.511,13.713,18.353
			c2.859,5.631,4.92,11.663,6.088,17.872c1.361,7.197,1.529,14.622,0.516,21.876c-0.475,3.375-1.205,6.715-2.188,9.976
			c-1.006,3.337-2.27,6.594-3.787,9.732c-1.73,3.589-3.781,7.021-6.117,10.246c-2.367,3.264-5.025,6.314-7.936,9.104
			c-3.008,2.885-6.283,5.49-9.768,7.771c-3.459,2.263-7.125,4.205-10.938,5.792c-4.195,1.747-8.572,3.062-13.037,3.919
			c-4.184,0.801-8.443,1.202-12.703,1.202c-4.258,0-8.516-0.399-12.697-1.202c-4.465-0.856-8.844-2.174-13.037-3.919
			c-3.818-1.587-7.48-3.529-10.939-5.791c-3.488-2.281-6.764-4.888-9.77-7.771c-2.912-2.791-5.566-5.84-7.934-9.103
			c-2.34-3.226-4.389-6.658-6.121-10.246c-1.512-3.139-2.777-6.396-3.783-9.731c-0.984-3.266-1.715-6.604-2.189-9.978
			c-1.016-7.255-0.846-14.678,0.51-21.876c1.17-6.208,3.23-12.242,6.094-17.872c3.479-6.842,8.143-13.071,13.715-18.353
			c5.479-5.194,11.832-9.462,18.725-12.555c5.285-2.371,10.873-4.047,16.588-4.977c2.303-0.375,4.627-0.629,6.959-0.762
			c1.221-0.07,2.441-0.104,3.664-0.11C-16656.906-8605.39-16656.762-8605.389-16656.615-8605.391z M-16672.379-8575.596
			c-2.062,0.009-4.131,0.181-6.162,0.523c-3.08,0.521-6.094,1.436-8.941,2.714c-3.395,1.524-6.553,3.559-9.354,6.011
			c-3.215,2.822-5.951,6.192-8.041,9.929c-1.699,3.039-2.967,6.314-3.752,9.706c-0.623,2.688-0.938,5.441-0.953,8.196
			c-0.012,1.837,0.107,3.676,0.359,5.497c0.516,3.664,1.58,7.248,3.164,10.595c1.932,4.114,4.627,7.861,7.902,11.015
			c3.32,3.211,7.242,5.801,11.504,7.589c2.316,0.974,4.734,1.707,7.201,2.188c2.324,0.454,4.697,0.686,7.076,0.689
			c2.336,0.007,4.678-0.199,6.979-0.626c2.51-0.464,4.971-1.19,7.326-2.163c4.277-1.764,8.209-4.332,11.555-7.523
			c3.289-3.136,6.008-6.864,7.969-10.965c1.596-3.337,2.688-6.91,3.221-10.57c0.264-1.813,0.398-3.646,0.4-5.481
			c-0.002-2.797-0.309-5.599-0.934-8.327c-0.797-3.508-2.115-6.891-3.887-10.019c-1.965-3.462-4.482-6.606-7.428-9.28
			c-2.834-2.577-6.064-4.719-9.547-6.319c-2.904-1.336-5.984-2.292-9.139-2.835c-1.992-0.344-4.01-0.52-6.029-0.544
			C-16672.053-8575.596-16672.217-8575.595-16672.379-8575.596z"/>
	</g>
</g>
</svg>
