<?xml version="1.0" encoding="utf-8"?>
<!-- Generator: Adobe Illustrator 16.0.4, SVG Export Plug-In . SVG Version: 6.00 Build 0)  -->
<!DOCTYPE svg PUBLIC "-//W3C//DTD SVG 1.1//EN" "http://www.w3.org/Graphics/SVG/1.1/DTD/svg11.dtd">
<svg version="1.1" id="Layer_1" xmlns="http://www.w3.org/2000/svg" xmlns:xlink="http://www.w3.org/1999/xlink" x="0px" y="0px"
	 width="450px" height="270px" viewBox="19.5 -31.5 450 270" enable-background="new 19.5 -31.5 450 270" xml:space="preserve">
<g transform="matrix(1,0,0,1,-1490,-0)">
	<g>
		<defs>
			<rect id="SVGID_1_" x="1519.25" y="-15.788" width="505.25" height="309.733"/>
		</defs>
		<clipPath id="SVGID_2_">
			<use xlink:href="#SVGID_1_"  overflow="visible"/>
		</clipPath>
		<g clip-path="url(#SVGID_2_)">
			<g transform="matrix(1,0,0,1,-110.025,-119.388)">
				<g>
					<g transform="matrix(1.25338,0,0,1.25338,1314.97,-71.6072)">
						<path fill="#FFFFFF" d="M422.765,166.396c0.559,0.004,1.117,0.018,1.675,0.05c1.066,0.06,2.129,0.173,3.182,0.341
							c2.613,0.417,5.168,1.169,7.583,2.233c3.152,1.386,6.057,3.3,8.564,5.63c2.547,2.368,4.678,5.162,6.269,8.23
							c1.309,2.525,2.251,5.231,2.786,8.015c0.621,3.229,0.698,6.558,0.233,9.811c-0.216,1.513-0.551,3.011-1,4.474
							c-0.459,1.496-1.039,2.957-1.73,4.364c-0.791,1.609-1.729,3.149-2.799,4.596c-1.081,1.463-2.297,2.831-3.626,4.082
							c-1.376,1.294-2.873,2.463-4.468,3.486c-1.581,1.014-3.256,1.885-5.001,2.597c-1.919,0.784-3.921,1.373-5.962,1.757
							c-1.913,0.36-3.86,0.539-5.808,0.539c-1.946,0-3.893-0.179-5.806-0.539c-2.042-0.384-4.043-0.974-5.962-1.757
							c-1.745-0.712-3.42-1.583-5.001-2.597c-1.595-1.023-3.092-2.192-4.467-3.486c-1.33-1.251-2.545-2.618-3.627-4.082
							c-1.069-1.447-2.008-2.986-2.799-4.596c-0.692-1.408-1.271-2.868-1.73-4.364c-0.45-1.463-0.784-2.961-1-4.474
							c-0.464-3.253-0.387-6.582,0.234-9.811c0.534-2.783,1.476-5.489,2.785-8.015c1.591-3.069,3.722-5.862,6.27-8.23
							c2.507-2.33,5.412-4.244,8.562-5.63c2.416-1.063,4.972-1.815,7.584-2.233c1.054-0.168,2.116-0.282,3.182-0.341
							c0.558-0.032,1.116-0.046,1.674-0.05C422.632,166.396,422.699,166.396,422.765,166.396z M422.61,179.758
							c-0.944,0.005-1.887,0.081-2.818,0.235c-1.408,0.233-2.785,0.643-4.088,1.217c-1.551,0.683-2.996,1.596-4.274,2.695
							c-1.472,1.266-2.722,2.777-3.678,4.453c-0.777,1.363-1.357,2.832-1.715,4.353c-0.284,1.205-0.429,2.44-0.436,3.676
							c-0.005,0.824,0.049,1.648,0.166,2.464c0.235,1.644,0.723,3.25,1.443,4.752c0.886,1.845,2.12,3.525,3.615,4.94
							c1.52,1.439,3.31,2.602,5.259,3.404c1.06,0.436,2.164,0.765,3.292,0.981c1.066,0.204,2.151,0.306,3.236,0.31
							c1.07,0.003,2.14-0.09,3.192-0.281c1.147-0.208,2.272-0.534,3.351-0.97c1.954-0.791,3.752-1.943,5.281-3.373
							c1.504-1.407,2.747-3.079,3.644-4.918c0.73-1.497,1.228-3.099,1.473-4.74c0.122-0.814,0.182-1.636,0.182-2.458
							c0-1.256-0.14-2.511-0.424-3.736c-0.366-1.573-0.968-3.09-1.779-4.493c-0.898-1.552-2.05-2.962-3.396-4.162
							c-1.296-1.156-2.773-2.117-4.364-2.835c-1.328-0.6-2.736-1.028-4.177-1.272c-0.912-0.154-1.835-0.233-2.759-0.243
							C422.758,179.758,422.684,179.758,422.61,179.758z"/>
					</g>
					<g transform="matrix(0.430483,0,0,0.790674,1736.51,75.1503)">
						<path fill="#FFFFFF" d="M113.935,95.778c0.559,0.003,1.117,0.019,1.675,0.049c1.066,0.06,2.128,0.175,3.182,0.343
							c2.613,0.416,5.17,1.168,7.584,2.232c3.152,1.387,6.057,3.3,8.564,5.63c2.546,2.368,4.679,5.162,6.269,8.231
							c1.309,2.525,2.251,5.231,2.786,8.015c0.62,3.228,0.699,6.557,0.235,9.81c-0.217,1.514-0.551,3.011-1.002,4.474
							c-0.459,1.496-1.038,2.956-1.731,4.364c-0.789,1.609-1.729,3.148-2.797,4.595c-1.082,1.463-2.298,2.831-3.626,4.082
							c-1.377,1.293-2.874,2.462-4.468,3.485c-1.581,1.014-3.256,1.885-5.001,2.597c-1.919,0.784-3.921,1.373-5.962,1.758
							c-1.912,0.359-3.86,0.539-5.806,0.539c-1.948,0-3.894-0.18-5.807-0.539c-2.042-0.384-4.043-0.974-5.962-1.758
							c-1.745-0.711-3.421-1.583-5.001-2.597c-1.595-1.023-3.092-2.192-4.467-3.485c-1.329-1.251-2.545-2.619-3.626-4.082
							c-1.07-1.447-2.008-2.986-2.798-4.595c-0.693-1.408-1.273-2.868-1.731-4.364c-0.45-1.464-0.784-2.961-0.999-4.474
							c-0.465-3.254-0.388-6.583,0.234-9.81c0.535-2.785,1.475-5.49,2.785-8.015c1.591-3.069,3.722-5.862,6.269-8.231
							c2.508-2.331,5.413-4.243,8.563-5.63c2.416-1.063,4.971-1.816,7.584-2.232c1.056-0.168,2.118-0.282,3.183-0.343
							c0.557-0.03,1.116-0.046,1.676-0.049C113.803,95.778,113.87,95.778,113.935,95.778z M107.975,109.14
							c-0.945,0.005-1.887,0.081-2.818,0.235c-1.41,0.233-2.787,0.643-4.089,1.217c-1.552,0.683-2.997,1.596-4.274,2.695
							c-1.472,1.267-2.723,2.778-3.678,4.454c-0.777,1.362-1.358,2.831-1.715,4.353c-0.285,1.205-0.43,2.44-0.437,3.676
							c-0.006,0.824,0.049,1.648,0.166,2.464c0.234,1.644,0.723,3.251,1.444,4.753c0.886,1.844,2.118,3.524,3.614,4.94
							c1.52,1.439,3.311,2.602,5.26,3.404c1.058,0.435,2.164,0.765,3.292,0.981c1.065,0.204,2.152,0.306,3.237,0.31
							c1.068,0.003,2.139-0.09,3.191-0.28c1.148-0.209,2.272-0.535,3.352-0.971c1.953-0.791,3.752-1.943,5.281-3.374
							c1.503-1.407,2.748-3.079,3.643-4.918c0.73-1.496,1.227-3.099,1.475-4.74c0.12-0.813,0.18-1.635,0.18-2.458
							c0-1.255-0.141-2.51-0.424-3.734c-0.365-1.573-0.968-3.09-1.78-4.493c-0.897-1.552-2.048-2.962-3.396-4.162
							c-1.295-1.155-2.772-2.116-4.364-2.835c-1.328-0.598-2.736-1.026-4.176-1.271c-0.911-0.154-1.835-0.233-2.76-0.243
							C108.124,109.14,108.05,109.14,107.975,109.14z"/>
					</g>
					<g transform="matrix(-0.430483,2.43892e-16,-4.47959e-16,-0.790674,2691.68,577.619)">
						<path fill="#FFFFFF" d="M1829.972,479.114c0.56,0.003,1.116,0.018,1.675,0.05c1.065,0.059,2.128,0.174,3.182,0.342
							c2.612,0.417,5.169,1.168,7.584,2.232c3.152,1.388,6.057,3.301,8.564,5.631c2.547,2.368,4.678,5.162,6.269,8.23
							c1.31,2.525,2.251,5.231,2.786,8.015c0.62,3.229,0.699,6.558,0.235,9.811c-0.218,1.514-0.551,3.011-1.002,4.474
							c-0.458,1.496-1.039,2.957-1.73,4.364c-0.791,1.609-1.729,3.149-2.798,4.596c-1.081,1.463-2.298,2.831-3.627,4.081
							c-1.376,1.294-2.871,2.463-4.468,3.485c-1.58,1.015-3.255,1.885-4.999,2.597c-1.92,0.784-3.92,1.373-5.962,1.757
							c-1.912,0.361-3.86,0.54-5.809,0.54c-1.948,0-3.894-0.179-5.805-0.54c-2.043-0.384-4.044-0.973-5.962-1.757
							c-1.744-0.712-3.421-1.583-5.001-2.597c-1.596-1.023-3.093-2.192-4.468-3.485c-1.329-1.251-2.545-2.618-3.626-4.081
							c-1.07-1.447-2.008-2.987-2.798-4.596c-0.692-1.407-1.271-2.869-1.731-4.364c-0.449-1.464-0.783-2.961-1-4.474
							c-0.465-3.253-0.386-6.582,0.234-9.811c0.535-2.783,1.477-5.489,2.787-8.015c1.59-3.068,3.723-5.862,6.268-8.23
							c2.507-2.33,5.413-4.243,8.565-5.631c2.414-1.063,4.97-1.815,7.583-2.232c1.054-0.168,2.118-0.282,3.182-0.342
							c0.56-0.032,1.117-0.047,1.675-0.05C1829.839,479.114,1829.907,479.114,1829.972,479.114z M1824.012,492.476
							c-0.944,0.004-1.886,0.08-2.818,0.235c-1.409,0.233-2.787,0.643-4.09,1.217c-1.551,0.684-2.995,1.596-4.273,2.696
							c-1.471,1.267-2.721,2.777-3.678,4.453c-0.777,1.364-1.357,2.832-1.715,4.354c-0.285,1.204-0.429,2.44-0.437,3.676
							c-0.006,0.823,0.05,1.648,0.167,2.464c0.234,1.643,0.723,3.251,1.443,4.752c0.885,1.845,2.12,3.524,3.613,4.94
							c1.521,1.44,3.311,2.602,5.261,3.404c1.061,0.436,2.164,0.766,3.293,0.981c1.065,0.204,2.151,0.306,3.236,0.31
							c1.067,0.003,2.139-0.09,3.191-0.28c1.148-0.209,2.274-0.535,3.352-0.971c1.954-0.791,3.751-1.942,5.282-3.373
							c1.503-1.407,2.745-3.08,3.643-4.918c0.729-1.496,1.229-3.099,1.472-4.74c0.122-0.813,0.18-1.635,0.18-2.458
							c0-1.255-0.138-2.51-0.424-3.736c-0.364-1.572-0.967-3.09-1.779-4.492c-0.895-1.553-2.049-2.962-3.395-4.162
							c-1.298-1.156-2.772-2.117-4.365-2.835c-1.328-0.6-2.735-1.028-4.176-1.272c-0.912-0.154-1.835-0.233-2.76-0.243
							C1824.161,492.476,1824.086,492.476,1824.012,492.476z"/>
					</g>
					<g transform="matrix(1.21946e-16,0.430483,-0.790674,2.2398e-16,2465.33,-151.198)">
						<path fill="#FFFFFF" d="M622.546,754.004c0.547,0.003,1.094,0.018,1.642,0.05c1.045,0.061,2.087,0.177,3.12,0.348
							c2.563,0.425,5.07,1.193,7.44,2.276c3.09,1.414,5.939,3.365,8.398,5.74c2.499,2.415,4.589,5.263,6.15,8.391
							c1.284,2.575,2.207,5.333,2.732,8.172c0.608,3.291,0.685,6.685,0.228,10.002c-0.211,1.543-0.54,3.07-0.98,4.562
							c-0.45,1.525-1.019,3.014-1.697,4.449c-0.776,1.641-1.696,3.211-2.745,4.686c-1.062,1.491-2.254,2.886-3.557,4.161
							c-1.351,1.319-2.819,2.51-4.383,3.553c-1.549,1.034-3.193,1.922-4.905,2.647c-1.882,0.8-3.844,1.401-5.848,1.792
							c-1.876,0.366-3.784,0.55-5.695,0.55c-1.909,0-3.819-0.183-5.695-0.55c-2.002-0.392-3.965-0.992-5.848-1.792
							c-1.709-0.725-3.353-1.614-4.905-2.647c-1.563-1.043-3.033-2.234-4.382-3.553c-1.303-1.275-2.495-2.67-3.557-4.161
							c-1.048-1.475-1.969-3.045-2.745-4.686c-0.679-1.435-1.246-2.924-1.696-4.449c-0.442-1.492-0.77-3.019-0.982-4.562
							c-0.456-3.317-0.379-6.711,0.229-10.002c0.525-2.839,1.448-5.598,2.734-8.172c1.558-3.128,3.651-5.977,6.148-8.391
							c2.459-2.375,5.309-4.326,8.399-5.74c2.37-1.083,4.876-1.851,7.44-2.276c1.033-0.171,2.076-0.287,3.12-0.348
							c0.548-0.032,1.096-0.047,1.642-0.05C622.414,754.004,622.48,754.004,622.546,754.004z M616.697,767.627
							c-0.926,0.004-1.85,0.082-2.763,0.24c-1.382,0.238-2.731,0.656-4.011,1.241c-1.522,0.696-2.938,1.627-4.191,2.747
							c-1.444,1.291-2.671,2.832-3.608,4.541c-0.762,1.389-1.331,2.886-1.683,4.437c-0.278,1.229-0.42,2.488-0.428,3.749
							c-0.005,0.84,0.049,1.68,0.162,2.512c0.23,1.676,0.71,3.313,1.417,4.845c0.868,1.881,2.078,3.594,3.545,5.036
							c1.49,1.467,3.246,2.653,5.159,3.471c1.039,0.445,2.122,0.78,3.229,1c1.045,0.208,2.109,0.312,3.175,0.316
							c1.048,0.004,2.097-0.091,3.131-0.286c1.124-0.212,2.228-0.545,3.286-0.989c1.917-0.807,3.68-1.981,5.18-3.439
							c1.474-1.435,2.695-3.14,3.574-5.014c0.717-1.527,1.203-3.16,1.444-4.834c0.12-0.829,0.179-1.667,0.179-2.505
							c0-1.28-0.138-2.56-0.416-3.808c-0.358-1.603-0.951-3.15-1.746-4.581c-0.88-1.582-2.01-3.019-3.33-4.243
							c-1.27-1.178-2.72-2.158-4.28-2.89c-1.304-0.611-2.685-1.047-4.098-1.296c-0.894-0.157-1.799-0.238-2.706-0.248
							C616.844,767.627,616.771,767.627,616.697,767.627z"/>
					</g>
					<g transform="matrix(-3.65838e-16,-0.430483,0.790674,-6.71939e-16,1962.86,803.968)">
						<path fill="#FFFFFF" d="M1326.623-180.294c0.549,0.003,1.096,0.019,1.642,0.051c1.045,0.061,2.087,0.177,3.121,0.348
							c2.563,0.426,5.071,1.192,7.44,2.276c3.09,1.414,5.94,3.364,8.398,5.74c2.499,2.415,4.59,5.263,6.15,8.392
							c1.284,2.573,2.207,5.332,2.731,8.17c0.609,3.293,0.685,6.686,0.229,10.002c-0.211,1.543-0.539,3.069-0.981,4.562
							c-0.449,1.525-1.017,3.014-1.696,4.449c-0.776,1.64-1.697,3.21-2.746,4.685c-1.061,1.493-2.253,2.886-3.557,4.161
							c-1.349,1.319-2.818,2.511-4.38,3.554c-1.551,1.034-3.194,1.922-4.905,2.649c-1.883,0.797-3.845,1.399-5.848,1.79
							c-1.877,0.367-3.785,0.55-5.695,0.55c-1.91,0-3.82-0.183-5.696-0.55c-2.002-0.391-3.963-0.993-5.848-1.79
							c-1.709-0.727-3.354-1.614-4.905-2.649c-1.564-1.043-3.032-2.235-4.382-3.554c-1.303-1.275-2.497-2.668-3.556-4.161
							c-1.052-1.475-1.97-3.045-2.746-4.685c-0.678-1.435-1.247-2.924-1.697-4.449c-0.441-1.493-0.769-3.019-0.98-4.562
							c-0.457-3.316-0.38-6.71,0.228-10.002c0.525-2.838,1.448-5.597,2.732-8.17c1.561-3.129,3.652-5.977,6.149-8.392
							c2.46-2.376,5.31-4.327,8.399-5.74c2.37-1.084,4.877-1.85,7.44-2.276c1.032-0.171,2.075-0.288,3.12-0.348
							c0.548-0.032,1.096-0.048,1.642-0.051C1326.494-180.294,1326.557-180.294,1326.623-180.294z M1320.777-166.671
							c-0.927,0.004-1.852,0.082-2.763,0.24c-1.382,0.238-2.732,0.656-4.011,1.241c-1.522,0.696-2.94,1.627-4.195,2.747
							c-1.442,1.291-2.669,2.832-3.606,4.54c-0.762,1.389-1.332,2.888-1.683,4.438c-0.278,1.228-0.421,2.487-0.428,3.747
							c-0.005,0.84,0.048,1.68,0.162,2.513c0.23,1.675,0.708,3.314,1.416,4.845c0.869,1.88,2.078,3.593,3.546,5.035
							c1.492,1.467,3.247,2.653,5.159,3.471c1.039,0.445,2.123,0.78,3.229,1c1.045,0.208,2.109,0.313,3.174,0.316
							c1.049,0.003,2.099-0.091,3.132-0.286c1.125-0.212,2.228-0.545,3.285-0.99c1.917-0.807,3.682-1.98,5.181-3.439
							c1.475-1.433,2.695-3.139,3.575-5.014c0.716-1.525,1.203-3.159,1.444-4.833c0.118-0.829,0.179-1.667,0.179-2.505
							c0-1.281-0.138-2.56-0.417-3.808c-0.36-1.604-0.949-3.151-1.745-4.582c-0.881-1.583-2.01-3.019-3.331-4.243
							c-1.27-1.178-2.72-2.158-4.281-2.89c-1.303-0.611-2.684-1.048-4.097-1.296c-0.894-0.157-1.799-0.238-2.706-0.248
							C1320.922-166.671,1320.85-166.671,1320.777-166.671z"/>
					</g>
					<g transform="matrix(0.189584,0.189584,-0.435878,0.435878,2086.28,-77.2641)">
						<path fill="#FFFFFF" d="M-209.196,537.137c0.552,0.001,1.106,0.014,1.659,0.044c1.053,0.055,2.106,0.165,3.142,0.33
							c2.581,0.41,5.094,1.159,7.461,2.223c3.089,1.387,5.924,3.307,8.356,5.65c2.469,2.381,4.518,5.193,6.024,8.284
							c1.24,2.545,2.112,5.273,2.579,8.082c0.542,3.257,0.543,6.619,0.012,9.906c-0.249,1.53-0.614,3.042-1.091,4.522
							c-0.488,1.513-1.096,2.989-1.812,4.414c-0.822,1.629-1.782,3.187-2.877,4.652c-1.102,1.482-2.337,2.868-3.683,4.137
							c-1.389,1.312-2.9,2.498-4.503,3.538c-1.587,1.031-3.267,1.917-5.011,2.643c-1.917,0.799-3.912,1.403-5.943,1.799
							c-1.902,0.371-3.835,0.561-5.764,0.569c-1.929,0.008-3.853-0.165-5.74-0.52c-2.011-0.379-3.98-0.966-5.866-1.749
							c-1.71-0.711-3.35-1.585-4.894-2.602c-1.554-1.026-3.012-2.2-4.346-3.501c-1.286-1.256-2.462-2.633-3.499-4.106
							c-1.028-1.455-1.923-3.007-2.671-4.629c-0.652-1.418-1.193-2.89-1.615-4.399c-0.412-1.476-0.711-2.987-0.889-4.515
							c-0.388-3.283-0.237-6.644,0.451-9.906c0.592-2.814,1.584-5.551,2.94-8.105c1.644-3.105,3.818-5.934,6.391-8.336
							c2.534-2.364,5.456-4.308,8.609-5.722c2.417-1.084,4.966-1.854,7.563-2.285c1.046-0.175,2.102-0.295,3.158-0.358
							c0.555-0.034,1.107-0.054,1.66-0.058C-209.326,537.137-209.263,537.137-209.196,537.137z M-216.634,550.66
							c-0.935,0.008-1.87,0.089-2.798,0.249c-1.398,0.241-2.771,0.66-4.076,1.246c-1.549,0.695-3,1.623-4.292,2.738
							c-1.485,1.284-2.761,2.816-3.744,4.512c-0.8,1.38-1.407,2.866-1.798,4.404c-0.306,1.218-0.478,2.465-0.514,3.713
							c-0.023,0.832,0.011,1.664,0.111,2.488c0.196,1.658,0.64,3.279,1.321,4.793c0.834,1.857,2.018,3.549,3.469,4.973
							c1.473,1.446,3.219,2.612,5.132,3.414c1.038,0.437,2.127,0.765,3.237,0.978c1.055,0.201,2.125,0.3,3.2,0.299
							c1.06-0.001,2.121-0.099,3.167-0.295c1.14-0.217,2.264-0.55,3.341-0.995c1.954-0.807,3.762-1.978,5.31-3.428
							c1.521-1.427,2.789-3.121,3.716-4.982c0.759-1.513,1.285-3.134,1.566-4.792c0.139-0.822,0.215-1.652,0.236-2.482
							c0.028-1.268-0.082-2.535-0.337-3.771c-0.326-1.586-0.887-3.116-1.66-4.53c-0.854-1.563-1.964-2.981-3.271-4.188
							c-1.258-1.161-2.699-2.125-4.261-2.844c-1.299-0.6-2.682-1.027-4.105-1.267c-0.899-0.151-1.812-0.227-2.727-0.233
							C-216.485,550.66-216.56,550.658-216.634,550.66z"/>
					</g>
					<g transform="matrix(-0.189584,0.189584,-0.435878,-0.435878,2617.28,198.113)">
						<path fill="#FFFFFF" d="M1737.737,882.13c0.555,0.005,1.11,0.024,1.661,0.057c1.057,0.064,2.112,0.184,3.16,0.359
							c2.596,0.431,5.145,1.201,7.561,2.285c3.153,1.414,6.074,3.358,8.609,5.722c2.574,2.402,4.748,5.232,6.394,8.337
							c1.353,2.555,2.346,5.292,2.939,8.105c0.686,3.261,0.838,6.624,0.452,9.907c-0.182,1.527-0.479,3.038-0.891,4.513
							c-0.42,1.509-0.962,2.981-1.614,4.401c-0.75,1.621-1.643,3.171-2.67,4.628c-1.038,1.473-2.211,2.849-3.501,4.106
							c-1.332,1.302-2.788,2.476-4.345,3.502c-1.543,1.017-3.183,1.891-4.897,2.602c-1.881,0.782-3.849,1.371-5.865,1.75
							c-1.887,0.354-3.807,0.528-5.738,0.52c-1.928-0.008-3.86-0.198-5.762-0.569c-2.031-0.396-4.027-1-5.944-1.799
							c-1.746-0.726-3.423-1.612-5.013-2.643c-1.599-1.04-3.111-2.226-4.502-3.539c-1.343-1.268-2.578-2.654-3.682-4.135
							c-1.094-1.466-2.058-3.025-2.877-4.653c-0.716-1.424-1.321-2.901-1.811-4.414c-0.477-1.48-0.844-2.993-1.091-4.522
							c-0.532-3.287-0.531-6.648,0.011-9.906c0.468-2.809,1.338-5.538,2.579-8.082c1.506-3.091,3.553-5.903,6.023-8.285
							c2.431-2.341,5.266-4.262,8.355-5.649c2.368-1.064,4.883-1.812,7.46-2.223c1.042-0.165,2.091-0.276,3.145-0.331
							c0.552-0.03,1.105-0.044,1.659-0.044C1737.608,882.13,1737.672,882.13,1737.737,882.13z M1730.9,895.593
							c-0.936,0.001-1.867,0.074-2.787,0.225c-1.389,0.23-2.744,0.638-4.021,1.212c-1.521,0.683-2.929,1.6-4.173,2.705
							c-1.431,1.272-2.631,2.792-3.543,4.48c-0.739,1.373-1.277,2.854-1.599,4.389c-0.255,1.216-0.371,2.462-0.352,3.711
							c0.015,0.831,0.085,1.664,0.219,2.488c0.271,1.661,0.789,3.285,1.536,4.805c0.919,1.866,2.176,3.567,3.691,5.003
							c1.539,1.459,3.339,2.641,5.286,3.459c1.058,0.446,2.159,0.782,3.281,1.005c1.06,0.21,2.139,0.318,3.213,0.325
							c1.059,0.008,2.116-0.081,3.154-0.269c1.133-0.206,2.24-0.53,3.297-0.967c1.919-0.791,3.674-1.945,5.157-3.384
							c1.458-1.414,2.652-3.098,3.499-4.951c0.689-1.508,1.145-3.124,1.352-4.78c0.102-0.822,0.143-1.652,0.124-2.481
							c-0.028-1.268-0.195-2.536-0.505-3.774c-0.397-1.59-1.026-3.124-1.864-4.544c-0.922-1.572-2.094-3-3.455-4.216
							c-1.308-1.173-2.792-2.15-4.386-2.881c-1.329-0.611-2.733-1.048-4.165-1.301c-0.906-0.159-1.823-0.244-2.739-0.257
							C1731.047,895.594,1730.973,895.593,1730.9,895.593z"/>
					</g>
					<g transform="matrix(-0.189584,-0.189584,0.435878,-0.435878,2341.9,729.12)">
						<path fill="#FFFFFF" d="M2536.849,36.741c0.554,0,1.106,0.014,1.66,0.043c1.052,0.055,2.103,0.166,3.144,0.331
							c2.578,0.41,5.09,1.159,7.461,2.223c3.088,1.388,5.924,3.308,8.353,5.649c2.471,2.381,4.521,5.194,6.025,8.285
							c1.241,2.545,2.113,5.273,2.579,8.082c0.542,3.257,0.545,6.619,0.012,9.906c-0.247,1.529-0.613,3.042-1.092,4.522
							c-0.487,1.512-1.094,2.989-1.812,4.414c-0.818,1.628-1.784,3.187-2.875,4.652c-1.102,1.482-2.338,2.868-3.684,4.136
							c-1.389,1.311-2.9,2.498-4.501,3.538c-1.59,1.031-3.267,1.917-5.012,2.643c-1.919,0.8-3.912,1.404-5.946,1.8
							c-1.899,0.371-3.833,0.56-5.761,0.568c-1.928,0.008-3.852-0.165-5.738-0.519c-2.013-0.38-3.982-0.968-5.865-1.751
							c-1.713-0.711-3.355-1.583-4.896-2.601c-1.557-1.027-3.013-2.2-4.345-3.501c-1.29-1.258-2.462-2.634-3.5-4.108
							c-1.028-1.455-1.924-3.007-2.67-4.627c-0.654-1.419-1.195-2.891-1.615-4.4c-0.413-1.476-0.711-2.987-0.89-4.514
							c-0.389-3.282-0.236-6.646,0.449-9.908c0.594-2.813,1.585-5.549,2.94-8.104c1.647-3.105,3.818-5.934,6.395-8.337
							c2.533-2.363,5.454-4.308,8.605-5.721c2.417-1.084,4.966-1.853,7.563-2.286c1.046-0.174,2.1-0.293,3.158-0.358
							c0.556-0.034,1.109-0.052,1.662-0.055C2536.72,36.741,2536.784,36.741,2536.849,36.741z M2529.412,50.263
							c-0.937,0.009-1.872,0.09-2.796,0.249c-1.401,0.242-2.775,0.661-4.078,1.246c-1.551,0.696-3.002,1.624-4.293,2.739
							c-1.485,1.286-2.757,2.816-3.742,4.512c-0.801,1.379-1.407,2.866-1.798,4.403c-0.308,1.218-0.478,2.466-0.514,3.714
							c-0.025,0.832,0.01,1.664,0.108,2.487c0.196,1.659,0.643,3.281,1.325,4.793c0.835,1.858,2.018,3.551,3.466,4.973
							c1.475,1.447,3.223,2.613,5.134,3.415c1.041,0.436,2.126,0.763,3.239,0.977c1.051,0.202,2.124,0.3,3.199,0.299
							c1.061-0.002,2.121-0.099,3.166-0.297c1.142-0.216,2.265-0.548,3.34-0.994c1.955-0.807,3.761-1.978,5.31-3.428
							c1.522-1.427,2.788-3.122,3.719-4.982c0.756-1.514,1.284-3.134,1.563-4.792c0.138-0.822,0.218-1.653,0.236-2.482
							c0.03-1.268-0.081-2.536-0.336-3.771c-0.327-1.586-0.888-3.115-1.661-4.529c-0.852-1.564-1.964-2.983-3.268-4.189
							c-1.26-1.162-2.701-2.126-4.26-2.844c-1.301-0.599-2.686-1.025-4.108-1.266c-0.901-0.152-1.811-0.228-2.729-0.235
							C2529.561,50.263,2529.484,50.263,2529.412,50.263z"/>
					</g>
					<g transform="matrix(0.189584,-0.189584,0.435878,0.435878,1810.9,453.743)">
						<path fill="#FFFFFF" d="M587.262-312.255c0.552,0.005,1.106,0.023,1.661,0.057c1.056,0.064,2.112,0.184,3.159,0.358
							c2.597,0.432,5.145,1.201,7.562,2.285c3.15,1.413,6.072,3.358,8.605,5.721c2.578,2.402,4.753,5.232,6.396,8.337
							c1.352,2.555,2.346,5.291,2.939,8.105c0.685,3.262,0.838,6.623,0.451,9.906c-0.18,1.528-0.475,3.039-0.889,4.514
							c-0.42,1.509-0.963,2.981-1.617,4.4c-0.747,1.621-1.641,3.172-2.668,4.628c-1.038,1.474-2.21,2.85-3.501,4.107
							c-1.332,1.299-2.789,2.475-4.346,3.501c-1.541,1.017-3.181,1.89-4.892,2.602c-1.887,0.782-3.852,1.369-5.867,1.749
							c-1.885,0.356-3.809,0.528-5.737,0.52c-1.929-0.008-3.86-0.198-5.764-0.569c-2.03-0.395-4.024-1-5.943-1.798
							c-1.745-0.725-3.424-1.613-5.013-2.643c-1.602-1.04-3.111-2.227-4.501-3.538c-1.346-1.269-2.581-2.655-3.684-4.138
							c-1.093-1.465-2.054-3.024-2.876-4.652c-0.716-1.424-1.323-2.902-1.812-4.414c-0.476-1.479-0.842-2.992-1.089-4.521
							c-0.533-3.288-0.532-6.648,0.01-9.906c0.467-2.808,1.341-5.538,2.581-8.081c1.507-3.092,3.554-5.904,6.022-8.284
							c2.431-2.344,5.266-4.263,8.356-5.65c2.368-1.064,4.885-1.813,7.461-2.223c1.038-0.166,2.09-0.276,3.145-0.332
							c0.551-0.029,1.102-0.043,1.657-0.043C587.132-312.255,587.198-312.256,587.262-312.255z M580.424-298.793
							c-0.936,0.001-1.866,0.075-2.785,0.226c-1.391,0.23-2.743,0.637-4.023,1.212c-1.52,0.683-2.931,1.599-4.172,2.703
							c-1.429,1.273-2.634,2.793-3.543,4.481c-0.739,1.373-1.28,2.854-1.603,4.388c-0.252,1.215-0.368,2.461-0.346,3.711
							c0.013,0.832,0.083,1.664,0.219,2.488c0.268,1.661,0.788,3.285,1.535,4.805c0.919,1.866,2.178,3.568,3.688,5.004
							c1.542,1.459,3.341,2.64,5.288,3.458c1.059,0.445,2.162,0.783,3.284,1.005c1.058,0.211,2.136,0.319,3.213,0.325
							c1.059,0.009,2.115-0.081,3.154-0.269c1.131-0.206,2.238-0.53,3.297-0.967c1.919-0.79,3.673-1.946,5.156-3.384
							c1.456-1.413,2.653-3.097,3.498-4.95c0.689-1.507,1.146-3.124,1.354-4.781c0.102-0.821,0.144-1.65,0.124-2.48
							c-0.028-1.268-0.196-2.537-0.504-3.775c-0.398-1.589-1.028-3.123-1.863-4.543c-0.922-1.572-2.096-3-3.456-4.218
							c-1.31-1.172-2.794-2.149-4.386-2.88c-1.329-0.612-2.734-1.049-4.167-1.301c-0.904-0.16-1.821-0.244-2.736-0.257
							C580.57-298.793,580.496-298.793,580.424-298.793z"/>
					</g>
				</g>
				<g transform="matrix(1,0,0,1,1528.12,86.5363)">
					<path fill="#FFFFFF" d="M200.36,253.166c0.589,0.197,1.183,0.377,1.781,0.548c0.591,0.168,1.187,0.324,1.784,0.469
						c1.042,0.252,2.091,0.471,3.149,0.646c0.753,0.125,1.51,0.23,2.269,0.308c0.616,0.063,1.234,0.109,1.852,0.134
						c0.433,0.017,0.866,0.023,1.298,0.018c0.274-0.003,0.548-0.012,0.822-0.027c0.601-0.031,1.201-0.087,1.794-0.19
						c1.04-0.18,2.065-0.5,2.977-1.031c0.228-0.132,0.447-0.277,0.657-0.434c0.264-0.197,0.512-0.414,0.742-0.648
						c0.352-0.358,0.66-0.756,0.925-1.18c0.438-0.702,0.754-1.469,0.979-2.259c0.379-1.324,0.512-2.706,0.514-4.077v-3.882
						c-1.16,0.932-2.433,1.727-3.795,2.344c-0.998,0.453-2.041,0.811-3.109,1.068c-1.59,0.381-3.23,0.535-4.865,0.487
						c-0.864-0.024-1.727-0.104-2.577-0.255c-1.016-0.177-2.014-0.455-2.966-0.844c-0.731-0.298-1.434-0.664-2.093-1.093
						c-0.693-0.451-1.338-0.971-1.92-1.552c-0.795-0.792-1.473-1.693-2.022-2.665c-0.593-1.049-1.039-2.178-1.341-3.34
						c-0.123-0.474-0.222-0.954-0.296-1.436c-0.064-0.422-0.109-0.847-0.125-1.273v-17.339c0.017-0.457,0.067-0.911,0.139-1.362
						c0.085-0.533,0.201-1.062,0.346-1.583c0.353-1.268,0.877-2.493,1.581-3.613c0.666-1.06,1.493-2.022,2.457-2.833
						c0.712-0.599,1.498-1.114,2.332-1.537c1.305-0.661,2.722-1.088,4.168-1.319c0.58-0.092,1.166-0.154,1.753-0.187
						c0.284-0.017,0.568-0.026,0.853-0.031c0.146-0.001,0.291-0.002,0.438-0.001c0.291,0.003,0.581,0.01,0.872,0.026
						c0.561,0.03,1.122,0.084,1.679,0.165c1.42,0.206,2.814,0.583,4.138,1.129c0.878,0.362,1.726,0.797,2.532,1.295
						c0.634,0.392,1.243,0.825,1.823,1.291v-3.539h6.316c0,13.96,0,27.922,0,41.883c-0.001,0.529-0.016,1.058-0.05,1.586
						c-0.099,1.521-0.348,3.037-0.799,4.499c-0.41,1.324-0.989,2.603-1.757,3.768c-0.559,0.846-1.215,1.63-1.958,2.326
						c-0.539,0.504-1.121,0.961-1.739,1.366c-0.478,0.314-0.977,0.596-1.492,0.847c-1.357,0.661-2.82,1.096-4.312,1.347
						c-0.782,0.132-1.572,0.211-2.363,0.255c-0.999,0.056-2,0.055-2.999,0.009c-0.689-0.03-1.377-0.083-2.063-0.154
						c-0.893-0.092-1.783-0.213-2.669-0.361c-1.163-0.193-2.318-0.431-3.464-0.706c-0.734-0.176-1.466-0.367-2.192-0.574V253.166z
						 M425.868,234.364l11.488-30.798h6.726l-21.357,57.252h-6.485l-0.211-0.076l6.498-17.419l-15.071-39.757h6.738L425.868,234.364
						z M253.685,245.08c-0.793-0.318-1.544-0.739-2.241-1.228c-0.606-0.424-1.173-0.903-1.694-1.424
						c-0.44-0.441-0.847-0.912-1.22-1.407c-0.325-0.43-0.623-0.88-0.896-1.343c-0.229-0.389-0.44-0.787-0.634-1.195
						c-1.013-2.131-1.533-4.459-1.725-6.796c-0.061-0.739-0.087-1.481-0.088-2.224v-25.897h6.315c0,8.629,0,17.259,0,25.889
						c0.001,0.681,0.029,1.358,0.095,2.036c0.054,0.547,0.132,1.094,0.241,1.633c0.089,0.441,0.198,0.877,0.33,1.305
						c0.406,1.311,1.044,2.578,2.011,3.579c0.124,0.13,0.254,0.254,0.389,0.372c0.284,0.251,0.589,0.478,0.917,0.672
						c0.212,0.124,0.433,0.238,0.664,0.324c0.015,0.005,0.029,0.01,0.044,0.016l0.006,0.002l0.104,0.028
						c0.044,0.016,0.085,0.032,0.129,0.046c0.046,0.014,0.093,0.027,0.14,0.041c0.382,0.104,0.773,0.175,1.167,0.223
						c0.517,0.063,1.039,0.084,1.559,0.065c1.123-0.041,2.235-0.274,3.278-0.685c0.194-0.076,0.386-0.16,0.575-0.247
						c0.129-0.061,0.256-0.122,0.381-0.189c0.141-0.075,0.279-0.156,0.414-0.241c0.516-0.328,0.984-0.726,1.412-1.16
						c0.522-0.528,0.985-1.113,1.404-1.724c0.652-0.951,1.199-1.97,1.678-3.014c0.565-1.235,1.034-2.512,1.43-3.809
						c0.19-0.625,0.364-1.255,0.519-1.89c0.087-0.357,0.17-0.717,0.242-1.079v-22.192h6.315v41.881h-6.315v-4.658
						c-0.972,1.118-2.085,2.117-3.352,2.907c-0.239,0.147-0.482,0.288-0.73,0.421c-0.387,0.207-0.786,0.394-1.19,0.565
						c-1.069,0.457-2.188,0.8-3.332,1.02c-1.514,0.291-3.069,0.367-4.604,0.225c-0.762-0.07-1.52-0.192-2.262-0.377
						c-0.184-0.045-0.368-0.096-0.55-0.151 M501.525,237.402c0.08,0.036,0.165,0.073,0.249,0.108
						c0.362,0.155,0.727,0.301,1.095,0.438c1.751,0.647,3.576,1.095,5.421,1.38c1,0.156,2.007,0.263,3.015,0.324
						c0.919,0.055,1.842,0.071,2.761,0.044c0.59-0.018,1.182-0.052,1.768-0.108c0.551-0.053,1.099-0.124,1.646-0.219
						c0.421-0.073,0.838-0.161,1.253-0.27c0.34-0.089,0.677-0.192,1.004-0.319c0.144-0.056,0.284-0.118,0.42-0.186
						c0.087-0.045,0.176-0.091,0.253-0.148c0.025-0.019,0.045-0.038,0.069-0.059c0.029-0.029,0.061-0.059,0.092-0.087
						c0.109-0.106,0.213-0.215,0.315-0.328c0.352-0.384,0.66-0.804,0.927-1.248c0.354-0.585,0.631-1.214,0.824-1.869
						c0.14-0.491,0.228-1,0.241-1.509c0.012-0.399-0.023-0.801-0.112-1.19c-0.105-0.452-0.279-0.887-0.522-1.283
						c-0.087-0.143-0.179-0.281-0.284-0.412c-0.147-0.191-0.316-0.369-0.495-0.537c-0.221-0.205-0.453-0.395-0.695-0.574
						c-0.312-0.23-0.638-0.444-0.971-0.643c-0.379-0.226-0.766-0.437-1.163-0.636c-1.004-0.508-2.042-0.945-3.09-1.357
						c-1.239-0.487-2.496-0.936-3.744-1.397c-0.175-0.065-0.351-0.131-0.527-0.197c-0.725-0.274-1.449-0.553-2.157-0.859
						c-0.495-0.212-0.983-0.437-1.456-0.688c-0.548-0.292-1.074-0.624-1.576-0.988c-1.593-1.163-2.929-2.689-3.765-4.465
						c-0.14-0.302-0.266-0.611-0.378-0.926c-0.14-0.396-0.256-0.799-0.343-1.208c-0.12-0.552-0.19-1.115-0.208-1.679
						c-0.027-0.784,0.046-1.57,0.208-2.336c0.249-1.17,0.712-2.289,1.323-3.32c0.312-0.526,0.659-1.029,1.038-1.51
						c0.105-0.131,0.211-0.26,0.319-0.388c0.13-0.154,0.26-0.304,0.401-0.45c0.301-0.312,0.627-0.601,0.975-0.863
						c1.125-0.852,2.442-1.43,3.796-1.835c0.239-0.071,0.474-0.137,0.715-0.197c1.092-0.278,2.204-0.461,3.323-0.585
						c1.424-0.157,2.855-0.217,4.291-0.223c0.08,0,0.165,0,0.248,0c2.286,0.008,4.568,0.155,6.839,0.395
						c0.761,0.081,1.523,0.172,2.28,0.274v6.258c-1.288-0.19-2.583-0.345-3.88-0.466c-1.095-0.101-2.193-0.178-3.292-0.223
						c-1.09-0.044-2.179-0.058-3.269-0.027c-0.973,0.029-1.94,0.091-2.902,0.214c-0.607,0.078-1.213,0.179-1.807,0.319
						c-0.471,0.109-0.934,0.242-1.383,0.417c-0.305,0.118-0.603,0.256-0.88,0.43c-0.189,0.118-0.369,0.252-0.513,0.418
						c-0.053,0.061-0.105,0.123-0.158,0.185c-0.424,0.522-0.804,1.09-1.056,1.713c-0.164,0.404-0.273,0.832-0.302,1.267
						c-0.013,0.196-0.007,0.393,0.015,0.588c0.014,0.124,0.034,0.249,0.063,0.371c0.179,0.808,0.643,1.535,1.213,2.133
						c0.102,0.105,0.207,0.207,0.312,0.305c0.147,0.132,0.298,0.258,0.457,0.377c0.189,0.143,0.386,0.275,0.589,0.398
						c0.326,0.198,0.673,0.364,1.024,0.521c0.365,0.164,0.734,0.317,1.106,0.464c0.428,0.171,0.862,0.335,1.294,0.497
						c0.706,0.263,1.415,0.52,2.12,0.781c0.188,0.069,0.375,0.138,0.561,0.207c0.723,0.271,1.445,0.547,2.158,0.839
						c0.541,0.219,1.078,0.447,1.607,0.687c0.438,0.198,0.877,0.405,1.306,0.622c0.337,0.171,0.67,0.346,0.996,0.531
						c0.235,0.13,0.467,0.267,0.698,0.407c1.383,0.843,2.681,1.853,3.688,3.116c0.357,0.446,0.672,0.924,0.954,1.422
						c0.337,0.605,0.614,1.242,0.825,1.9c0.27,0.838,0.428,1.707,0.484,2.583c0.066,1.107-0.035,2.221-0.281,3.303
						c-0.312,1.384-0.86,2.716-1.583,3.943c-0.512,0.862-1.112,1.675-1.797,2.414c-0.192,0.21-0.396,0.414-0.603,0.612
						c-0.143,0.137-0.292,0.271-0.446,0.396c-0.305,0.249-0.634,0.47-0.975,0.667c-0.429,0.248-0.877,0.458-1.336,0.642
						c-0.559,0.221-1.126,0.404-1.706,0.558c-0.677,0.183-1.365,0.325-2.056,0.441c-0.813,0.135-1.635,0.231-2.459,0.296
						c-1.214,0.096-2.435,0.125-3.656,0.096c-1.348-0.034-2.695-0.137-4.033-0.311c-1.403-0.183-2.792-0.44-4.16-0.781
						c-0.863-0.215-1.719-0.461-2.562-0.745V237.402z M295.213,237.402c0.383,0.169,0.77,0.329,1.161,0.477
						c1.713,0.647,3.5,1.103,5.31,1.402c1.001,0.165,2.011,0.282,3.024,0.352c0.985,0.067,1.973,0.09,2.96,0.064
						c1.148-0.03,2.298-0.124,3.431-0.317c0.425-0.072,0.849-0.159,1.267-0.266c0.345-0.089,0.688-0.192,1.02-0.32
						c0.147-0.056,0.292-0.117,0.433-0.188c0.096-0.047,0.192-0.099,0.281-0.161c0.026-0.019,0.045-0.038,0.069-0.06
						c0.03-0.028,0.061-0.057,0.09-0.086c0.109-0.106,0.216-0.215,0.317-0.328c0.35-0.384,0.659-0.804,0.926-1.248
						c0.354-0.585,0.634-1.213,0.824-1.868c0.143-0.492,0.229-1,0.243-1.51c0.011-0.399-0.023-0.801-0.113-1.19
						c-0.101-0.44-0.272-0.865-0.505-1.255c-0.091-0.152-0.19-0.299-0.299-0.438c-0.168-0.213-0.357-0.41-0.558-0.594
						c-0.213-0.195-0.439-0.376-0.673-0.547c-0.332-0.242-0.679-0.465-1.033-0.674c-0.382-0.226-0.775-0.435-1.172-0.633
						c-0.97-0.482-1.971-0.903-2.98-1.299c-1.24-0.487-2.496-0.936-3.745-1.397c-0.175-0.065-0.351-0.131-0.526-0.197
						c-0.725-0.274-1.447-0.553-2.158-0.859c-0.492-0.212-0.981-0.436-1.454-0.688c-0.569-0.304-1.115-0.648-1.632-1.031
						c-1.589-1.173-2.917-2.708-3.739-4.491c-0.14-0.304-0.266-0.614-0.375-0.93c-0.137-0.396-0.25-0.802-0.334-1.212
						c-0.114-0.555-0.18-1.119-0.194-1.685c-0.02-0.785,0.06-1.571,0.23-2.338c0.259-1.17,0.731-2.288,1.352-3.317
						c0.299-0.496,0.632-0.973,0.992-1.429c0.104-0.131,0.209-0.26,0.316-0.388c0.13-0.154,0.263-0.305,0.402-0.45
						c0.301-0.312,0.628-0.6,0.975-0.863c1.126-0.851,2.443-1.429,3.797-1.834c0.237-0.071,0.476-0.137,0.715-0.197
						c1.05-0.268,2.122-0.447,3.199-0.571c1.381-0.158,2.772-0.224,4.163-0.235c0.167-0.001,0.333-0.001,0.501-0.001
						c2.285,0.008,4.568,0.155,6.839,0.395c0.762,0.081,1.522,0.172,2.28,0.274v6.258c-1.289-0.19-2.583-0.345-3.882-0.466
						c-1.094-0.101-2.192-0.178-3.29-0.223c-1.089-0.044-2.181-0.058-3.271-0.027c-0.97,0.029-1.94,0.091-2.902,0.214
						c-0.607,0.078-1.212,0.179-1.808,0.319c-0.468,0.109-0.931,0.243-1.379,0.417c-0.298,0.116-0.591,0.25-0.863,0.418
						c-0.194,0.12-0.381,0.258-0.532,0.429c-0.052,0.061-0.105,0.124-0.156,0.186c-0.427,0.522-0.804,1.09-1.057,1.713
						c-0.165,0.404-0.275,0.831-0.302,1.266c-0.013,0.196-0.008,0.394,0.014,0.59c0.014,0.124,0.035,0.248,0.062,0.37
						c0.183,0.821,0.655,1.557,1.24,2.16c0.102,0.105,0.206,0.206,0.314,0.303c0.139,0.124,0.282,0.241,0.43,0.354
						c0.189,0.143,0.386,0.275,0.589,0.399c0.327,0.198,0.673,0.363,1.022,0.52c0.401,0.18,0.809,0.347,1.218,0.509
						c0.476,0.188,0.956,0.368,1.436,0.546c0.715,0.265,1.432,0.525,2.146,0.79c0.188,0.07,0.377,0.14,0.564,0.21
						c0.677,0.256,1.353,0.517,2.022,0.791c0.59,0.242,1.175,0.495,1.753,0.762c0.438,0.203,0.872,0.414,1.299,0.637
						c0.286,0.149,0.57,0.302,0.851,0.462c0.234,0.133,0.466,0.271,0.695,0.412c1.354,0.841,2.622,1.848,3.604,3.099
						c0.351,0.448,0.664,0.925,0.937,1.424c0.333,0.606,0.605,1.246,0.811,1.904c0.263,0.838,0.416,1.708,0.464,2.583
						c0.062,1.128-0.051,2.263-0.313,3.363c-0.328,1.379-0.884,2.705-1.619,3.921c-0.497,0.822-1.075,1.598-1.729,2.305
						c-0.195,0.21-0.396,0.414-0.604,0.612c-0.145,0.137-0.292,0.271-0.448,0.396c-0.305,0.249-0.633,0.47-0.975,0.667
						c-0.428,0.248-0.877,0.458-1.337,0.642c-0.555,0.221-1.125,0.404-1.703,0.558c-0.677,0.183-1.365,0.325-2.058,0.441
						c-0.814,0.135-1.635,0.231-2.458,0.296c-1.179,0.094-2.363,0.124-3.545,0.098c-1.346-0.029-2.69-0.129-4.026-0.297
						c-1.4-0.178-2.791-0.432-4.161-0.768c-0.904-0.222-1.799-0.479-2.681-0.775V237.402z M483.642,243.842
						c-0.302,0.102-0.604,0.198-0.91,0.291c-1.09,0.331-2.199,0.604-3.315,0.831c-1.204,0.244-2.417,0.434-3.635,0.575
						c-1.484,0.174-2.979,0.276-4.47,0.32c-0.382,0.011-0.762,0.018-1.141,0.022c-0.318,0.003-0.638,0.004-0.958-0.002
						c-0.467-0.011-0.937-0.039-1.407-0.085c-0.958-0.096-1.909-0.271-2.828-0.542c-1.063-0.312-2.088-0.75-3.031-1.318
						c-0.649-0.389-1.257-0.837-1.817-1.338c-0.73-0.651-1.373-1.387-1.927-2.187c-0.698-1.016-1.249-2.127-1.652-3.287
						c-0.267-0.765-0.475-1.55-0.618-2.348c-0.105-0.584-0.179-1.176-0.2-1.77v-6.825l0,0v-10.099
						c0.004-0.079,0.004-0.079,0.007-0.159c0.024-0.441,0.074-0.882,0.144-1.319c0.073-0.474,0.171-0.945,0.294-1.41
						c0.474-1.84,1.287-3.605,2.467-5.116c0.238-0.305,0.491-0.6,0.758-0.881c0.519-0.552,1.095-1.055,1.715-1.5
						c0.608-0.437,1.26-0.818,1.937-1.137c1.285-0.604,2.667-0.99,4.074-1.188c0.55-0.078,1.101-0.126,1.655-0.151
						c0.288-0.013,0.576-0.018,0.859-0.02h0.856l0,0c0.955,0,1.913-0.003,2.871,0.001c0.288,0.003,0.575,0.01,0.863,0.026
						c0.597,0.031,1.189,0.09,1.779,0.183c1.428,0.226,2.832,0.649,4.119,1.301c0.758,0.383,1.478,0.843,2.137,1.373
						c0.607,0.487,1.161,1.031,1.663,1.623c0.435,0.517,0.828,1.068,1.176,1.646c0.698,1.158,1.214,2.417,1.561,3.717
						c0.141,0.536,0.256,1.079,0.341,1.626c0.07,0.459,0.119,0.921,0.132,1.385v10.933h-3.156l0,0h-21.937v5.872
						c0.021,0.314,0.067,0.628,0.126,0.938c0.092,0.466,0.217,0.925,0.379,1.372c0.232,0.642,0.537,1.26,0.937,1.819
						c0.268,0.377,0.579,0.727,0.926,1.034c0.271,0.237,0.565,0.448,0.877,0.632c0.315,0.188,0.652,0.344,0.997,0.473
						c0.638,0.238,1.309,0.382,1.985,0.461c0.327,0.037,0.656,0.06,0.986,0.07c0.246,0.007,0.491,0.006,0.737,0.005
						c0.263-0.002,0.526-0.007,0.792-0.012c0.643-0.014,1.285-0.042,1.923-0.081c0.955-0.062,1.909-0.151,2.856-0.273
						c1.144-0.148,2.281-0.346,3.403-0.604c1.042-0.241,2.073-0.531,3.08-0.896c0.344-0.125,0.685-0.259,1.021-0.406
						c0.137-0.06,0.271-0.121,0.404-0.184c0.053-0.026,0.109-0.053,0.162-0.08V243.842z M391.364,243.842
						c-0.301,0.102-0.604,0.198-0.908,0.291c-1.091,0.331-2.2,0.604-3.317,0.831c-1.203,0.244-2.417,0.434-3.635,0.575
						c-1.484,0.174-2.977,0.276-4.471,0.32c-0.379,0.011-0.759,0.018-1.138,0.022c-0.319,0.003-0.638,0.004-0.957-0.002
						c-0.47-0.011-0.94-0.039-1.409-0.085c-0.957-0.096-1.907-0.271-2.829-0.542c-1.062-0.312-2.085-0.75-3.031-1.318
						c-0.647-0.389-1.257-0.837-1.818-1.338c-0.728-0.651-1.373-1.387-1.923-2.187c-0.701-1.016-1.25-2.127-1.655-3.287
						c-0.268-0.765-0.474-1.55-0.617-2.348c-0.105-0.584-0.179-1.178-0.2-1.771v-6.824l0,0v-10.099
						c0.003-0.079,0.002-0.079,0.006-0.159c0.023-0.441,0.074-0.881,0.144-1.318c0.076-0.474,0.173-0.946,0.294-1.411
						c0.474-1.84,1.288-3.605,2.467-5.116c0.238-0.305,0.491-0.6,0.758-0.881c0.521-0.552,1.097-1.055,1.716-1.5
						c0.609-0.437,1.259-0.818,1.938-1.137c1.284-0.604,2.667-0.99,4.074-1.188c0.548-0.078,1.101-0.126,1.654-0.151
						c0.288-0.013,0.575-0.018,0.862-0.02h0.852l0,0c0.958,0,1.915-0.003,2.873,0.001c0.288,0.003,0.576,0.01,0.863,0.026
						c0.595,0.031,1.189,0.09,1.776,0.183c1.431,0.226,2.833,0.649,4.123,1.301c0.758,0.383,1.477,0.843,2.137,1.374
						c0.581,0.466,1.116,0.985,1.6,1.548c0.46,0.538,0.874,1.115,1.238,1.72c0.676,1.121,1.18,2.337,1.526,3.593
						c0.15,0.545,0.27,1.1,0.359,1.658c0.078,0.49,0.133,0.982,0.15,1.478v10.933h-3.158l0,0h-21.937v5.872
						c0.02,0.314,0.066,0.628,0.127,0.938c0.09,0.465,0.215,0.925,0.376,1.372c0.232,0.642,0.539,1.26,0.937,1.819
						c0.268,0.377,0.579,0.727,0.928,1.034c0.271,0.237,0.564,0.448,0.875,0.632c0.299,0.175,0.615,0.326,0.94,0.451
						c0.654,0.251,1.346,0.402,2.041,0.482c0.328,0.037,0.657,0.06,0.986,0.07c0.247,0.007,0.492,0.006,0.738,0.005
						c0.264-0.002,0.527-0.007,0.791-0.012c0.574-0.013,1.147-0.035,1.719-0.069c1.023-0.059,2.045-0.153,3.062-0.285
						c1.143-0.148,2.28-0.346,3.403-0.604c1.042-0.241,2.075-0.531,3.079-0.896c0.346-0.126,0.688-0.259,1.023-0.406
						c0.135-0.06,0.271-0.121,0.403-0.184c0.054-0.026,0.108-0.053,0.162-0.08V243.842z M104.313,205.355
						c0.965-0.339,1.95-0.626,2.943-0.873c1.331-0.331,2.679-0.587,4.037-0.782c1.683-0.243,3.379-0.388,5.079-0.458
						c0.671-0.027,1.342-0.041,2.014-0.044c0.136,0,0.271-0.001,0.406,0c0.289,0.003,0.576,0.01,0.864,0.026
						c0.595,0.031,1.189,0.09,1.777,0.184c1.431,0.226,2.832,0.649,4.122,1.301c0.759,0.383,1.476,0.843,2.136,1.373
						c0.555,0.446,1.069,0.941,1.536,1.476c0.449,0.515,0.854,1.065,1.212,1.644c0.743,1.198,1.289,2.51,1.65,3.867
						c0.143,0.536,0.257,1.078,0.34,1.626c0.07,0.459,0.12,0.922,0.136,1.386v10.097l0,0v19.27h-6.316v-1.455
						c-0.26,0.154-0.526,0.298-0.798,0.43c-1.301,0.643-2.712,1.055-4.15,1.27c-0.592,0.089-1.189,0.143-1.787,0.171
						c-0.288,0.012-0.574,0.018-0.862,0.019H117.8l0,0h-2.731c-0.288-0.001-0.575-0.006-0.862-0.019
						c-0.598-0.028-1.195-0.083-1.786-0.171c-1.439-0.215-2.85-0.627-4.151-1.27c-0.765-0.375-1.489-0.832-2.157-1.358
						c-0.562-0.443-1.081-0.935-1.554-1.468c-0.474-0.536-0.9-1.111-1.276-1.717c-0.744-1.198-1.289-2.512-1.651-3.867
						c-0.142-0.536-0.256-1.079-0.34-1.626c-0.07-0.46-0.12-0.923-0.136-1.387v-1.666c0.006-0.377,0.044-0.752,0.099-1.124
						c0.074-0.494,0.182-0.984,0.32-1.465c0.288-0.999,0.708-1.961,1.25-2.853c0.42-0.688,0.913-1.333,1.469-1.919
						c0.792-0.837,1.712-1.555,2.714-2.136c1.269-0.736,2.661-1.254,4.092-1.591c0.565-0.132,1.137-0.237,1.711-0.318
						c0.26-0.036,0.52-0.066,0.78-0.095c0.343-0.034,0.686-0.066,1.029-0.1c0.848-0.082,1.696-0.164,2.544-0.247
						c3.029-0.297,6.058-0.597,9.085-0.906v-2.383c-0.02-0.315-0.066-0.629-0.126-0.938c-0.09-0.465-0.215-0.924-0.376-1.37
						c-0.231-0.643-0.539-1.262-0.937-1.82c-0.268-0.377-0.578-0.728-0.928-1.035c-0.271-0.237-0.564-0.448-0.875-0.631
						c-0.3-0.177-0.615-0.326-0.94-0.451c-0.654-0.251-1.345-0.402-2.042-0.483c-0.328-0.037-0.657-0.06-0.986-0.07
						c-0.246-0.007-0.492-0.006-0.738-0.004c-0.264,0.002-0.527,0.005-0.791,0.011c-0.642,0.014-1.284,0.042-1.925,0.081
						c-0.955,0.061-1.907,0.149-2.855,0.273c-1.143,0.149-2.28,0.347-3.402,0.605c-1.043,0.239-2.076,0.53-3.081,0.895
						c-0.345,0.125-0.687,0.258-1.023,0.406c-0.136,0.059-0.271,0.12-0.403,0.185c-0.088,0.042-0.176,0.086-0.26,0.133l0.002-0.002
						l-0.249-0.417V205.355z M180.525,245.47h-30.961v-6.194h10.167v-29.541h-10.167v-6.194h16.482v5.701
						c0.313-0.396,0.64-0.783,0.981-1.157c1.173-1.286,2.532-2.433,4.102-3.227c0.792-0.4,1.626-0.716,2.479-0.963
						c1.099-0.319,2.229-0.527,3.368-0.654c0.464-0.052,0.929-0.091,1.396-0.118c0.447-0.026,0.895-0.041,1.342-0.046
						c0.192-0.002,0.383-0.003,0.575-0.002c1.197,0.01,2.394,0.076,3.583,0.203c0.325,0.036,0.649,0.073,0.973,0.117v6.268
						c-0.055-0.01-0.111-0.019-0.166-0.028c-0.669-0.108-1.341-0.188-2.016-0.248c-0.764-0.067-1.529-0.108-2.296-0.115
						c-0.658-0.006-1.317,0.011-1.974,0.061c-0.596,0.044-1.19,0.114-1.778,0.222c-0.459,0.083-0.916,0.189-1.362,0.326
						c-0.395,0.122-0.783,0.267-1.154,0.449c-0.49,0.239-0.937,0.552-1.352,0.902c-0.435,0.368-0.834,0.776-1.208,1.203
						c-0.635,0.726-1.199,1.511-1.717,2.321c-0.599,0.936-1.136,1.909-1.63,2.901c-0.511,1.025-0.976,2.072-1.401,3.132
						c-0.172,0.431-0.337,0.863-0.496,1.298c-0.086,0.235-0.169,0.471-0.25,0.708v16.483h14.479V245.47z M117.8,239.687
						L117.8,239.687c0.315,0.001,0.631,0.001,0.946,0c0.222-0.002,0.443-0.01,0.666-0.022c1.005-0.061,2.013-0.249,2.937-0.652
						c0.308-0.134,0.605-0.293,0.885-0.476c0.297-0.193,0.574-0.415,0.829-0.658c0.839-0.803,1.411-1.842,1.767-2.929
						c0.055-0.167,0.104-0.335,0.15-0.504c0.071-0.267,0.131-0.537,0.178-0.809c0.041-0.241,0.074-0.483,0.091-0.726l0.001-0.029
						v-8.074c-0.189,0.019-0.379,0.039-0.568,0.058c-2.104,0.212-4.208,0.422-6.313,0.629c-1.084,0.106-2.168,0.213-3.253,0.318
						c-0.623,0.061-1.246,0.12-1.867,0.181c-0.092,0.01-0.184,0.02-0.276,0.031c-0.26,0.032-0.518,0.069-0.775,0.115
						c-0.184,0.034-0.368,0.071-0.55,0.112c-0.147,0.033-0.292,0.07-0.438,0.108c-1.053,0.287-2.076,0.744-2.9,1.458
						c-0.156,0.135-0.304,0.277-0.442,0.429c-0.21,0.228-0.399,0.474-0.565,0.735c-0.226,0.354-0.408,0.733-0.547,1.129
						c-0.089,0.253-0.161,0.513-0.212,0.776c-0.034,0.169-0.06,0.342-0.07,0.515l0,0.001v1.479c0.004,0.062,0.009,0.125,0.015,0.188
						c0.045,0.439,0.126,0.875,0.236,1.302c0.047,0.182,0.1,0.362,0.157,0.542c0.075,0.231,0.16,0.46,0.254,0.687
						c0.343,0.816,0.82,1.583,1.456,2.211c0.164,0.163,0.338,0.314,0.52,0.457c0.484,0.375,1.029,0.668,1.605,0.883
						c0.829,0.31,1.712,0.461,2.595,0.515c0.257,0.015,0.514,0.022,0.771,0.022h1.191l0,0h0.008H117.8z M221.904,217.014
						c-0.347-0.727-0.758-1.425-1.217-2.088c-1.124-1.624-2.56-3.066-4.293-4.062c-0.282-0.162-0.572-0.312-0.868-0.449
						c-0.524-0.243-1.069-0.444-1.626-0.6c-0.579-0.162-1.171-0.276-1.768-0.345c-0.472-0.053-0.946-0.079-1.42-0.079
						c-0.227,0-0.453,0.006-0.679,0.017c-0.181,0.009-0.362,0.021-0.542,0.04c-1.162,0.11-2.326,0.401-3.328,1.003
						c-0.175,0.104-0.345,0.219-0.508,0.342c-0.253,0.191-0.49,0.404-0.707,0.635c-0.592,0.63-1.031,1.387-1.337,2.187
						c-0.142,0.369-0.254,0.748-0.341,1.132c-0.074,0.326-0.129,0.654-0.158,0.986l-0.003,0.039l-0.001,0.019v17.086
						c0.018,0.269,0.059,0.535,0.111,0.8c0.081,0.415,0.193,0.826,0.337,1.225c0.266,0.742,0.644,1.45,1.151,2.062
						c0.227,0.276,0.48,0.53,0.757,0.759c0.179,0.147,0.369,0.286,0.565,0.412c0.135,0.086,0.274,0.166,0.417,0.241
						c1.015,0.537,2.167,0.783,3.311,0.866c0.219,0.017,0.438,0.026,0.658,0.031c0.42,0.008,0.84-0.001,1.259-0.033
						c0.587-0.044,1.171-0.131,1.744-0.263c0.651-0.152,1.288-0.362,1.898-0.628c0.323-0.143,0.64-0.299,0.948-0.471
						c1.791-0.997,3.272-2.471,4.422-4.135c0.348-0.503,0.667-1.026,0.954-1.565c0.091-0.172,0.18-0.346,0.263-0.522V217.014z
						 M472.028,209.392L472.028,209.392h-0.025h-1.502v-0.001c-0.315,0-0.631,0.001-0.947,0.001
						c-0.099,0.001-0.099,0.001-0.196,0.003c-0.246,0.006-0.491,0.018-0.737,0.039c-0.938,0.078-1.871,0.273-2.723,0.656
						c-0.305,0.136-0.6,0.297-0.877,0.481c-0.291,0.195-0.565,0.417-0.817,0.662c-0.821,0.799-1.383,1.823-1.733,2.896
						c-0.056,0.167-0.105,0.334-0.15,0.503c-0.071,0.268-0.13,0.538-0.175,0.81c-0.043,0.241-0.074,0.482-0.091,0.725l-0.004,0.03
						v4.619h18.778v-4.619c-0.014-0.234-0.045-0.466-0.08-0.697c-0.06-0.343-0.137-0.683-0.232-1.019
						c-0.336-1.187-0.916-2.333-1.803-3.214c-0.165-0.162-0.34-0.314-0.522-0.456c-0.373-0.287-0.779-0.527-1.207-0.721
						c-0.966-0.433-2.028-0.626-3.084-0.681c-0.226-0.012-0.453-0.017-0.678-0.018H472.028z M379.75,209.392L379.75,209.392h-0.023
						h-1.505v-0.001c-0.315,0-0.63,0.001-0.946,0.001c-0.098,0.001-0.098,0.001-0.196,0.003c-0.246,0.006-0.492,0.018-0.738,0.039
						c-0.934,0.078-1.867,0.273-2.722,0.656c-0.612,0.274-1.177,0.647-1.66,1.109c-0.839,0.804-1.41,1.842-1.768,2.93
						c-0.054,0.167-0.104,0.334-0.149,0.503c-0.07,0.268-0.13,0.538-0.178,0.81c-0.041,0.241-0.073,0.482-0.091,0.725l-0.002,0.03
						v4.619h18.779v-4.619c-0.015-0.234-0.045-0.466-0.084-0.697c-0.056-0.343-0.134-0.683-0.229-1.019
						c-0.337-1.187-0.915-2.333-1.805-3.214c-0.165-0.162-0.338-0.314-0.521-0.456c-0.372-0.287-0.779-0.527-1.209-0.721
						c-0.966-0.433-2.028-0.626-3.083-0.681c-0.226-0.012-0.453-0.017-0.679-0.018H379.75z"/>
				</g>
			</g>
		</g>
	</g>
</g>
</svg>
