<?xml version="1.0" encoding="utf-8"?>
<!-- Generator: Adobe Illustrator 16.0.4, SVG Export Plug-In . SVG Version: 6.00 Build 0)  -->
<!DOCTYPE svg PUBLIC "-//W3C//DTD SVG 1.1//EN" "http://www.w3.org/Graphics/SVG/1.1/DTD/svg11.dtd">
<svg version="1.1" id="Layer_1" xmlns="http://www.w3.org/2000/svg" xmlns:xlink="http://www.w3.org/1999/xlink" x="0px" y="0px"
	 width="250px" height="55px" viewBox="-2.414 176.074 250 55" enable-background="new -2.414 176.074 250 55" xml:space="preserve"
	>
<g transform="matrix(1,0,0,1,-1495,-952)">
	<g id="Artboard5" transform="matrix(1,0,0,1,-2975.39,952.168)">
		<g>
			<g>
				<g transform="matrix(1,0,0,1,-155.008,-316.204)">
					<g transform="matrix(0.587317,0,0,0.587317,1970.34,196.07)">
						<g transform="matrix(1.3832,0,0,1.3832,3755.56,-6.85642)">
							<path d="M585.168,385.972c0.314,0.002,0.626,0.011,0.938,0.029c0.597,0.034,1.191,0.099,1.781,0.195
								c1.463,0.238,2.893,0.667,4.245,1.273c1.763,0.792,3.39,1.884,4.793,3.213c1.425,1.352,2.618,2.946,3.509,4.697
								c0.733,1.441,1.259,2.985,1.559,4.574c0.348,1.842,0.391,3.742,0.131,5.598c-0.121,0.863-0.308,1.718-0.56,2.553
								c-0.257,0.853-0.581,1.688-0.969,2.491c-0.442,0.917-0.968,1.796-1.566,2.622c-0.605,0.834-1.286,1.616-2.03,2.33
								c-0.77,0.738-1.607,1.405-2.5,1.99c-0.885,0.577-1.822,1.076-2.798,1.482c-1.075,0.446-2.194,0.783-3.337,1.001
								c-1.07,0.206-2.16,0.308-3.25,0.308c-1.09,0-2.18-0.102-3.25-0.308c-1.143-0.219-2.264-0.555-3.337-1.001
								c-0.977-0.406-1.914-0.904-2.799-1.482c-0.893-0.584-1.73-1.251-2.5-1.99c-0.745-0.714-1.424-1.495-2.03-2.33
								c-0.599-0.826-1.124-1.705-1.566-2.622c-0.387-0.804-0.712-1.637-0.968-2.491c-0.252-0.835-0.439-1.69-0.56-2.553
								c-0.261-1.856-0.217-3.757,0.13-5.598c0.299-1.589,0.826-3.133,1.559-4.574c0.891-1.75,2.084-3.344,3.51-4.697
								c1.403-1.33,3.029-2.421,4.793-3.213c1.352-0.606,2.782-1.035,4.245-1.273c0.59-0.095,1.184-0.161,1.781-0.195
								c0.312-0.018,0.625-0.026,0.938-0.029C585.094,385.972,585.131,385.972,585.168,385.972z M585.082,393.597
								c-0.528,0.002-1.056,0.046-1.577,0.135c-0.789,0.132-1.559,0.367-2.288,0.694c-0.869,0.389-1.678,0.91-2.392,1.539
								c-0.824,0.722-1.524,1.584-2.059,2.541c-0.435,0.777-0.76,1.616-0.96,2.484c-0.159,0.688-0.24,1.392-0.244,2.098
								c-0.003,0.47,0.028,0.941,0.093,1.406c0.132,0.938,0.405,1.854,0.808,2.712c0.496,1.052,1.187,2.011,2.023,2.819
								c0.851,0.821,1.853,1.485,2.943,1.941c0.593,0.249,1.212,0.438,1.843,0.561c0.596,0.115,1.203,0.174,1.811,0.177
								c0.599,0.001,1.197-0.052,1.786-0.161c0.642-0.119,1.272-0.305,1.875-0.553c1.095-0.452,2.101-1.11,2.957-1.927
								c0.841-0.802,1.537-1.756,2.039-2.806c0.408-0.853,0.687-1.768,0.825-2.705c0.068-0.464,0.102-0.933,0.102-1.402
								c0-0.716-0.079-1.433-0.238-2.133c-0.204-0.897-0.541-1.763-0.995-2.563c-0.503-0.886-1.147-1.691-1.901-2.375
								c-0.725-0.66-1.551-1.208-2.443-1.618c-0.743-0.341-1.531-0.585-2.338-0.725c-0.51-0.088-1.027-0.133-1.544-0.139
								C585.165,393.597,585.123,393.597,585.082,393.597z"/>
						</g>
						<g transform="matrix(0.47507,0,0,0.872567,4220.76,155.101)">
							<path d="M647.437,436.289c0.313,0,0.626,0.01,0.938,0.029c0.597,0.032,1.192,0.097,1.781,0.192
								c1.463,0.238,2.893,0.669,4.244,1.275c1.764,0.791,3.39,1.883,4.793,3.213c1.426,1.351,2.62,2.944,3.509,4.697
								c0.733,1.439,1.26,2.984,1.559,4.573c0.347,1.841,0.392,3.741,0.131,5.597c-0.121,0.865-0.308,1.719-0.56,2.553
								c-0.257,0.854-0.581,1.686-0.97,2.491c-0.443,0.919-0.968,1.797-1.564,2.622c-0.606,0.837-1.286,1.616-2.03,2.331
								c-0.772,0.737-1.608,1.404-2.501,1.988c-0.885,0.579-1.823,1.077-2.8,1.483c-1.075,0.448-2.193,0.785-3.336,1.002
								c-1.071,0.206-2.161,0.309-3.25,0.309c-1.09,0-2.181-0.103-3.252-0.309c-1.141-0.217-2.263-0.555-3.336-1.002
								c-0.977-0.406-1.914-0.903-2.8-1.483c-0.893-0.583-1.731-1.25-2.499-1.988c-0.746-0.715-1.426-1.494-2.03-2.331
								c-0.599-0.825-1.125-1.704-1.566-2.622c-0.389-0.804-0.712-1.637-0.97-2.491c-0.252-0.835-0.438-1.688-0.56-2.553
								c-0.259-1.856-0.215-3.756,0.131-5.597c0.299-1.589,0.826-3.135,1.559-4.573c0.891-1.753,2.083-3.346,3.509-4.697
								c1.404-1.33,3.029-2.422,4.793-3.213c1.351-0.608,2.783-1.037,4.244-1.275c0.59-0.095,1.185-0.16,1.781-0.192
								c0.313-0.019,0.625-0.029,0.938-0.029C647.363,436.289,647.4,436.289,647.437,436.289z M644.101,443.913
								c-0.529,0.002-1.057,0.046-1.579,0.133c-0.787,0.133-1.557,0.368-2.287,0.694c-0.868,0.391-1.678,0.911-2.392,1.54
								c-0.824,0.722-1.524,1.584-2.058,2.54c-0.436,0.777-0.761,1.616-0.961,2.483c-0.159,0.688-0.24,1.393-0.245,2.1
								c-0.002,0.469,0.028,0.939,0.093,1.404c0.131,0.939,0.404,1.856,0.809,2.712c0.495,1.054,1.185,2.01,2.023,2.818
								c0.85,0.823,1.853,1.486,2.943,1.944c0.593,0.248,1.211,0.436,1.843,0.56c0.597,0.116,1.204,0.173,1.811,0.177
								c0.599,0,1.197-0.051,1.787-0.162c0.642-0.118,1.271-0.305,1.874-0.553c1.094-0.452,2.102-1.109,2.958-1.925
								c0.842-0.804,1.536-1.757,2.039-2.807c0.409-0.856,0.688-1.768,0.824-2.706c0.068-0.463,0.102-0.932,0.102-1.401
								c0-0.718-0.079-1.433-0.238-2.132c-0.203-0.898-0.541-1.763-0.994-2.563c-0.502-0.886-1.148-1.69-1.902-2.376
								c-0.724-0.659-1.55-1.208-2.441-1.616c-0.744-0.343-1.533-0.589-2.338-0.726c-0.511-0.088-1.027-0.133-1.545-0.139
								C644.185,443.913,644.143,443.913,644.101,443.913z"/>
						</g>
						<g transform="matrix(-0.47507,2.69153e-16,-4.94356e-16,-0.872567,5274.86,709.613)">
							<path d="M1417.515,164.626c0.313,0.002,0.626,0.011,0.938,0.029c0.599,0.034,1.192,0.099,1.781,0.194
								c1.463,0.238,2.893,0.669,4.245,1.275c1.762,0.791,3.39,1.883,4.792,3.213c1.426,1.351,2.618,2.944,3.511,4.697
								c0.731,1.439,1.258,2.984,1.557,4.572c0.348,1.843,0.392,3.743,0.131,5.599c-0.121,0.865-0.308,1.719-0.56,2.553
								c-0.257,0.854-0.581,1.686-0.968,2.491c-0.443,0.918-0.968,1.797-1.566,2.624c-0.606,0.833-1.286,1.614-2.03,2.329
								c-0.77,0.737-1.608,1.404-2.501,1.988c-0.884,0.579-1.824,1.077-2.8,1.483c-1.073,0.448-2.193,0.785-3.336,1.002
								c-1.071,0.206-2.159,0.309-3.251,0.309c-1.089,0-2.179-0.103-3.25-0.309c-1.143-0.217-2.261-0.555-3.336-1.002
								c-0.976-0.406-1.914-0.903-2.8-1.483c-0.893-0.583-1.731-1.25-2.501-1.988c-0.744-0.715-1.423-1.496-2.028-2.329
								c-0.6-0.827-1.124-1.706-1.566-2.624c-0.388-0.804-0.712-1.637-0.969-2.491c-0.252-0.835-0.439-1.688-0.56-2.553
								c-0.261-1.856-0.215-3.756,0.131-5.599c0.299-1.587,0.826-3.133,1.559-4.572c0.889-1.753,2.083-3.346,3.509-4.697
								c1.403-1.33,3.027-2.422,4.793-3.213c1.351-0.606,2.781-1.037,4.244-1.275c0.59-0.095,1.187-0.16,1.781-0.194
								c0.313-0.017,0.625-0.027,0.938-0.029C1417.442,164.626,1417.48,164.626,1417.515,164.626z M1414.18,172.25
								c-0.528,0.004-1.057,0.048-1.577,0.135c-0.789,0.133-1.559,0.366-2.289,0.694c-0.868,0.391-1.677,0.913-2.392,1.54
								c-0.824,0.722-1.524,1.584-2.058,2.538c-0.436,0.779-0.761,1.618-0.961,2.485c-0.159,0.688-0.24,1.393-0.245,2.098
								c-0.002,0.471,0.028,0.941,0.093,1.406c0.133,0.939,0.404,1.856,0.809,2.712c0.495,1.054,1.187,2.012,2.023,2.82
								c0.851,0.821,1.853,1.484,2.944,1.942c0.593,0.248,1.211,0.434,1.843,0.56c0.595,0.116,1.204,0.173,1.811,0.177
								c0.599,0,1.197-0.051,1.787-0.16c0.642-0.12,1.272-0.307,1.874-0.555c1.096-0.454,2.102-1.109,2.958-1.925
								c0.842-0.804,1.536-1.759,2.041-2.807c0.408-0.856,0.686-1.768,0.824-2.704c0.067-0.465,0.1-0.936,0.1-1.404
								c0-0.716-0.077-1.433-0.236-2.13c-0.205-0.898-0.542-1.765-0.996-2.565c-0.502-0.884-1.148-1.69-1.901-2.374
								c-0.726-0.659-1.552-1.208-2.443-1.618c-0.745-0.343-1.531-0.587-2.34-0.724c-0.507-0.09-1.026-0.133-1.543-0.139
								C1414.262,172.25,1414.222,172.25,1414.18,172.25z"/>
						</g>
						<g transform="matrix(1.34576e-16,0.47507,-0.872567,2.47178e-16,5025.06,-94.691)">
							<path d="M1281.956,510.087c0.312,0.002,0.626,0.01,0.938,0.028c0.595,0.034,1.193,0.1,1.781,0.195
								c1.463,0.238,2.891,0.667,4.246,1.274c1.76,0.792,3.388,1.883,4.792,3.213c1.428,1.351,2.621,2.946,3.51,4.697
								c0.731,1.44,1.26,2.985,1.557,4.572c0.347,1.843,0.392,3.743,0.13,5.599c-0.119,0.864-0.305,1.718-0.557,2.553
								c-0.259,0.854-0.581,1.686-0.969,2.491c-0.444,0.918-0.969,1.797-1.564,2.622c-0.609,0.835-1.288,1.616-2.033,2.33
								c-0.77,0.738-1.607,1.405-2.499,1.989c-0.885,0.578-1.823,1.076-2.8,1.483c-1.074,0.447-2.191,0.783-3.335,1.002
								c-1.071,0.205-2.16,0.308-3.248,0.308c-1.095,0-2.181-0.103-3.255-0.308c-1.141-0.219-2.261-0.555-3.335-1.002
								c-0.973-0.407-1.915-0.904-2.8-1.483c-0.889-0.583-1.729-1.25-2.499-1.989c-0.742-0.714-1.424-1.495-2.03-2.33
								c-0.598-0.825-1.123-1.705-1.564-2.622c-0.388-0.803-0.714-1.637-0.969-2.491c-0.252-0.836-0.441-1.689-0.56-2.553
								c-0.259-1.856-0.217-3.756,0.133-5.599c0.297-1.587,0.826-3.133,1.557-4.572c0.892-1.751,2.083-3.346,3.507-4.697
								c1.404-1.33,3.031-2.421,4.795-3.213c1.351-0.607,2.782-1.036,4.245-1.274c0.588-0.095,1.183-0.161,1.782-0.195
								c0.311-0.017,0.623-0.026,0.934-0.028C1281.882,510.087,1281.921,510.087,1281.956,510.087z M1278.62,517.711
								c-0.529,0.003-1.057,0.047-1.579,0.135c-0.787,0.132-1.557,0.366-2.289,0.694c-0.868,0.39-1.677,0.911-2.39,1.539
								c-0.823,0.721-1.526,1.584-2.062,2.54c-0.431,0.777-0.756,1.616-0.959,2.484c-0.158,0.688-0.238,1.392-0.242,2.098
								c-0.004,0.471,0.025,0.94,0.091,1.406c0.133,0.938,0.406,1.855,0.809,2.712c0.493,1.053,1.187,2.011,2.023,2.819
								c0.851,0.821,1.852,1.484,2.94,1.942c0.595,0.249,1.214,0.437,1.844,0.56c0.599,0.116,1.204,0.174,1.813,0.177
								c0.598,0.001,1.197-0.051,1.785-0.161c0.644-0.118,1.271-0.305,1.876-0.555c1.095-0.451,2.1-1.107,2.958-1.924
								c0.84-0.803,1.537-1.757,2.037-2.807c0.409-0.854,0.689-1.768,0.826-2.705c0.07-0.464,0.102-0.933,0.102-1.403
								c0-0.716-0.077-1.432-0.238-2.131c-0.203-0.898-0.542-1.764-0.994-2.564c-0.504-0.886-1.148-1.69-1.901-2.375
								c-0.724-0.659-1.551-1.207-2.443-1.617c-0.742-0.342-1.533-0.586-2.338-0.725c-0.511-0.089-1.029-0.133-1.543-0.139
								C1278.704,517.711,1278.662,517.711,1278.62,517.711z"/>
						</g>
						<g transform="matrix(-4.03729e-16,-0.47507,0.872567,-7.41534e-16,4470.55,959.405)">
							<path d="M782.992,90.826c0.311,0.001,0.626,0.01,0.938,0.028c0.595,0.034,1.19,0.099,1.781,0.195
								c1.46,0.238,2.891,0.667,4.242,1.273c1.764,0.792,3.392,1.884,4.795,3.214c1.428,1.351,2.618,2.945,3.51,4.696
								c0.732,1.441,1.26,2.985,1.557,4.573c0.347,1.843,0.392,3.742,0.133,5.599c-0.123,0.863-0.312,1.718-0.564,2.553
								c-0.255,0.854-0.581,1.686-0.966,2.49c-0.445,0.918-0.969,1.797-1.568,2.623c-0.606,0.835-1.284,1.615-2.03,2.329
								c-0.77,0.738-1.607,1.405-2.499,1.989c-0.885,0.578-1.823,1.076-2.8,1.482c-1.075,0.447-2.195,0.783-3.339,1.002
								c-1.068,0.206-2.16,0.308-3.248,0.308c-1.092,0-2.18-0.102-3.252-0.308c-1.141-0.219-2.261-0.555-3.336-1.002
								c-0.977-0.406-1.914-0.903-2.8-1.482c-0.893-0.584-1.729-1.251-2.499-1.989c-0.745-0.714-1.424-1.494-2.03-2.329
								c-0.598-0.826-1.123-1.705-1.568-2.623c-0.385-0.803-0.711-1.636-0.969-2.49c-0.249-0.836-0.438-1.69-0.557-2.553
								c-0.263-1.857-0.217-3.756,0.13-5.599c0.301-1.588,0.826-3.133,1.561-4.573c0.889-1.751,2.083-3.345,3.507-4.696
								c1.404-1.33,3.028-2.422,4.795-3.214c1.351-0.606,2.779-1.035,4.242-1.273c0.591-0.096,1.183-0.161,1.781-0.195
								c0.312-0.018,0.623-0.027,0.938-0.028C782.919,90.826,782.957,90.826,782.992,90.826z M779.657,98.45
								c-0.529,0.002-1.057,0.046-1.579,0.134c-0.787,0.133-1.557,0.367-2.289,0.695c-0.868,0.39-1.677,0.911-2.394,1.538
								c-0.819,0.722-1.523,1.584-2.055,2.541c-0.434,0.777-0.76,1.616-0.963,2.483c-0.158,0.689-0.242,1.393-0.245,2.098
								c0,0.471,0.028,0.941,0.094,1.406c0.133,0.939,0.406,1.855,0.809,2.713c0.493,1.052,1.186,2.01,2.023,2.818
								c0.85,0.821,1.852,1.485,2.943,1.942c0.591,0.25,1.211,0.437,1.841,0.561c0.595,0.115,1.204,0.174,1.813,0.176
								c0.598,0.002,1.197-0.051,1.785-0.16c0.644-0.119,1.271-0.305,1.876-0.555c1.095-0.451,2.1-1.108,2.958-1.925
								c0.84-0.802,1.536-1.757,2.037-2.806c0.409-0.854,0.69-1.769,0.826-2.705c0.067-0.465,0.102-0.933,0.102-1.403
								c0-0.716-0.077-1.433-0.238-2.131c-0.203-0.898-0.543-1.764-0.997-2.564c-0.501-0.886-1.145-1.69-1.901-2.375
								c-0.725-0.659-1.551-1.207-2.44-1.617c-0.742-0.342-1.533-0.586-2.338-0.726c-0.511-0.088-1.029-0.133-1.547-0.138
								C779.737,98.45,779.695,98.45,779.657,98.45z"/>
						</g>
						<g transform="matrix(0.20922,0.20922,-0.481024,0.481024,4606.76,-13.0992)">
							<path d="M1113.415,612.718c0.318,0.004,0.626,0.011,0.942,0.029c0.596,0.035,1.188,0.099,1.778,0.194
								c1.462,0.239,2.893,0.667,4.242,1.273c1.766,0.791,3.394,1.884,4.794,3.214c1.429,1.352,2.621,2.946,3.513,4.698
								c0.733,1.441,1.26,2.985,1.56,4.572c0.344,1.842,0.387,3.741,0.129,5.599c-0.123,0.862-0.308,1.717-0.56,2.553
								c-0.254,0.854-0.58,1.687-0.97,2.489c-0.439,0.92-0.964,1.798-1.566,2.624c-0.602,0.836-1.284,1.616-2.027,2.33
								c-0.773,0.737-1.609,1.405-2.5,1.989c-0.89,0.577-1.826,1.074-2.801,1.481c-1.075,0.447-2.193,0.785-3.338,1.002
								c-1.069,0.206-2.16,0.307-3.251,0.308c-1.089,0-2.179-0.103-3.25-0.308c-1.142-0.219-2.261-0.555-3.336-1.003
								c-0.978-0.404-1.913-0.903-2.801-1.481c-0.89-0.584-1.729-1.25-2.496-1.988c-0.747-0.716-1.43-1.497-2.032-2.331
								c-0.598-0.825-1.123-1.703-1.568-2.623c-0.387-0.803-0.711-1.637-0.968-2.49c-0.254-0.836-0.439-1.689-0.56-2.553
								c-0.26-1.857-0.217-3.757,0.131-5.598c0.3-1.589,0.828-3.133,1.56-4.574c0.888-1.752,2.082-3.346,3.509-4.696
								c1.399-1.331,3.028-2.423,4.792-3.215c1.353-0.606,2.784-1.034,4.246-1.273c0.588-0.097,1.182-0.162,1.782-0.194
								c0.31-0.017,0.626-0.027,0.938-0.028C1113.343,612.718,1113.381,612.719,1113.415,612.718z M1109.383,620.345
								c-0.529,0.002-1.057,0.045-1.578,0.133c-0.791,0.133-1.56,0.367-2.289,0.695c-0.866,0.391-1.673,0.911-2.392,1.538
								c-0.825,0.722-1.522,1.585-2.058,2.541c-0.437,0.778-0.759,1.616-0.96,2.485c-0.159,0.688-0.242,1.391-0.244,2.097
								c-0.006,0.469,0.024,0.94,0.091,1.405c0.131,0.938,0.405,1.856,0.807,2.712c0.501,1.054,1.188,2.013,2.027,2.821
								c0.848,0.82,1.85,1.484,2.943,1.942c0.59,0.248,1.212,0.437,1.844,0.56c0.594,0.115,1.204,0.175,1.812,0.176
								c0.598,0.003,1.198-0.051,1.784-0.161c0.64-0.119,1.272-0.304,1.878-0.554c1.093-0.451,2.096-1.109,2.954-1.925
								c0.838-0.804,1.538-1.758,2.041-2.806c0.407-0.855,0.688-1.768,0.823-2.705c0.068-0.465,0.103-0.933,0.101-1.403
								c0.002-0.716-0.079-1.435-0.238-2.133c-0.203-0.897-0.54-1.763-0.995-2.564c-0.501-0.885-1.146-1.689-1.895-2.373
								c-0.729-0.661-1.554-1.208-2.448-1.618c-0.741-0.341-1.532-0.589-2.336-0.726c-0.513-0.088-1.023-0.132-1.548-0.139
								C1109.465,620.344,1109.425,620.344,1109.383,620.345z"/>
						</g>
						<g transform="matrix(-0.20922,0.20922,-0.481024,-0.481024,5192.76,290.8)">
							<path d="M1987.716,365.481c0.312,0.001,0.626,0.009,0.938,0.028c0.6,0.033,1.19,0.099,1.782,0.194
								c1.46,0.238,2.893,0.667,4.246,1.273c1.764,0.792,3.387,1.885,4.79,3.214c1.429,1.351,2.617,2.946,3.511,4.697
								c0.731,1.441,1.258,2.984,1.558,4.573c0.348,1.842,0.391,3.741,0.131,5.598c-0.119,0.864-0.308,1.719-0.558,2.554
								c-0.26,0.855-0.58,1.687-0.974,2.491c-0.441,0.918-0.964,1.797-1.562,2.622c-0.606,0.836-1.286,1.615-2.029,2.329
								c-0.773,0.739-1.609,1.405-2.501,1.988c-0.884,0.58-1.824,1.077-2.799,1.482c-1.075,0.449-2.195,0.784-3.336,1.003
								c-1.071,0.205-2.162,0.308-3.25,0.308c-1.091-0.001-2.182-0.102-3.25-0.308c-1.141-0.219-2.263-0.556-3.338-1.002
								c-0.975-0.407-1.915-0.902-2.797-1.483c-0.894-0.582-1.73-1.25-2.501-1.987c-0.745-0.715-1.421-1.496-2.029-2.331
								c-0.602-0.825-1.123-1.705-1.566-2.624c-0.389-0.802-0.711-1.637-0.971-2.49c-0.25-0.835-0.435-1.689-0.554-2.554
								c-0.266-1.855-0.219-3.756,0.125-5.597c0.298-1.588,0.824-3.133,1.558-4.573c0.894-1.751,2.084-3.345,3.509-4.696
								c1.407-1.331,3.03-2.422,4.794-3.214c1.355-0.607,2.784-1.036,4.248-1.274c0.586-0.094,1.184-0.162,1.778-0.194
								c0.314-0.019,0.622-0.027,0.94-0.03C1987.643,365.48,1987.683,365.48,1987.716,365.481z M1983.683,373.104
								c-0.527,0.003-1.055,0.046-1.576,0.134c-0.789,0.134-1.558,0.366-2.289,0.695c-0.868,0.39-1.679,0.912-2.392,1.538
								c-0.827,0.722-1.524,1.584-2.06,2.54c-0.435,0.779-0.759,1.616-0.962,2.485c-0.159,0.688-0.234,1.391-0.24,2.097
								c-0.006,0.471,0.026,0.941,0.091,1.405c0.131,0.939,0.403,1.855,0.809,2.713c0.495,1.052,1.184,2.012,2.022,2.819
								c0.848,0.822,1.85,1.485,2.941,1.943c0.594,0.248,1.216,0.436,1.842,0.559c0.596,0.118,1.206,0.175,1.814,0.177
								c0.6,0.002,1.198-0.053,1.786-0.16c0.64-0.119,1.272-0.304,1.874-0.554c1.099-0.452,2.104-1.11,2.96-1.927
								c0.839-0.8,1.536-1.755,2.039-2.805c0.407-0.853,0.687-1.768,0.823-2.705c0.07-0.464,0.103-0.933,0.103-1.403
								c0-0.716-0.081-1.432-0.24-2.13c-0.205-0.898-0.542-1.764-0.991-2.564c-0.505-0.887-1.15-1.689-1.905-2.374
								c-0.725-0.661-1.55-1.21-2.44-1.618c-0.743-0.344-1.528-0.589-2.339-0.727c-0.511-0.087-1.027-0.132-1.542-0.138
								C1983.769,373.103,1983.729,373.103,1983.683,373.104z"/>
						</g>
						<g transform="matrix(-0.20922,-0.20922,0.481024,-0.481024,4888.85,876.805)">
							<path d="M1419.273-14.781c0.31,0,0.624,0.009,0.938,0.028c0.592,0.033,1.19,0.098,1.778,0.194
								c1.464,0.238,2.895,0.666,4.248,1.274c1.764,0.792,3.388,1.883,4.79,3.212c1.425,1.351,2.619,2.947,3.507,4.697
								c0.733,1.441,1.26,2.985,1.564,4.574c0.348,1.843,0.391,3.743,0.129,5.599c-0.119,0.864-0.308,1.717-0.56,2.553
								c-0.254,0.854-0.58,1.687-0.969,2.489c-0.443,0.919-0.966,1.799-1.566,2.624c-0.606,0.834-1.284,1.616-2.031,2.328
								c-0.769,0.739-1.605,1.407-2.5,1.989c-0.886,0.579-1.822,1.076-2.797,1.483c-1.075,0.447-2.197,0.783-3.338,1.002
								c-1.069,0.206-2.16,0.307-3.25,0.308c-1.089,0-2.18-0.103-3.251-0.308c-1.142-0.219-2.259-0.556-3.336-1.003
								c-0.975-0.405-1.915-0.902-2.801-1.481c-0.89-0.584-1.731-1.252-2.5-1.989c-0.743-0.714-1.423-1.493-2.029-2.329
								c-0.598-0.825-1.127-1.705-1.568-2.623c-0.387-0.803-0.711-1.637-0.968-2.49c-0.25-0.835-0.439-1.689-0.56-2.553
								c-0.26-1.857-0.217-3.757,0.133-5.599c0.298-1.588,0.823-3.133,1.558-4.573c0.888-1.752,2.086-3.344,3.509-4.696
								c1.405-1.33,3.032-2.421,4.796-3.213c1.349-0.608,2.78-1.036,4.242-1.275c0.588-0.097,1.182-0.162,1.778-0.196
								c0.316-0.016,0.624-0.026,0.938-0.028C1419.198-14.783,1419.235-14.782,1419.273-14.781z M1415.238-7.156
								c-0.529,0.002-1.057,0.045-1.578,0.133c-0.785,0.134-1.56,0.367-2.289,0.695c-0.87,0.389-1.673,0.911-2.39,1.537
								c-0.823,0.724-1.528,1.584-2.06,2.542c-0.435,0.777-0.759,1.616-0.96,2.484c-0.157,0.687-0.24,1.39-0.244,2.097
								c0,0.47,0.026,0.939,0.091,1.405c0.133,0.938,0.405,1.856,0.811,2.713c0.493,1.051,1.182,2.009,2.019,2.817
								c0.854,0.821,1.856,1.485,2.948,1.943c0.594,0.25,1.212,0.437,1.838,0.559c0.602,0.118,1.208,0.176,1.816,0.178
								c0.598,0.003,1.194-0.053,1.784-0.161c0.646-0.118,1.274-0.305,1.878-0.554c1.093-0.451,2.102-1.108,2.954-1.925
								c0.842-0.802,1.538-1.758,2.041-2.806c0.407-0.855,0.687-1.768,0.824-2.706c0.068-0.465,0.103-0.933,0.101-1.403
								c-0.004-0.717-0.081-1.434-0.24-2.132c-0.203-0.897-0.54-1.763-0.995-2.564c-0.501-0.885-1.144-1.69-1.899-2.375
								c-0.725-0.659-1.554-1.208-2.442-1.617c-0.745-0.343-1.53-0.586-2.336-0.726c-0.513-0.088-1.029-0.133-1.544-0.137
								C1415.321-7.158,1415.28-7.157,1415.238-7.156z"/>
						</g>
						<g transform="matrix(0.20922,-0.20922,0.481024,0.481024,4302.85,572.906)">
							<path d="M545.012,232.448c0.314,0.002,0.624,0.012,0.936,0.03c0.596,0.035,1.19,0.099,1.782,0.194
								c1.46,0.238,2.893,0.667,4.242,1.275c1.764,0.792,3.391,1.883,4.794,3.212c1.425,1.352,2.617,2.946,3.511,4.697
								c0.731,1.441,1.258,2.984,1.558,4.573c0.348,1.842,0.393,3.742,0.131,5.598c-0.121,0.863-0.308,1.719-0.56,2.553
								c-0.254,0.854-0.578,1.688-0.966,2.491c-0.445,0.919-0.97,1.797-1.568,2.623c-0.606,0.836-1.286,1.615-2.033,2.331
								c-0.769,0.737-1.605,1.403-2.501,1.988c-0.88,0.578-1.82,1.075-2.797,1.483c-1.073,0.446-2.192,0.782-3.338,1.002
								c-1.065,0.204-2.158,0.306-3.246,0.306c-1.089,0-2.18-0.101-3.251-0.308c-1.14-0.219-2.263-0.556-3.336-1.002
								c-0.976-0.407-1.913-0.905-2.797-1.483c-0.896-0.583-1.737-1.25-2.503-1.988c-0.745-0.715-1.425-1.494-2.029-2.331
								c-0.6-0.824-1.123-1.705-1.57-2.622c-0.383-0.803-0.709-1.636-0.966-2.491c-0.252-0.836-0.441-1.689-0.562-2.554
								c-0.26-1.855-0.217-3.755,0.131-5.598c0.304-1.589,0.827-3.132,1.564-4.574c0.888-1.75,2.082-3.346,3.507-4.697
								c1.403-1.329,3.028-2.42,4.79-3.212c1.355-0.607,2.784-1.036,4.244-1.272c0.594-0.098,1.184-0.162,1.782-0.196
								c0.314-0.019,0.628-0.028,0.938-0.028C544.937,232.449,544.976,232.449,545.012,232.448z M540.977,240.074
								c-0.526,0.003-1.055,0.046-1.576,0.134c-0.791,0.133-1.562,0.368-2.289,0.695c-0.868,0.39-1.675,0.91-2.392,1.538
								c-0.827,0.722-1.528,1.586-2.06,2.54c-0.435,0.779-0.759,1.616-0.956,2.484c-0.161,0.687-0.244,1.394-0.246,2.098
								c-0.002,0.469,0.026,0.941,0.089,1.408c0.133,0.936,0.405,1.853,0.811,2.71c0.493,1.054,1.184,2.012,2.023,2.819
								c0.852,0.82,1.854,1.484,2.944,1.941c0.59,0.25,1.212,0.437,1.84,0.562c0.598,0.115,1.204,0.175,1.812,0.176
								c0.6,0.002,1.196-0.05,1.79-0.162c0.638-0.117,1.272-0.304,1.874-0.554c1.095-0.45,2.096-1.107,2.952-1.924
								c0.846-0.804,1.54-1.757,2.042-2.807c0.407-0.853,0.687-1.768,0.823-2.705c0.07-0.464,0.103-0.933,0.103-1.403
								c0-0.716-0.08-1.431-0.234-2.131c-0.209-0.896-0.542-1.764-0.997-2.563c-0.505-0.887-1.146-1.691-1.901-2.376
								c-0.727-0.658-1.552-1.207-2.444-1.616c-0.745-0.341-1.532-0.587-2.339-0.727c-0.511-0.087-1.027-0.132-1.544-0.139
								C541.058,240.075,541.019,240.075,540.977,240.074z"/>
						</g>
					</g>
					<g transform="matrix(0.752578,0,0,0.752578,4904.24,-28.1257)">
						<path d="M-228.4,744.228c0.33,0.112,0.662,0.215,0.997,0.313c0.331,0.096,0.664,0.184,0.999,0.267
							c0.583,0.144,1.171,0.269,1.762,0.369c0.422,0.071,0.845,0.131,1.27,0.175c0.345,0.036,0.69,0.062,1.036,0.077
							c0.242,0.01,0.485,0.014,0.727,0.01c0.153-0.003,0.306-0.006,0.459-0.016c0.336-0.018,0.672-0.049,1.004-0.108
							c0.583-0.102,1.156-0.287,1.667-0.589c0.127-0.075,0.25-0.157,0.368-0.247c0.147-0.113,0.287-0.236,0.415-0.37
							c0.197-0.204,0.37-0.432,0.518-0.673c0.245-0.401,0.422-0.84,0.548-1.289c0.212-0.755,0.286-1.544,0.287-2.327v-2.215
							c-0.649,0.532-1.362,0.985-2.124,1.338c-0.559,0.258-1.143,0.463-1.741,0.609c-0.89,0.218-1.808,0.306-2.723,0.279
							c-0.484-0.014-0.967-0.061-1.443-0.147c-0.568-0.1-1.127-0.26-1.66-0.481c-0.409-0.17-0.803-0.379-1.172-0.623
							c-0.387-0.257-0.749-0.554-1.074-0.885c-0.445-0.453-0.824-0.968-1.132-1.522c-0.332-0.598-0.582-1.243-0.751-1.906
							c-0.069-0.27-0.125-0.542-0.165-0.819c-0.036-0.24-0.062-0.484-0.071-0.727v-9.894c0.01-0.261,0.037-0.519,0.078-0.777
							c0.048-0.304,0.113-0.606,0.194-0.903c0.197-0.724,0.491-1.422,0.885-2.062c0.373-0.605,0.835-1.154,1.375-1.617
							c0.399-0.341,0.838-0.636,1.305-0.877c0.731-0.376,1.523-0.62,2.332-0.751c0.325-0.055,0.653-0.088,0.982-0.108
							c0.158-0.009,0.317-0.014,0.477-0.017c0.082-0.001,0.163-0.003,0.245-0.001c0.163,0.001,0.326,0.005,0.488,0.014
							c0.315,0.017,0.629,0.048,0.94,0.095c0.795,0.118,1.575,0.332,2.316,0.644c0.492,0.208,0.967,0.454,1.418,0.74
							c0.355,0.223,0.696,0.47,1.021,0.737v-2.02h3.535c0,7.967,0,15.934,0,23.901c0,0.301-0.008,0.603-0.028,0.904
							c-0.056,0.868-0.195,1.734-0.448,2.567c-0.229,0.758-0.553,1.487-0.983,2.15c-0.312,0.484-0.68,0.93-1.096,1.329
							c-0.301,0.287-0.627,0.548-0.974,0.779c-0.267,0.179-0.546,0.34-0.834,0.484c-0.76,0.376-1.579,0.627-2.414,0.769
							c-0.437,0.074-0.879,0.119-1.322,0.145c-0.559,0.031-1.119,0.031-1.678,0.005c-0.386-0.018-0.771-0.048-1.155-0.088
							c-0.5-0.052-0.998-0.122-1.494-0.206c-0.651-0.11-1.298-0.247-1.939-0.402c-0.411-0.101-0.821-0.21-1.227-0.328
							L-228.4,744.228L-228.4,744.228z M-102.182,733.498l6.43-17.575h3.764l-11.953,32.67h-3.631l-0.117-0.043l3.636-9.94
							l-8.435-22.688h3.771L-102.182,733.498z M-198.554,739.613c-0.444-0.183-0.864-0.423-1.255-0.701
							c-0.339-0.243-0.657-0.516-0.949-0.815c-0.246-0.25-0.474-0.519-0.683-0.802c-0.182-0.247-0.349-0.502-0.502-0.767
							c-0.128-0.222-0.247-0.449-0.354-0.681c-0.567-1.216-0.858-2.545-0.965-3.879c-0.034-0.422-0.049-0.845-0.05-1.269v-14.777
							h3.535c0,4.923,0,9.849,0,14.773c0.001,0.388,0.017,0.775,0.053,1.161c0.03,0.313,0.074,0.624,0.136,0.932
							c0.049,0.252,0.11,0.5,0.184,0.745c0.228,0.749,0.585,1.47,1.125,2.042c0.07,0.074,0.143,0.144,0.218,0.212
							c0.159,0.144,0.33,0.272,0.513,0.384c0.119,0.071,0.243,0.135,0.372,0.184c0.008,0.003,0.016,0.005,0.024,0.009l0.003,0.001
							l0.058,0.016c0.025,0.008,0.048,0.018,0.072,0.026c0.026,0.009,0.053,0.016,0.078,0.023c0.214,0.06,0.433,0.1,0.653,0.127
							c0.289,0.035,0.581,0.048,0.873,0.038c0.628-0.025,1.251-0.157,1.835-0.392c0.108-0.044,0.215-0.09,0.321-0.14
							c0.072-0.035,0.143-0.07,0.213-0.108c0.079-0.043,0.156-0.09,0.231-0.138c0.289-0.188,0.551-0.414,0.791-0.661
							c0.292-0.302,0.551-0.637,0.786-0.985c0.365-0.544,0.671-1.124,0.938-1.719c0.317-0.706,0.579-1.434,0.801-2.174
							c0.106-0.357,0.204-0.718,0.29-1.08c0.049-0.204,0.095-0.409,0.136-0.615v-12.664h3.535v23.9h0.001h-3.535v-2.659
							c-0.543,0.637-1.167,1.208-1.876,1.66c-0.134,0.084-0.27,0.164-0.409,0.24c-0.217,0.117-0.44,0.223-0.666,0.322
							c-0.598,0.261-1.224,0.457-1.864,0.583c-0.847,0.165-1.718,0.208-2.577,0.127c-0.426-0.04-0.851-0.11-1.266-0.214
							c-0.103-0.027-0.206-0.056-0.308-0.086 M-59.836,735.231c0.045,0.021,0.092,0.042,0.139,0.062
							c0.203,0.088,0.407,0.171,0.613,0.249c0.98,0.369,2.001,0.624,3.034,0.788c0.56,0.088,1.124,0.151,1.687,0.184
							c0.514,0.031,1.031,0.04,1.545,0.025c0.33-0.009,0.662-0.03,0.989-0.061c0.309-0.03,0.615-0.07,0.922-0.125
							c0.236-0.042,0.469-0.092,0.701-0.153c0.191-0.052,0.38-0.11,0.561-0.183c0.081-0.032,0.16-0.067,0.236-0.106
							c0.049-0.026,0.098-0.053,0.141-0.084c0.014-0.012,0.025-0.022,0.039-0.034c0.016-0.017,0.033-0.034,0.051-0.049
							c0.06-0.061,0.12-0.123,0.176-0.187c0.197-0.219,0.369-0.461,0.518-0.712c0.199-0.335,0.354-0.693,0.461-1.067
							c0.079-0.28,0.128-0.57,0.136-0.862c0.006-0.227-0.014-0.457-0.062-0.679c-0.059-0.258-0.158-0.506-0.293-0.733
							c-0.049-0.08-0.1-0.16-0.159-0.234c-0.082-0.11-0.176-0.21-0.276-0.306c-0.124-0.117-0.254-0.226-0.39-0.328
							c-0.175-0.131-0.357-0.253-0.543-0.366c-0.212-0.13-0.429-0.25-0.65-0.363c-0.561-0.289-1.143-0.539-1.73-0.775
							c-0.693-0.278-1.397-0.533-2.095-0.798c-0.099-0.036-0.197-0.074-0.295-0.112c-0.407-0.156-0.811-0.315-1.208-0.49
							c-0.277-0.122-0.55-0.249-0.815-0.393c-0.306-0.166-0.601-0.356-0.882-0.563c-0.891-0.664-1.64-1.535-2.107-2.547
							c-0.079-0.174-0.149-0.349-0.212-0.529c-0.078-0.224-0.143-0.457-0.192-0.689c-0.067-0.315-0.106-0.636-0.116-0.959
							c-0.016-0.448,0.025-0.895,0.116-1.333c0.139-0.667,0.398-1.307,0.74-1.896c0.174-0.3,0.369-0.586,0.581-0.86
							c0.059-0.075,0.118-0.149,0.179-0.222c0.073-0.088,0.145-0.174,0.224-0.256c0.169-0.179,0.352-0.343,0.546-0.493
							c0.631-0.487,1.367-0.816,2.125-1.047c0.134-0.04,0.265-0.078,0.401-0.113c0.611-0.158,1.233-0.262,1.859-0.333
							c0.797-0.089,1.599-0.123,2.402-0.127c0.045,0,0.092,0,0.139,0c1.279,0.005,2.557,0.088,3.827,0.226
							c0.426,0.045,0.852,0.097,1.277,0.156v3.572c-0.721-0.109-1.446-0.197-2.172-0.266c-0.612-0.058-1.228-0.102-1.843-0.127
							c-0.61-0.026-1.22-0.034-1.83-0.016c-0.544,0.016-1.085,0.052-1.623,0.122c-0.339,0.044-0.679,0.103-1.012,0.182
							c-0.263,0.062-0.523,0.138-0.774,0.239c-0.171,0.068-0.337,0.147-0.493,0.245c-0.106,0.068-0.206,0.144-0.287,0.238
							c-0.029,0.035-0.058,0.07-0.088,0.106c-0.237,0.298-0.45,0.622-0.591,0.978c-0.092,0.23-0.153,0.474-0.169,0.721
							c-0.008,0.112-0.004,0.224,0.008,0.336c0.008,0.071,0.02,0.143,0.036,0.212c0.1,0.462,0.359,0.876,0.68,1.217
							c0.056,0.061,0.115,0.118,0.175,0.174c0.082,0.075,0.167,0.148,0.255,0.215c0.106,0.082,0.216,0.158,0.33,0.228
							c0.182,0.113,0.377,0.208,0.574,0.296c0.204,0.093,0.41,0.18,0.618,0.266c0.239,0.096,0.483,0.191,0.725,0.283
							c0.395,0.151,0.792,0.296,1.186,0.445c0.106,0.039,0.21,0.079,0.314,0.119c0.405,0.154,0.809,0.311,1.208,0.478
							c0.302,0.126,0.603,0.256,0.899,0.393c0.245,0.113,0.491,0.231,0.731,0.354c0.189,0.097,0.375,0.198,0.557,0.304
							c0.132,0.074,0.261,0.152,0.391,0.231c0.773,0.481,1.5,1.058,2.064,1.778c0.2,0.256,0.377,0.528,0.534,0.812
							c0.189,0.345,0.344,0.708,0.462,1.085c0.151,0.478,0.239,0.973,0.271,1.474c0.038,0.631-0.019,1.268-0.156,1.884
							c-0.175,0.79-0.481,1.551-0.886,2.25c-0.287,0.493-0.622,0.956-1.005,1.378c-0.108,0.121-0.223,0.236-0.338,0.349
							c-0.08,0.078-0.163,0.154-0.249,0.227c-0.171,0.141-0.356,0.267-0.546,0.38c-0.239,0.14-0.491,0.261-0.748,0.366
							c-0.312,0.127-0.631,0.23-0.954,0.318c-0.379,0.104-0.764,0.186-1.15,0.252c-0.455,0.078-0.915,0.132-1.377,0.17
							c-0.679,0.055-1.363,0.07-2.046,0.053c-0.754-0.018-1.508-0.077-2.257-0.177c-0.785-0.104-1.563-0.25-2.329-0.446
							c-0.483-0.122-0.962-0.263-1.434-0.426V735.231L-59.836,735.231z M-175.31,735.231c0.214,0.096,0.431,0.187,0.649,0.273
							c0.958,0.37,1.958,0.628,2.972,0.799c0.561,0.095,1.125,0.162,1.692,0.201c0.551,0.039,1.105,0.052,1.657,0.036
							c0.643-0.017,1.287-0.07,1.92-0.18c0.238-0.042,0.475-0.092,0.71-0.152c0.193-0.052,0.384-0.11,0.57-0.183
							c0.083-0.032,0.163-0.068,0.243-0.108c0.054-0.026,0.108-0.056,0.157-0.092c0.015-0.01,0.026-0.021,0.039-0.032
							c0.017-0.017,0.034-0.032,0.05-0.051c0.062-0.06,0.121-0.122,0.178-0.186c0.196-0.221,0.369-0.461,0.518-0.712
							c0.198-0.335,0.355-0.693,0.461-1.067c0.08-0.28,0.128-0.57,0.136-0.862c0.006-0.227-0.014-0.457-0.064-0.679
							c-0.056-0.252-0.152-0.494-0.283-0.716c-0.051-0.087-0.106-0.171-0.167-0.25c-0.093-0.122-0.2-0.234-0.312-0.339
							c-0.119-0.112-0.247-0.215-0.377-0.311c-0.186-0.139-0.38-0.266-0.577-0.385c-0.214-0.128-0.433-0.248-0.657-0.362
							c-0.542-0.275-1.102-0.514-1.667-0.741c-0.694-0.278-1.397-0.535-2.096-0.798c-0.099-0.038-0.197-0.075-0.295-0.113
							c-0.405-0.156-0.81-0.315-1.207-0.489c-0.276-0.122-0.549-0.249-0.814-0.393c-0.319-0.173-0.625-0.37-0.914-0.588
							c-0.889-0.67-1.632-1.547-2.093-2.563c-0.078-0.174-0.148-0.352-0.209-0.531c-0.077-0.226-0.14-0.458-0.188-0.693
							c-0.064-0.315-0.101-0.638-0.109-0.96c-0.011-0.449,0.034-0.897,0.129-1.335c0.145-0.667,0.409-1.305,0.757-1.892
							c0.167-0.284,0.354-0.555,0.556-0.816c0.057-0.074,0.117-0.148,0.177-0.221c0.072-0.088,0.146-0.174,0.224-0.257
							c0.169-0.178,0.351-0.343,0.546-0.493c0.63-0.485,1.368-0.815,2.125-1.046c0.132-0.04,0.266-0.078,0.4-0.113
							c0.588-0.152,1.188-0.254,1.791-0.326c0.773-0.091,1.552-0.127,2.329-0.135c0.094,0,0.188,0,0.28,0
							c1.279,0.004,2.558,0.088,3.829,0.226c0.426,0.045,0.852,0.097,1.276,0.156v3.571c-0.721-0.108-1.446-0.196-2.172-0.265
							c-0.612-0.058-1.227-0.102-1.842-0.128c-0.609-0.025-1.22-0.032-1.83-0.016c-0.543,0.017-1.086,0.053-1.625,0.123
							c-0.34,0.043-0.679,0.101-1.012,0.182c-0.261,0.062-0.521,0.138-0.771,0.239c-0.167,0.065-0.331,0.141-0.483,0.239
							c-0.108,0.068-0.213,0.147-0.298,0.244c-0.029,0.035-0.058,0.07-0.087,0.106c-0.239,0.297-0.45,0.622-0.592,0.977
							c-0.092,0.231-0.154,0.474-0.169,0.723c-0.006,0.112-0.004,0.223,0.008,0.335c0.008,0.073,0.019,0.143,0.035,0.213
							c0.102,0.468,0.367,0.888,0.694,1.233c0.057,0.058,0.116,0.116,0.176,0.173c0.077,0.07,0.158,0.138,0.24,0.201
							c0.106,0.082,0.216,0.158,0.329,0.227c0.184,0.113,0.378,0.208,0.574,0.297c0.224,0.102,0.452,0.199,0.681,0.291
							c0.267,0.106,0.535,0.21,0.804,0.311c0.4,0.151,0.801,0.3,1.202,0.45c0.105,0.04,0.211,0.08,0.316,0.121
							c0.379,0.147,0.757,0.295,1.132,0.452c0.33,0.138,0.657,0.282,0.981,0.435c0.245,0.115,0.488,0.236,0.727,0.363
							c0.16,0.084,0.319,0.173,0.476,0.263c0.13,0.075,0.261,0.154,0.389,0.236c0.758,0.479,1.468,1.052,2.017,1.767
							c0.197,0.254,0.372,0.528,0.524,0.812c0.187,0.346,0.339,0.71,0.454,1.086c0.147,0.478,0.233,0.975,0.26,1.474
							c0.034,0.642-0.029,1.291-0.175,1.919c-0.184,0.786-0.496,1.543-0.906,2.237c-0.278,0.468-0.601,0.911-0.968,1.316
							c-0.108,0.119-0.221,0.236-0.337,0.348c-0.081,0.079-0.163,0.156-0.25,0.228c-0.171,0.14-0.355,0.267-0.546,0.38
							c-0.239,0.14-0.491,0.261-0.748,0.366c-0.31,0.126-0.63,0.23-0.953,0.318c-0.38,0.104-0.764,0.186-1.152,0.252
							c-0.456,0.077-0.915,0.131-1.376,0.169c-0.659,0.053-1.322,0.07-1.983,0.056c-0.754-0.017-1.507-0.074-2.254-0.17
							c-0.784-0.101-1.562-0.245-2.329-0.437c-0.505-0.126-1.006-0.273-1.499-0.443L-175.31,735.231L-175.31,735.231z
							 M-69.846,738.906c-0.169,0.058-0.338,0.113-0.509,0.166c-0.611,0.188-1.231,0.345-1.856,0.475
							c-0.673,0.138-1.353,0.245-2.035,0.327c-0.83,0.099-1.667,0.158-2.501,0.183c-0.214,0.006-0.426,0.01-0.638,0.013
							c-0.178,0-0.357,0.001-0.536-0.001c-0.261-0.006-0.525-0.022-0.788-0.049c-0.536-0.055-1.068-0.154-1.582-0.309
							c-0.595-0.178-1.168-0.428-1.697-0.753c-0.364-0.222-0.703-0.479-1.018-0.764c-0.408-0.371-0.767-0.792-1.078-1.247
							c-0.391-0.58-0.699-1.215-0.925-1.876c-0.149-0.436-0.265-0.885-0.346-1.339c-0.059-0.333-0.1-0.671-0.112-1.01v-3.896l0,0
							v-5.763c0.002-0.045,0.002-0.045,0.004-0.091c0.014-0.253,0.041-0.504,0.08-0.753c0.042-0.271,0.097-0.54,0.165-0.805
							c0.265-1.051,0.72-2.058,1.38-2.92c0.134-0.174,0.275-0.343,0.424-0.502c0.291-0.315,0.613-0.602,0.96-0.856
							c0.339-0.249,0.705-0.466,1.084-0.649c0.719-0.345,1.492-0.564,2.281-0.677c0.308-0.044,0.616-0.073,0.926-0.087
							c0.162-0.007,0.322-0.01,0.481-0.01h0.479l0,0c0.535,0,1.071-0.001,1.607,0c0.161,0.001,0.322,0.005,0.483,0.014
							c0.333,0.017,0.666,0.052,0.995,0.105c0.799,0.128,1.585,0.37,2.306,0.742c0.424,0.218,0.827,0.481,1.196,0.784
							c0.34,0.278,0.65,0.588,0.931,0.925c0.243,0.295,0.463,0.61,0.658,0.939c0.391,0.662,0.679,1.379,0.874,2.122
							c0.079,0.306,0.143,0.615,0.191,0.928c0.039,0.262,0.066,0.526,0.074,0.79v6.239h-1.767l0,0h-12.277v3.349
							c0.012,0.18,0.037,0.359,0.07,0.536c0.051,0.266,0.122,0.528,0.212,0.782c0.13,0.366,0.301,0.72,0.524,1.039
							c0.15,0.214,0.324,0.414,0.519,0.589c0.152,0.135,0.316,0.256,0.491,0.361c0.176,0.108,0.365,0.197,0.557,0.27
							c0.358,0.136,0.733,0.218,1.111,0.262c0.183,0.022,0.367,0.035,0.552,0.042c0.137,0.004,0.275,0.003,0.413,0.003
							c0.147-0.001,0.295-0.004,0.444-0.007c0.359-0.009,0.719-0.025,1.076-0.047c0.535-0.035,1.068-0.084,1.599-0.156
							c0.64-0.084,1.276-0.198,1.905-0.345c0.583-0.138,1.16-0.302,1.723-0.511c0.193-0.071,0.383-0.148,0.572-0.232
							c0.076-0.034,0.151-0.067,0.226-0.104c0.029-0.016,0.06-0.031,0.09-0.045V738.906L-69.846,738.906z M-121.495,738.906
							c-0.168,0.058-0.338,0.113-0.508,0.166c-0.611,0.188-1.231,0.345-1.857,0.475c-0.673,0.138-1.352,0.245-2.034,0.327
							c-0.83,0.099-1.667,0.158-2.502,0.183c-0.212,0.006-0.425,0.01-0.638,0.013c-0.178,0-0.356,0.001-0.535-0.001
							c-0.263-0.006-0.527-0.022-0.788-0.049c-0.537-0.055-1.068-0.154-1.584-0.309c-0.594-0.178-1.167-0.428-1.697-0.753
							c-0.362-0.222-0.703-0.479-1.017-0.764c-0.407-0.371-0.768-0.792-1.076-1.247c-0.393-0.58-0.7-1.215-0.926-1.876
							c-0.149-0.436-0.265-0.885-0.345-1.339c-0.059-0.333-0.101-0.672-0.112-1.012v-3.893l0,0v-5.763
							c0.002-0.045,0.001-0.045,0.003-0.091c0.014-0.253,0.042-0.504,0.08-0.751c0.042-0.273,0.098-0.541,0.164-0.806
							c0.266-1.051,0.721-2.058,1.381-2.92c0.134-0.174,0.275-0.343,0.424-0.502c0.292-0.315,0.614-0.602,0.961-0.856
							c0.34-0.249,0.704-0.466,1.084-0.649c0.719-0.345,1.492-0.564,2.281-0.677c0.307-0.044,0.616-0.073,0.925-0.087
							c0.161-0.007,0.322-0.01,0.483-0.01h0.477l0,0c0.536,0,1.072-0.001,1.608,0c0.161,0.001,0.322,0.005,0.483,0.014
							c0.333,0.017,0.665,0.052,0.994,0.105c0.801,0.128,1.586,0.37,2.308,0.742c0.425,0.219,0.827,0.481,1.196,0.784
							c0.325,0.266,0.625,0.562,0.895,0.884c0.259,0.307,0.49,0.636,0.694,0.981c0.378,0.64,0.66,1.333,0.854,2.05
							c0.084,0.311,0.151,0.627,0.2,0.946c0.044,0.279,0.075,0.561,0.084,0.844v6.239h-1.767l0,0h-12.279v3.35
							c0.011,0.179,0.038,0.358,0.071,0.535c0.051,0.266,0.121,0.528,0.21,0.782c0.13,0.366,0.302,0.72,0.524,1.039
							c0.151,0.214,0.324,0.414,0.52,0.589c0.152,0.135,0.316,0.256,0.49,0.361c0.167,0.101,0.344,0.187,0.526,0.258
							c0.366,0.143,0.753,0.228,1.143,0.274c0.183,0.022,0.367,0.035,0.551,0.042c0.138,0.004,0.275,0.003,0.413,0.003
							c0.147-0.001,0.295-0.004,0.442-0.007c0.321-0.008,0.642-0.021,0.962-0.04c0.572-0.034,1.145-0.087,1.714-0.162
							c0.64-0.084,1.276-0.198,1.905-0.345c0.583-0.136,1.161-0.302,1.724-0.51c0.193-0.073,0.384-0.148,0.573-0.232
							c0.075-0.034,0.151-0.069,0.225-0.105c0.03-0.016,0.06-0.031,0.09-0.045L-121.495,738.906L-121.495,738.906z
							 M-282.158,716.945c0.54-0.195,1.091-0.358,1.647-0.5c0.745-0.188,1.5-0.333,2.259-0.445c0.943-0.139,1.891-0.222,2.842-0.262
							c0.376-0.016,0.751-0.023,1.128-0.025c0.076-0.001,0.152-0.001,0.228,0c0.161,0.001,0.322,0.005,0.483,0.014
							c0.333,0.017,0.665,0.052,0.995,0.105c0.801,0.128,1.585,0.37,2.307,0.742c0.424,0.219,0.826,0.481,1.196,0.784
							c0.311,0.254,0.598,0.536,0.859,0.842c0.251,0.293,0.478,0.607,0.678,0.937c0.417,0.684,0.722,1.433,0.924,2.207
							c0.08,0.306,0.144,0.615,0.191,0.928c0.04,0.262,0.067,0.526,0.076,0.79v5.761l0,0v10.997h-3.534v-0.831
							c-0.146,0.087-0.295,0.17-0.447,0.247c-0.729,0.366-1.518,0.602-2.323,0.724c-0.331,0.051-0.665,0.082-1,0.097
							c-0.16,0.008-0.321,0.01-0.483,0.01h-0.477l0,0h-1.529c-0.161,0-0.321-0.003-0.482-0.01c-0.335-0.016-0.669-0.047-1-0.097
							c-0.805-0.122-1.595-0.358-2.323-0.724c-0.428-0.215-0.834-0.475-1.207-0.776c-0.315-0.253-0.605-0.533-0.87-0.837
							c-0.265-0.306-0.504-0.635-0.714-0.98c-0.416-0.684-0.721-1.434-0.924-2.207c-0.079-0.305-0.144-0.615-0.191-0.929
							c-0.039-0.261-0.067-0.524-0.076-0.79v-0.95c0.004-0.214,0.025-0.429,0.056-0.641c0.042-0.283,0.102-0.562,0.179-0.837
							c0.161-0.57,0.396-1.119,0.7-1.628c0.235-0.392,0.511-0.759,0.822-1.094c0.444-0.479,0.958-0.888,1.52-1.22
							c0.71-0.42,1.489-0.715,2.29-0.908c0.317-0.075,0.636-0.135,0.958-0.182c0.145-0.019,0.291-0.038,0.437-0.053
							c0.191-0.019,0.383-0.038,0.575-0.056c0.475-0.048,0.949-0.095,1.424-0.143c1.695-0.169,3.391-0.34,5.085-0.516v-1.36
							c-0.011-0.179-0.037-0.358-0.071-0.535c-0.05-0.266-0.12-0.528-0.21-0.782c-0.13-0.367-0.302-0.72-0.525-1.038
							c-0.15-0.217-0.324-0.415-0.519-0.59c-0.152-0.136-0.316-0.257-0.491-0.362c-0.167-0.1-0.345-0.186-0.526-0.257
							c-0.366-0.143-0.753-0.228-1.143-0.275c-0.184-0.021-0.368-0.035-0.552-0.04c-0.138-0.004-0.276-0.003-0.413-0.003
							c-0.148,0.001-0.295,0.004-0.443,0.006c-0.359,0.009-0.719,0.023-1.077,0.047c-0.535,0.034-1.068,0.084-1.599,0.156
							c-0.64,0.086-1.276,0.198-1.905,0.346c-0.583,0.136-1.161,0.302-1.724,0.51c-0.193,0.071-0.384,0.147-0.572,0.231
							c-0.076,0.034-0.151,0.069-0.226,0.105c-0.049,0.025-0.098,0.049-0.145,0.075h0.001l-0.139-0.239L-282.158,716.945
							L-282.158,716.945z M-239.502,739.835h-17.329v-3.535h5.69v-16.856h-5.69v-3.535h9.225v3.253
							c0.176-0.227,0.358-0.448,0.549-0.66c0.657-0.734,1.417-1.388,2.296-1.841c0.443-0.228,0.91-0.409,1.388-0.55
							c0.615-0.182,1.248-0.3,1.885-0.374c0.259-0.029,0.52-0.051,0.781-0.066c0.25-0.016,0.501-0.023,0.751-0.027
							c0.107-0.001,0.214-0.001,0.321-0.001c0.67,0.005,1.34,0.043,2.006,0.117c0.182,0.019,0.363,0.042,0.544,0.065v3.578
							c-0.031-0.006-0.062-0.012-0.093-0.017c-0.374-0.061-0.751-0.108-1.128-0.141c-0.427-0.039-0.856-0.061-1.285-0.065
							c-0.369-0.005-0.738,0.006-1.105,0.034c-0.333,0.025-0.666,0.066-0.995,0.127c-0.258,0.047-0.513,0.108-0.762,0.186
							c-0.221,0.07-0.439,0.153-0.646,0.256c-0.274,0.138-0.525,0.315-0.757,0.516c-0.243,0.21-0.466,0.441-0.676,0.685
							c-0.356,0.415-0.671,0.863-0.961,1.325c-0.335,0.535-0.636,1.089-0.913,1.656c-0.286,0.585-0.546,1.182-0.784,1.788
							c-0.097,0.245-0.189,0.492-0.278,0.741c-0.048,0.134-0.095,0.267-0.14,0.404v9.405h8.104L-239.502,739.835L-239.502,739.835z
							 M-274.609,736.535L-274.609,736.535c0.176,0,0.353,0,0.529,0c0.125-0.001,0.248-0.005,0.372-0.013
							c0.563-0.034,1.127-0.141,1.643-0.372c0.173-0.077,0.339-0.166,0.496-0.271c0.166-0.11,0.321-0.236,0.464-0.375
							c0.47-0.458,0.79-1.051,0.989-1.673c0.03-0.093,0.058-0.189,0.084-0.287c0.04-0.152,0.073-0.306,0.099-0.462
							c0.023-0.136,0.042-0.275,0.051-0.413l0.001-0.018v-4.607c-0.106,0.012-0.212,0.022-0.318,0.034
							c-1.178,0.121-2.356,0.24-3.534,0.358c-0.607,0.061-1.214,0.122-1.821,0.182c-0.348,0.034-0.696,0.069-1.045,0.104
							c-0.051,0.006-0.103,0.01-0.154,0.017c-0.145,0.018-0.29,0.04-0.434,0.066c-0.103,0.019-0.206,0.04-0.308,0.064
							c-0.082,0.019-0.163,0.04-0.245,0.062c-0.589,0.164-1.161,0.424-1.623,0.832c-0.087,0.077-0.169,0.158-0.247,0.244
							c-0.117,0.131-0.223,0.271-0.317,0.42c-0.126,0.201-0.228,0.418-0.306,0.644c-0.05,0.144-0.09,0.293-0.119,0.443
							c-0.019,0.097-0.033,0.196-0.04,0.295v0.001v0.842c0.003,0.036,0.006,0.073,0.009,0.108c0.025,0.252,0.07,0.5,0.132,0.744
							c0.026,0.104,0.055,0.206,0.088,0.309c0.042,0.131,0.09,0.263,0.142,0.392c0.191,0.465,0.459,0.903,0.814,1.261
							c0.092,0.092,0.189,0.179,0.291,0.261c0.271,0.214,0.576,0.382,0.899,0.503c0.464,0.177,0.958,0.263,1.453,0.293
							c0.143,0.009,0.287,0.013,0.431,0.013h0.666l0,0h0.004H-274.609L-274.609,736.535z M-216.341,723.597
							c-0.194-0.415-0.424-0.812-0.682-1.191c-0.628-0.927-1.433-1.75-2.403-2.318c-0.158-0.093-0.321-0.179-0.486-0.257
							c-0.293-0.139-0.598-0.253-0.91-0.343c-0.324-0.092-0.655-0.157-0.99-0.196c-0.263-0.031-0.529-0.044-0.794-0.044
							c-0.127,0-0.254,0.001-0.381,0.009c-0.101,0.005-0.202,0.013-0.302,0.022c-0.65,0.064-1.302,0.228-1.863,0.572
							c-0.097,0.06-0.193,0.125-0.284,0.196c-0.141,0.109-0.274,0.231-0.395,0.362c-0.332,0.359-0.578,0.792-0.749,1.248
							c-0.079,0.21-0.142,0.427-0.191,0.646c-0.042,0.186-0.073,0.374-0.088,0.562l-0.001,0.022l-0.001,0.012v9.749
							c0.01,0.153,0.033,0.306,0.062,0.457c0.046,0.237,0.108,0.471,0.189,0.698c0.149,0.424,0.36,0.829,0.644,1.178
							c0.127,0.157,0.269,0.302,0.424,0.432c0.101,0.086,0.206,0.164,0.317,0.235c0.075,0.049,0.153,0.095,0.233,0.138
							c0.568,0.308,1.213,0.448,1.853,0.494c0.123,0.009,0.246,0.016,0.369,0.018c0.234,0.005,0.47-0.001,0.705-0.019
							c0.329-0.025,0.655-0.075,0.976-0.151c0.364-0.086,0.72-0.205,1.062-0.358c0.181-0.08,0.359-0.171,0.531-0.269
							c1.002-0.57,1.832-1.411,2.476-2.36c0.193-0.287,0.373-0.585,0.533-0.891c0.051-0.099,0.101-0.198,0.147-0.298V723.597
							L-216.341,723.597z M-76.347,719.248L-76.347,719.248h-0.014h-0.84v-0.001c-0.176,0-0.354,0-0.53,0.001
							c-0.055,0-0.055,0-0.11,0.001c-0.138,0.004-0.275,0.01-0.413,0.022c-0.525,0.044-1.047,0.156-1.525,0.375
							c-0.17,0.078-0.335,0.169-0.491,0.274c-0.163,0.112-0.316,0.239-0.457,0.378c-0.459,0.455-0.773,1.041-0.971,1.653
							c-0.03,0.095-0.058,0.191-0.084,0.287c-0.039,0.153-0.072,0.306-0.098,0.462c-0.023,0.138-0.041,0.276-0.051,0.414
							l-0.002,0.017v2.637h10.511v-2.637c-0.008-0.132-0.026-0.265-0.045-0.397c-0.034-0.196-0.077-0.391-0.13-0.581
							c-0.189-0.677-0.513-1.331-1.01-1.834c-0.093-0.093-0.191-0.18-0.293-0.261c-0.209-0.165-0.436-0.301-0.675-0.411
							c-0.54-0.247-1.135-0.357-1.727-0.388c-0.125-0.008-0.253-0.01-0.379-0.01H-76.347L-76.347,719.248z M-127.995,719.248
							L-127.995,719.248h-0.013h-0.842v-0.001c-0.176,0-0.353,0-0.529,0.001c-0.054,0-0.054,0-0.109,0.001
							c-0.138,0.004-0.276,0.01-0.414,0.022c-0.522,0.044-1.045,0.156-1.523,0.375c-0.343,0.157-0.659,0.368-0.929,0.632
							c-0.47,0.459-0.789,1.051-0.989,1.673c-0.031,0.095-0.058,0.191-0.084,0.287c-0.039,0.153-0.073,0.306-0.099,0.462
							c-0.023,0.138-0.042,0.276-0.051,0.414l-0.001,0.017v2.637h10.511v-2.637c-0.008-0.132-0.025-0.265-0.047-0.397
							c-0.032-0.196-0.075-0.391-0.128-0.581c-0.188-0.677-0.511-1.331-1.01-1.834c-0.092-0.092-0.189-0.18-0.291-0.261
							c-0.208-0.165-0.436-0.301-0.677-0.411c-0.54-0.247-1.135-0.357-1.725-0.388c-0.127-0.008-0.253-0.01-0.38-0.01H-127.995
							L-127.995,719.248z"/>
					</g>
				</g>
			</g>
		</g>
	</g>
</g>
</svg>
