<?xml version="1.0" standalone="no"?>
<!DOCTYPE svg PUBLIC "-//W3C//DTD SVG 20010904//EN"
 "http://www.w3.org/TR/2001/REC-SVG-20010904/DTD/svg10.dtd">
<svg version="1.0" xmlns="http://www.w3.org/2000/svg"
 width="700.000000pt" height="700.000000pt" viewBox="0 0 700.000000 700.000000"
 preserveAspectRatio="xMidYMid meet">
<metadata>
Created by potrace 1.11, written by Peter Selinger 2001-2013
</metadata>
<g transform="translate(0.000000,700.000000) scale(0.100000,-0.100000)"
fill="#000000" stroke="none">
<path d="M3225 6979 c-270 -39 -458 -105 -630 -220 -193 -128 -282 -294 -251
-462 45 -236 331 -442 731 -527 152 -32 253 -42 430 -43 165 0 198 3 333 24
401 62 703 236 809 465 38 81 39 202 3 284 -70 161 -236 295 -476 385 -104 39
-266 80 -359 90 -33 4 -64 10 -69 13 -5 3 -97 6 -205 7 -142 1 -229 -3 -316
-16z m447 -154 c119 -20 137 -25 218 -58 86 -35 145 -72 195 -124 47 -48 65
-88 70 -149 10 -129 -107 -245 -314 -314 -113 -37 -140 -41 -311 -45 -153 -4
-242 7 -355 44 -310 102 -410 321 -222 486 90 80 262 147 407 161 30 3 56 7
58 8 5 5 212 -2 254 -9z"/>
<path d="M5137 6409 c-177 -41 -203 -247 -65 -524 157 -317 489 -646 803 -795
321 -153 536 -78 511 178 -7 74 -26 144 -56 209 -11 24 -20 46 -20 51 0 17
-122 207 -183 285 -296 378 -750 651 -990 596z m438 -255 c37 -12 140 -67 196
-105 65 -44 194 -170 235 -232 16 -23 35 -48 41 -55 7 -7 28 -46 47 -85 128
-267 -26 -376 -299 -212 -276 167 -486 488 -420 643 19 43 64 63 130 57 28 -2
60 -7 70 -11z"/>
<path d="M1691 6389 c-116 -22 -271 -93 -403 -185 -330 -232 -606 -583 -677
-863 -28 -111 -27 -173 3 -237 40 -86 112 -121 230 -111 405 34 1007 589 1131
1043 71 256 -43 397 -284 353z m-123 -259 c42 -26 55 -61 49 -130 -17 -193
-281 -500 -517 -600 -30 -12 -84 -25 -121 -28 -62 -4 -68 -3 -99 25 -155 138
184 618 518 733 74 25 128 25 170 0z"/>
<path d="M3367 5364 c-1 -1 -29 -5 -62 -8 -491 -53 -950 -305 -1257 -691 -198
-249 -338 -567 -383 -870 -21 -137 -27 -436 -11 -512 2 -11 8 -43 11 -70 32
-226 149 -526 286 -730 106 -158 278 -344 414 -446 271 -205 559 -324 897
-372 90 -12 415 -14 467 -1 12 3 42 7 65 10 128 15 373 92 516 162 292 142
555 373 739 646 79 119 167 300 211 433 40 125 45 145 61 234 5 30 12 57 14
61 16 27 25 368 13 490 -26 239 -109 511 -210 683 -15 26 -28 50 -28 53 0 10
-104 160 -158 229 -58 74 -183 202 -267 273 -71 61 -256 182 -350 229 -170 85
-293 126 -546 178 -61 13 -411 28 -422 19z m363 -849 c251 -64 449 -194 595
-390 141 -188 206 -385 206 -620 0 -80 -3 -112 -16 -190 -21 -130 -98 -304
-185 -421 -227 -304 -593 -458 -965 -408 -133 18 -146 22 -265 72 -332 139
-570 447 -625 806 -8 54 -7 209 1 276 54 447 420 821 869 890 82 13 313 4 385
-15z"/>
<path d="M550 4667 c-222 -64 -398 -305 -490 -671 -45 -179 -58 -306 -55 -526
3 -138 12 -247 29 -330 1 -8 6 -33 11 -55 59 -306 204 -565 380 -680 232 -151
492 -43 664 277 141 260 207 627 180 988 -9 108 -14 144 -33 245 -60 308 -203
572 -371 687 -98 67 -221 92 -315 65z m69 -536 c104 -54 195 -218 236 -423 21
-112 14 -359 -15 -468 -78 -295 -248 -442 -415 -359 -120 60 -211 228 -251
464 -14 77 -9 278 9 375 40 219 158 400 280 431 45 11 110 3 156 -20z"/>
<path d="M6308 4659 c-142 -23 -285 -141 -386 -319 -68 -120 -135 -306 -156
-435 -3 -16 -10 -53 -15 -81 -34 -180 -32 -496 5 -699 48 -266 159 -515 289
-650 44 -46 115 -96 171 -122 76 -34 192 -38 269 -9 135 52 246 164 338 344
81 157 126 308 158 527 14 99 18 415 6 510 -59 463 -236 799 -475 905 -38 17
-61 23 -137 34 -11 2 -41 0 -67 -5z m289 -551 c90 -55 176 -205 214 -373 33
-151 30 -370 -7 -516 -89 -349 -327 -482 -504 -282 -53 60 -112 182 -142 293
-20 73 -23 109 -23 265 1 196 15 276 75 410 94 209 246 289 387 203z"/>
<path d="M6072 2009 c-363 -92 -805 -485 -990 -879 -51 -109 -74 -188 -78
-266 -4 -86 12 -139 55 -184 198 -209 822 139 1165 650 159 236 220 466 159
590 -47 93 -163 127 -311 89z m42 -383 c25 -16 46 -69 46 -116 0 -69 -65 -207
-145 -310 -45 -58 -186 -188 -251 -231 -338 -226 -507 -53 -279 285 179 267
500 457 629 372z"/>
<path d="M770 2003 c-8 -3 -34 -14 -58 -25 -117 -55 -133 -243 -37 -452 14
-30 25 -57 25 -60 0 -2 23 -41 50 -86 170 -278 434 -531 700 -673 271 -145
469 -143 546 3 27 52 24 174 -6 270 -41 132 -163 343 -264 460 -295 338 -629
553 -879 564 -34 2 -69 1 -77 -1z m320 -396 c204 -74 440 -308 523 -517 20
-49 25 -79 23 -124 -3 -53 -7 -63 -36 -89 -30 -27 -37 -29 -99 -25 -245 14
-619 384 -639 633 -4 50 -1 70 12 91 37 55 117 67 216 31z"/>
<path d="M3397 1274 c-1 -1 -42 -4 -92 -8 -49 -3 -100 -8 -111 -10 -12 -2 -37
-7 -56 -10 -378 -60 -689 -244 -789 -468 -19 -43 -23 -69 -23 -143 0 -77 4
-98 27 -145 62 -127 165 -224 327 -309 147 -76 335 -135 500 -156 30 -4 64 -9
75 -12 38 -9 380 -11 440 -3 33 5 83 11 110 15 211 27 452 114 603 218 264
182 327 419 168 635 -24 33 -62 74 -85 93 -23 19 -54 44 -69 57 -83 70 -357
179 -521 207 -19 3 -37 8 -40 10 -4 2 -33 6 -66 9 -33 4 -79 9 -101 12 -40 6
-292 13 -297 8z m268 -415 c28 -5 59 -11 70 -13 162 -30 333 -134 384 -233 76
-150 -34 -307 -275 -392 -180 -63 -394 -73 -619 -27 -143 29 -314 137 -361
229 -24 44 -24 142 0 187 64 124 255 224 481 253 62 7 272 5 320 -4z"/>
</g>
</svg>
